%TF.GenerationSoftware,KiCad,Pcbnew,(5.1.6)-1*%
%TF.CreationDate,2020-07-27T20:44:57-04:00*%
%TF.ProjectId,keyboard,6b657962-6f61-4726-942e-6b696361645f,rev?*%
%TF.SameCoordinates,Original*%
%TF.FileFunction,Soldermask,Top*%
%TF.FilePolarity,Negative*%
%FSLAX46Y46*%
G04 Gerber Fmt 4.6, Leading zero omitted, Abs format (unit mm)*
G04 Created by KiCad (PCBNEW (5.1.6)-1) date 2020-07-27 20:44:57*
%MOMM*%
%LPD*%
G01*
G04 APERTURE LIST*
%ADD10C,2.300000*%
%ADD11C,4.087800*%
%ADD12C,3.148000*%
%ADD13R,2.650000X2.600000*%
%ADD14C,1.850000*%
%ADD15C,3.100000*%
%ADD16R,1.900000X1.200000*%
%ADD17O,1.000000X1.800000*%
%ADD18O,1.000000X2.500000*%
%ADD19C,0.800000*%
G04 APERTURE END LIST*
D10*
%TO.C,M2_2.2mm*%
X149225000Y-159543750D03*
%TD*%
%TO.C,M2_2.2mm*%
X220662500Y-140493750D03*
%TD*%
%TO.C,M2_2.2mm*%
X288925000Y-121443750D03*
%TD*%
%TO.C,M2_2.2mm*%
X65881250Y-139700000D03*
%TD*%
%TO.C,M2_2.2mm*%
X203200000Y-192913000D03*
%TD*%
%TO.C,M2_2.2mm*%
X357187500Y-100806250D03*
%TD*%
%TO.C,M2_2.2mm*%
X357187500Y-200818750D03*
%TD*%
%TO.C,M2_2.2mm*%
X36512500Y-100806250D03*
%TD*%
%TO.C,M2_2.2mm*%
X36512500Y-200818750D03*
%TD*%
D11*
%TO.C,MX41*%
X292068250Y-142557500D03*
X315944250Y-142557500D03*
D12*
X292068250Y-157797500D03*
X315944250Y-157797500D03*
D13*
X309848250Y-155892500D03*
X296921250Y-153352500D03*
D14*
X309086250Y-150812500D03*
X298926250Y-150812500D03*
D15*
X300196250Y-153352500D03*
D11*
X304006250Y-150812500D03*
D15*
X306546250Y-155892500D03*
%TD*%
D16*
%TO.C,SW1*%
X349377000Y-133206000D03*
X343177000Y-136906000D03*
X349377000Y-136906000D03*
X343177000Y-133206000D03*
%TD*%
%TO.C,R8*%
G36*
G01*
X357023750Y-107793500D02*
X357986250Y-107793500D01*
G75*
G02*
X358255000Y-108062250I0J-268750D01*
G01*
X358255000Y-108599750D01*
G75*
G02*
X357986250Y-108868500I-268750J0D01*
G01*
X357023750Y-108868500D01*
G75*
G02*
X356755000Y-108599750I0J268750D01*
G01*
X356755000Y-108062250D01*
G75*
G02*
X357023750Y-107793500I268750J0D01*
G01*
G37*
G36*
G01*
X357023750Y-105918500D02*
X357986250Y-105918500D01*
G75*
G02*
X358255000Y-106187250I0J-268750D01*
G01*
X358255000Y-106724750D01*
G75*
G02*
X357986250Y-106993500I-268750J0D01*
G01*
X357023750Y-106993500D01*
G75*
G02*
X356755000Y-106724750I0J268750D01*
G01*
X356755000Y-106187250D01*
G75*
G02*
X357023750Y-105918500I268750J0D01*
G01*
G37*
%TD*%
%TO.C,R7*%
G36*
G01*
X337158250Y-106231500D02*
X336195750Y-106231500D01*
G75*
G02*
X335927000Y-105962750I0J268750D01*
G01*
X335927000Y-105425250D01*
G75*
G02*
X336195750Y-105156500I268750J0D01*
G01*
X337158250Y-105156500D01*
G75*
G02*
X337427000Y-105425250I0J-268750D01*
G01*
X337427000Y-105962750D01*
G75*
G02*
X337158250Y-106231500I-268750J0D01*
G01*
G37*
G36*
G01*
X337158250Y-108106500D02*
X336195750Y-108106500D01*
G75*
G02*
X335927000Y-107837750I0J268750D01*
G01*
X335927000Y-107300250D01*
G75*
G02*
X336195750Y-107031500I268750J0D01*
G01*
X337158250Y-107031500D01*
G75*
G02*
X337427000Y-107300250I0J-268750D01*
G01*
X337427000Y-107837750D01*
G75*
G02*
X337158250Y-108106500I-268750J0D01*
G01*
G37*
%TD*%
%TO.C,R4*%
G36*
G01*
X353216500Y-132614750D02*
X353216500Y-133577250D01*
G75*
G02*
X352947750Y-133846000I-268750J0D01*
G01*
X352410250Y-133846000D01*
G75*
G02*
X352141500Y-133577250I0J268750D01*
G01*
X352141500Y-132614750D01*
G75*
G02*
X352410250Y-132346000I268750J0D01*
G01*
X352947750Y-132346000D01*
G75*
G02*
X353216500Y-132614750I0J-268750D01*
G01*
G37*
G36*
G01*
X355091500Y-132614750D02*
X355091500Y-133577250D01*
G75*
G02*
X354822750Y-133846000I-268750J0D01*
G01*
X354285250Y-133846000D01*
G75*
G02*
X354016500Y-133577250I0J268750D01*
G01*
X354016500Y-132614750D01*
G75*
G02*
X354285250Y-132346000I268750J0D01*
G01*
X354822750Y-132346000D01*
G75*
G02*
X355091500Y-132614750I0J-268750D01*
G01*
G37*
%TD*%
%TO.C,R3*%
G36*
G01*
X343762250Y-106231500D02*
X342799750Y-106231500D01*
G75*
G02*
X342531000Y-105962750I0J268750D01*
G01*
X342531000Y-105425250D01*
G75*
G02*
X342799750Y-105156500I268750J0D01*
G01*
X343762250Y-105156500D01*
G75*
G02*
X344031000Y-105425250I0J-268750D01*
G01*
X344031000Y-105962750D01*
G75*
G02*
X343762250Y-106231500I-268750J0D01*
G01*
G37*
G36*
G01*
X343762250Y-108106500D02*
X342799750Y-108106500D01*
G75*
G02*
X342531000Y-107837750I0J268750D01*
G01*
X342531000Y-107300250D01*
G75*
G02*
X342799750Y-107031500I268750J0D01*
G01*
X343762250Y-107031500D01*
G75*
G02*
X344031000Y-107300250I0J-268750D01*
G01*
X344031000Y-107837750D01*
G75*
G02*
X343762250Y-108106500I-268750J0D01*
G01*
G37*
%TD*%
%TO.C,R2*%
G36*
G01*
X340460250Y-106231500D02*
X339497750Y-106231500D01*
G75*
G02*
X339229000Y-105962750I0J268750D01*
G01*
X339229000Y-105425250D01*
G75*
G02*
X339497750Y-105156500I268750J0D01*
G01*
X340460250Y-105156500D01*
G75*
G02*
X340729000Y-105425250I0J-268750D01*
G01*
X340729000Y-105962750D01*
G75*
G02*
X340460250Y-106231500I-268750J0D01*
G01*
G37*
G36*
G01*
X340460250Y-108106500D02*
X339497750Y-108106500D01*
G75*
G02*
X339229000Y-107837750I0J268750D01*
G01*
X339229000Y-107300250D01*
G75*
G02*
X339497750Y-107031500I268750J0D01*
G01*
X340460250Y-107031500D01*
G75*
G02*
X340729000Y-107300250I0J-268750D01*
G01*
X340729000Y-107837750D01*
G75*
G02*
X340460250Y-108106500I-268750J0D01*
G01*
G37*
%TD*%
D13*
%TO.C,MX66*%
X350329500Y-193992500D03*
X337402500Y-191452500D03*
D14*
X349567500Y-188912500D03*
X339407500Y-188912500D03*
D15*
X340677500Y-191452500D03*
D11*
X344487500Y-188912500D03*
D15*
X347027500Y-193992500D03*
%TD*%
D13*
%TO.C,MX65*%
X331279500Y-193992500D03*
X318352500Y-191452500D03*
D14*
X330517500Y-188912500D03*
X320357500Y-188912500D03*
D15*
X321627500Y-191452500D03*
D11*
X325437500Y-188912500D03*
D15*
X327977500Y-193992500D03*
%TD*%
D13*
%TO.C,MX64*%
X312229500Y-193992500D03*
X299302500Y-191452500D03*
D14*
X311467500Y-188912500D03*
X301307500Y-188912500D03*
D15*
X302577500Y-191452500D03*
D11*
X306387500Y-188912500D03*
D15*
X308927500Y-193992500D03*
%TD*%
D13*
%TO.C,MX63*%
X290798250Y-193992500D03*
X277871250Y-191452500D03*
D14*
X290036250Y-188912500D03*
X279876250Y-188912500D03*
D15*
X281146250Y-191452500D03*
D11*
X284956250Y-188912500D03*
D15*
X287496250Y-193992500D03*
%TD*%
D13*
%TO.C,MX62*%
X266985750Y-193992500D03*
X254058750Y-191452500D03*
D14*
X266223750Y-188912500D03*
X256063750Y-188912500D03*
D15*
X257333750Y-191452500D03*
D11*
X261143750Y-188912500D03*
D15*
X263683750Y-193992500D03*
%TD*%
D13*
%TO.C,MX61*%
X243173250Y-193992500D03*
X230246250Y-191452500D03*
D14*
X242411250Y-188912500D03*
X232251250Y-188912500D03*
D15*
X233521250Y-191452500D03*
D11*
X237331250Y-188912500D03*
D15*
X239871250Y-193992500D03*
%TD*%
D11*
%TO.C,MX60*%
X115893850Y-180657500D03*
X215893650Y-180657500D03*
D12*
X115893850Y-195897500D03*
X215893650Y-195897500D03*
D13*
X171735750Y-193992500D03*
X158808750Y-191452500D03*
D14*
X170973750Y-188912500D03*
X160813750Y-188912500D03*
D15*
X162083750Y-191452500D03*
D11*
X165893750Y-188912500D03*
D15*
X168433750Y-193992500D03*
%TD*%
D13*
%TO.C,MX59*%
X100298250Y-193992500D03*
X87371250Y-191452500D03*
D14*
X99536250Y-188912500D03*
X89376250Y-188912500D03*
D15*
X90646250Y-191452500D03*
D11*
X94456250Y-188912500D03*
D15*
X96996250Y-193992500D03*
%TD*%
D13*
%TO.C,MX58*%
X78867000Y-193992500D03*
X65940000Y-191452500D03*
D14*
X78105000Y-188912500D03*
X67945000Y-188912500D03*
D15*
X69215000Y-191452500D03*
D11*
X73025000Y-188912500D03*
D15*
X75565000Y-193992500D03*
%TD*%
D13*
%TO.C,MX57*%
X57435750Y-193992500D03*
X44508750Y-191452500D03*
D14*
X56673750Y-188912500D03*
X46513750Y-188912500D03*
D15*
X47783750Y-191452500D03*
D11*
X51593750Y-188912500D03*
D15*
X54133750Y-193992500D03*
%TD*%
D13*
%TO.C,MX56*%
X350329500Y-174942500D03*
X337402500Y-172402500D03*
D14*
X349567500Y-169862500D03*
X339407500Y-169862500D03*
D15*
X340677500Y-172402500D03*
D11*
X344487500Y-169862500D03*
D15*
X347027500Y-174942500D03*
%TD*%
D13*
%TO.C,MX55*%
X331279500Y-174942500D03*
X318352500Y-172402500D03*
D14*
X330517500Y-169862500D03*
X320357500Y-169862500D03*
D15*
X321627500Y-172402500D03*
D11*
X325437500Y-169862500D03*
D15*
X327977500Y-174942500D03*
%TD*%
D11*
%TO.C,MX54*%
X282543250Y-161607500D03*
X306419250Y-161607500D03*
D12*
X282543250Y-176847500D03*
X306419250Y-176847500D03*
D13*
X300323250Y-174942500D03*
X287396250Y-172402500D03*
D14*
X299561250Y-169862500D03*
X289401250Y-169862500D03*
D15*
X290671250Y-172402500D03*
D11*
X294481250Y-169862500D03*
D15*
X297021250Y-174942500D03*
%TD*%
D13*
%TO.C,MX53*%
X269367000Y-174942500D03*
X256440000Y-172402500D03*
D14*
X268605000Y-169862500D03*
X258445000Y-169862500D03*
D15*
X259715000Y-172402500D03*
D11*
X263525000Y-169862500D03*
D15*
X266065000Y-174942500D03*
%TD*%
D13*
%TO.C,MX52*%
X250317000Y-174942500D03*
X237390000Y-172402500D03*
D14*
X249555000Y-169862500D03*
X239395000Y-169862500D03*
D15*
X240665000Y-172402500D03*
D11*
X244475000Y-169862500D03*
D15*
X247015000Y-174942500D03*
%TD*%
D13*
%TO.C,MX51*%
X231267000Y-174942500D03*
X218340000Y-172402500D03*
D14*
X230505000Y-169862500D03*
X220345000Y-169862500D03*
D15*
X221615000Y-172402500D03*
D11*
X225425000Y-169862500D03*
D15*
X227965000Y-174942500D03*
%TD*%
D13*
%TO.C,MX50*%
X212217000Y-174942500D03*
X199290000Y-172402500D03*
D14*
X211455000Y-169862500D03*
X201295000Y-169862500D03*
D15*
X202565000Y-172402500D03*
D11*
X206375000Y-169862500D03*
D15*
X208915000Y-174942500D03*
%TD*%
D13*
%TO.C,MX49*%
X193167000Y-174942500D03*
X180240000Y-172402500D03*
D14*
X192405000Y-169862500D03*
X182245000Y-169862500D03*
D15*
X183515000Y-172402500D03*
D11*
X187325000Y-169862500D03*
D15*
X189865000Y-174942500D03*
%TD*%
D13*
%TO.C,MX48*%
X174117000Y-174942500D03*
X161190000Y-172402500D03*
D14*
X173355000Y-169862500D03*
X163195000Y-169862500D03*
D15*
X164465000Y-172402500D03*
D11*
X168275000Y-169862500D03*
D15*
X170815000Y-174942500D03*
%TD*%
D13*
%TO.C,MX47*%
X155067000Y-174942500D03*
X142140000Y-172402500D03*
D14*
X154305000Y-169862500D03*
X144145000Y-169862500D03*
D15*
X145415000Y-172402500D03*
D11*
X149225000Y-169862500D03*
D15*
X151765000Y-174942500D03*
%TD*%
D13*
%TO.C,MX46*%
X136017000Y-174942500D03*
X123090000Y-172402500D03*
D14*
X135255000Y-169862500D03*
X125095000Y-169862500D03*
D15*
X126365000Y-172402500D03*
D11*
X130175000Y-169862500D03*
D15*
X132715000Y-174942500D03*
%TD*%
D13*
%TO.C,MX45*%
X116967000Y-174942500D03*
X104040000Y-172402500D03*
D14*
X116205000Y-169862500D03*
X106045000Y-169862500D03*
D15*
X107315000Y-172402500D03*
D11*
X111125000Y-169862500D03*
D15*
X113665000Y-174942500D03*
%TD*%
D13*
%TO.C,MX44*%
X97917000Y-174942500D03*
X84990000Y-172402500D03*
D14*
X97155000Y-169862500D03*
X86995000Y-169862500D03*
D15*
X88265000Y-172402500D03*
D11*
X92075000Y-169862500D03*
D15*
X94615000Y-174942500D03*
%TD*%
D11*
%TO.C,MX43*%
X49180750Y-161607500D03*
X73056750Y-161607500D03*
D12*
X49180750Y-176847500D03*
X73056750Y-176847500D03*
D13*
X66960750Y-174942500D03*
X54033750Y-172402500D03*
D14*
X66198750Y-169862500D03*
X56038750Y-169862500D03*
D15*
X57308750Y-172402500D03*
D11*
X61118750Y-169862500D03*
D15*
X63658750Y-174942500D03*
%TD*%
D13*
%TO.C,MX42*%
X350329500Y-155892500D03*
X337402500Y-153352500D03*
D14*
X349567500Y-150812500D03*
X339407500Y-150812500D03*
D15*
X340677500Y-153352500D03*
D11*
X344487500Y-150812500D03*
D15*
X347027500Y-155892500D03*
%TD*%
D13*
%TO.C,MX40*%
X278892000Y-155892500D03*
X265965000Y-153352500D03*
D14*
X278130000Y-150812500D03*
X267970000Y-150812500D03*
D15*
X269240000Y-153352500D03*
D11*
X273050000Y-150812500D03*
D15*
X275590000Y-155892500D03*
%TD*%
D13*
%TO.C,MX39*%
X259842000Y-155892500D03*
X246915000Y-153352500D03*
D14*
X259080000Y-150812500D03*
X248920000Y-150812500D03*
D15*
X250190000Y-153352500D03*
D11*
X254000000Y-150812500D03*
D15*
X256540000Y-155892500D03*
%TD*%
D13*
%TO.C,MX38*%
X240792000Y-155892500D03*
X227865000Y-153352500D03*
D14*
X240030000Y-150812500D03*
X229870000Y-150812500D03*
D15*
X231140000Y-153352500D03*
D11*
X234950000Y-150812500D03*
D15*
X237490000Y-155892500D03*
%TD*%
D13*
%TO.C,MX37*%
X221742000Y-155892500D03*
X208815000Y-153352500D03*
D14*
X220980000Y-150812500D03*
X210820000Y-150812500D03*
D15*
X212090000Y-153352500D03*
D11*
X215900000Y-150812500D03*
D15*
X218440000Y-155892500D03*
%TD*%
D13*
%TO.C,MX36*%
X202692000Y-155892500D03*
X189765000Y-153352500D03*
D14*
X201930000Y-150812500D03*
X191770000Y-150812500D03*
D15*
X193040000Y-153352500D03*
D11*
X196850000Y-150812500D03*
D15*
X199390000Y-155892500D03*
%TD*%
D13*
%TO.C,MX35*%
X183642000Y-155892500D03*
X170715000Y-153352500D03*
D14*
X182880000Y-150812500D03*
X172720000Y-150812500D03*
D15*
X173990000Y-153352500D03*
D11*
X177800000Y-150812500D03*
D15*
X180340000Y-155892500D03*
%TD*%
D13*
%TO.C,MX34*%
X164592000Y-155892500D03*
X151665000Y-153352500D03*
D14*
X163830000Y-150812500D03*
X153670000Y-150812500D03*
D15*
X154940000Y-153352500D03*
D11*
X158750000Y-150812500D03*
D15*
X161290000Y-155892500D03*
%TD*%
D13*
%TO.C,MX33*%
X145542000Y-155892500D03*
X132615000Y-153352500D03*
D14*
X144780000Y-150812500D03*
X134620000Y-150812500D03*
D15*
X135890000Y-153352500D03*
D11*
X139700000Y-150812500D03*
D15*
X142240000Y-155892500D03*
%TD*%
D13*
%TO.C,MX32*%
X126492000Y-155892500D03*
X113565000Y-153352500D03*
D14*
X125730000Y-150812500D03*
X115570000Y-150812500D03*
D15*
X116840000Y-153352500D03*
D11*
X120650000Y-150812500D03*
D15*
X123190000Y-155892500D03*
%TD*%
D13*
%TO.C,MX31*%
X107442000Y-155892500D03*
X94515000Y-153352500D03*
D14*
X106680000Y-150812500D03*
X96520000Y-150812500D03*
D15*
X97790000Y-153352500D03*
D11*
X101600000Y-150812500D03*
D15*
X104140000Y-155892500D03*
%TD*%
D13*
%TO.C,MX30*%
X88392000Y-155892500D03*
X75465000Y-153352500D03*
D14*
X87630000Y-150812500D03*
X77470000Y-150812500D03*
D15*
X78740000Y-153352500D03*
D11*
X82550000Y-150812500D03*
D15*
X85090000Y-155892500D03*
%TD*%
D13*
%TO.C,MX29*%
X62198250Y-155892500D03*
X49271250Y-153352500D03*
D14*
X61436250Y-150812500D03*
X51276250Y-150812500D03*
D15*
X52546250Y-153352500D03*
D11*
X56356250Y-150812500D03*
D15*
X58896250Y-155892500D03*
%TD*%
D13*
%TO.C,MX28*%
X316992000Y-136842500D03*
X304065000Y-134302500D03*
D14*
X316230000Y-131762500D03*
X306070000Y-131762500D03*
D15*
X307340000Y-134302500D03*
D11*
X311150000Y-131762500D03*
D15*
X313690000Y-136842500D03*
%TD*%
D13*
%TO.C,MX27*%
X293179500Y-136842500D03*
X280252500Y-134302500D03*
D14*
X292417500Y-131762500D03*
X282257500Y-131762500D03*
D15*
X283527500Y-134302500D03*
D11*
X287337500Y-131762500D03*
D15*
X289877500Y-136842500D03*
%TD*%
D13*
%TO.C,MX26*%
X274129500Y-136842500D03*
X261202500Y-134302500D03*
D14*
X273367500Y-131762500D03*
X263207500Y-131762500D03*
D15*
X264477500Y-134302500D03*
D11*
X268287500Y-131762500D03*
D15*
X270827500Y-136842500D03*
%TD*%
D13*
%TO.C,MX25*%
X255079500Y-136842500D03*
X242152500Y-134302500D03*
D14*
X254317500Y-131762500D03*
X244157500Y-131762500D03*
D15*
X245427500Y-134302500D03*
D11*
X249237500Y-131762500D03*
D15*
X251777500Y-136842500D03*
%TD*%
D13*
%TO.C,MX24*%
X236029500Y-136842500D03*
X223102500Y-134302500D03*
D14*
X235267500Y-131762500D03*
X225107500Y-131762500D03*
D15*
X226377500Y-134302500D03*
D11*
X230187500Y-131762500D03*
D15*
X232727500Y-136842500D03*
%TD*%
D13*
%TO.C,MX23*%
X216979500Y-136842500D03*
X204052500Y-134302500D03*
D14*
X216217500Y-131762500D03*
X206057500Y-131762500D03*
D15*
X207327500Y-134302500D03*
D11*
X211137500Y-131762500D03*
D15*
X213677500Y-136842500D03*
%TD*%
D13*
%TO.C,MX22*%
X197929500Y-136842500D03*
X185002500Y-134302500D03*
D14*
X197167500Y-131762500D03*
X187007500Y-131762500D03*
D15*
X188277500Y-134302500D03*
D11*
X192087500Y-131762500D03*
D15*
X194627500Y-136842500D03*
%TD*%
D13*
%TO.C,MX21*%
X178879500Y-136842500D03*
X165952500Y-134302500D03*
D14*
X178117500Y-131762500D03*
X167957500Y-131762500D03*
D15*
X169227500Y-134302500D03*
D11*
X173037500Y-131762500D03*
D15*
X175577500Y-136842500D03*
%TD*%
D13*
%TO.C,MX20*%
X159829500Y-136842500D03*
X146902500Y-134302500D03*
D14*
X159067500Y-131762500D03*
X148907500Y-131762500D03*
D15*
X150177500Y-134302500D03*
D11*
X153987500Y-131762500D03*
D15*
X156527500Y-136842500D03*
%TD*%
D13*
%TO.C,MX19*%
X140779500Y-136842500D03*
X127852500Y-134302500D03*
D14*
X140017500Y-131762500D03*
X129857500Y-131762500D03*
D15*
X131127500Y-134302500D03*
D11*
X134937500Y-131762500D03*
D15*
X137477500Y-136842500D03*
%TD*%
D13*
%TO.C,MX18*%
X121729500Y-136842500D03*
X108802500Y-134302500D03*
D14*
X120967500Y-131762500D03*
X110807500Y-131762500D03*
D15*
X112077500Y-134302500D03*
D11*
X115887500Y-131762500D03*
D15*
X118427500Y-136842500D03*
%TD*%
D13*
%TO.C,MX17*%
X102679500Y-136842500D03*
X89752500Y-134302500D03*
D14*
X101917500Y-131762500D03*
X91757500Y-131762500D03*
D15*
X93027500Y-134302500D03*
D11*
X96837500Y-131762500D03*
D15*
X99377500Y-136842500D03*
%TD*%
D13*
%TO.C,MX16*%
X83629500Y-136842500D03*
X70702500Y-134302500D03*
D14*
X82867500Y-131762500D03*
X72707500Y-131762500D03*
D15*
X73977500Y-134302500D03*
D11*
X77787500Y-131762500D03*
D15*
X80327500Y-136842500D03*
%TD*%
D13*
%TO.C,MX15*%
X59817000Y-136842500D03*
X46890000Y-134302500D03*
D14*
X59055000Y-131762500D03*
X48895000Y-131762500D03*
D15*
X50165000Y-134302500D03*
D11*
X53975000Y-131762500D03*
D15*
X56515000Y-136842500D03*
%TD*%
D11*
%TO.C,MX14*%
X294449500Y-104457500D03*
X318325500Y-104457500D03*
D12*
X294449500Y-119697500D03*
X318325500Y-119697500D03*
D13*
X312229500Y-117792500D03*
X299302500Y-115252500D03*
D14*
X311467500Y-112712500D03*
X301307500Y-112712500D03*
D15*
X302577500Y-115252500D03*
D11*
X306387500Y-112712500D03*
D15*
X308927500Y-117792500D03*
%TD*%
D13*
%TO.C,MX13*%
X283654500Y-117792500D03*
X270727500Y-115252500D03*
D14*
X282892500Y-112712500D03*
X272732500Y-112712500D03*
D15*
X274002500Y-115252500D03*
D11*
X277812500Y-112712500D03*
D15*
X280352500Y-117792500D03*
%TD*%
D13*
%TO.C,MX12*%
X264604500Y-117792500D03*
X251677500Y-115252500D03*
D14*
X263842500Y-112712500D03*
X253682500Y-112712500D03*
D15*
X254952500Y-115252500D03*
D11*
X258762500Y-112712500D03*
D15*
X261302500Y-117792500D03*
%TD*%
D13*
%TO.C,MX11*%
X245554500Y-117792500D03*
X232627500Y-115252500D03*
D14*
X244792500Y-112712500D03*
X234632500Y-112712500D03*
D15*
X235902500Y-115252500D03*
D11*
X239712500Y-112712500D03*
D15*
X242252500Y-117792500D03*
%TD*%
D13*
%TO.C,MX10*%
X226504500Y-117792500D03*
X213577500Y-115252500D03*
D14*
X225742500Y-112712500D03*
X215582500Y-112712500D03*
D15*
X216852500Y-115252500D03*
D11*
X220662500Y-112712500D03*
D15*
X223202500Y-117792500D03*
%TD*%
D13*
%TO.C,MX9*%
X207454500Y-117792500D03*
X194527500Y-115252500D03*
D14*
X206692500Y-112712500D03*
X196532500Y-112712500D03*
D15*
X197802500Y-115252500D03*
D11*
X201612500Y-112712500D03*
D15*
X204152500Y-117792500D03*
%TD*%
D13*
%TO.C,MX8*%
X188404500Y-117792500D03*
X175477500Y-115252500D03*
D14*
X187642500Y-112712500D03*
X177482500Y-112712500D03*
D15*
X178752500Y-115252500D03*
D11*
X182562500Y-112712500D03*
D15*
X185102500Y-117792500D03*
%TD*%
D13*
%TO.C,MX7*%
X169354500Y-117792500D03*
X156427500Y-115252500D03*
D14*
X168592500Y-112712500D03*
X158432500Y-112712500D03*
D15*
X159702500Y-115252500D03*
D11*
X163512500Y-112712500D03*
D15*
X166052500Y-117792500D03*
%TD*%
D13*
%TO.C,MX6*%
X150304500Y-117792500D03*
X137377500Y-115252500D03*
D14*
X149542500Y-112712500D03*
X139382500Y-112712500D03*
D15*
X140652500Y-115252500D03*
D11*
X144462500Y-112712500D03*
D15*
X147002500Y-117792500D03*
%TD*%
D13*
%TO.C,MX5*%
X131254500Y-117792500D03*
X118327500Y-115252500D03*
D14*
X130492500Y-112712500D03*
X120332500Y-112712500D03*
D15*
X121602500Y-115252500D03*
D11*
X125412500Y-112712500D03*
D15*
X127952500Y-117792500D03*
%TD*%
D13*
%TO.C,MX4*%
X112204500Y-117792500D03*
X99277500Y-115252500D03*
D14*
X111442500Y-112712500D03*
X101282500Y-112712500D03*
D15*
X102552500Y-115252500D03*
D11*
X106362500Y-112712500D03*
D15*
X108902500Y-117792500D03*
%TD*%
D13*
%TO.C,MX3*%
X93154500Y-117792500D03*
X80227500Y-115252500D03*
D14*
X92392500Y-112712500D03*
X82232500Y-112712500D03*
D15*
X83502500Y-115252500D03*
D11*
X87312500Y-112712500D03*
D15*
X89852500Y-117792500D03*
%TD*%
D13*
%TO.C,MX2*%
X74104500Y-117792500D03*
X61177500Y-115252500D03*
D14*
X73342500Y-112712500D03*
X63182500Y-112712500D03*
D15*
X64452500Y-115252500D03*
D11*
X68262500Y-112712500D03*
D15*
X70802500Y-117792500D03*
%TD*%
D13*
%TO.C,MX1*%
X55054500Y-117792500D03*
X42127500Y-115252500D03*
D14*
X54292500Y-112712500D03*
X44132500Y-112712500D03*
D15*
X45402500Y-115252500D03*
D11*
X49212500Y-112712500D03*
D15*
X51752500Y-117792500D03*
%TD*%
D17*
%TO.C,J1*%
X346072500Y-96859000D03*
X337422500Y-96859000D03*
D18*
X346072500Y-100239000D03*
X337422500Y-100239000D03*
D19*
X342172500Y-99869000D03*
X344722500Y-99869000D03*
X343872500Y-99869000D03*
X343022500Y-99869000D03*
X338772500Y-99869000D03*
X340472500Y-99869000D03*
X341322500Y-99869000D03*
X339622500Y-99869000D03*
X344722500Y-101219000D03*
X343872500Y-101219000D03*
X343022500Y-101219000D03*
X342172500Y-101219000D03*
X341322500Y-101219000D03*
X340472500Y-101219000D03*
X339622500Y-101219000D03*
X338772500Y-101219000D03*
%TD*%
%TO.C,F1*%
G36*
G01*
X347619000Y-106206000D02*
X346309000Y-106206000D01*
G75*
G02*
X346039000Y-105936000I0J270000D01*
G01*
X346039000Y-105126000D01*
G75*
G02*
X346309000Y-104856000I270000J0D01*
G01*
X347619000Y-104856000D01*
G75*
G02*
X347889000Y-105126000I0J-270000D01*
G01*
X347889000Y-105936000D01*
G75*
G02*
X347619000Y-106206000I-270000J0D01*
G01*
G37*
G36*
G01*
X347619000Y-109006000D02*
X346309000Y-109006000D01*
G75*
G02*
X346039000Y-108736000I0J270000D01*
G01*
X346039000Y-107926000D01*
G75*
G02*
X346309000Y-107656000I270000J0D01*
G01*
X347619000Y-107656000D01*
G75*
G02*
X347889000Y-107926000I0J-270000D01*
G01*
X347889000Y-108736000D01*
G75*
G02*
X347619000Y-109006000I-270000J0D01*
G01*
G37*
%TD*%
%TO.C,D67*%
G36*
G01*
X352324750Y-107793500D02*
X353287250Y-107793500D01*
G75*
G02*
X353556000Y-108062250I0J-268750D01*
G01*
X353556000Y-108599750D01*
G75*
G02*
X353287250Y-108868500I-268750J0D01*
G01*
X352324750Y-108868500D01*
G75*
G02*
X352056000Y-108599750I0J268750D01*
G01*
X352056000Y-108062250D01*
G75*
G02*
X352324750Y-107793500I268750J0D01*
G01*
G37*
G36*
G01*
X352324750Y-105918500D02*
X353287250Y-105918500D01*
G75*
G02*
X353556000Y-106187250I0J-268750D01*
G01*
X353556000Y-106724750D01*
G75*
G02*
X353287250Y-106993500I-268750J0D01*
G01*
X352324750Y-106993500D01*
G75*
G02*
X352056000Y-106724750I0J268750D01*
G01*
X352056000Y-106187250D01*
G75*
G02*
X352324750Y-105918500I268750J0D01*
G01*
G37*
%TD*%
%TO.C,C9*%
G36*
G01*
X354016500Y-137387250D02*
X354016500Y-136424750D01*
G75*
G02*
X354285250Y-136156000I268750J0D01*
G01*
X354822750Y-136156000D01*
G75*
G02*
X355091500Y-136424750I0J-268750D01*
G01*
X355091500Y-137387250D01*
G75*
G02*
X354822750Y-137656000I-268750J0D01*
G01*
X354285250Y-137656000D01*
G75*
G02*
X354016500Y-137387250I0J268750D01*
G01*
G37*
G36*
G01*
X352141500Y-137387250D02*
X352141500Y-136424750D01*
G75*
G02*
X352410250Y-136156000I268750J0D01*
G01*
X352947750Y-136156000D01*
G75*
G02*
X353216500Y-136424750I0J-268750D01*
G01*
X353216500Y-137387250D01*
G75*
G02*
X352947750Y-137656000I-268750J0D01*
G01*
X352410250Y-137656000D01*
G75*
G02*
X352141500Y-137387250I0J268750D01*
G01*
G37*
%TD*%
%TO.C,C6*%
G36*
G01*
X341816500Y-115088750D02*
X341816500Y-116051250D01*
G75*
G02*
X341547750Y-116320000I-268750J0D01*
G01*
X341010250Y-116320000D01*
G75*
G02*
X340741500Y-116051250I0J268750D01*
G01*
X340741500Y-115088750D01*
G75*
G02*
X341010250Y-114820000I268750J0D01*
G01*
X341547750Y-114820000D01*
G75*
G02*
X341816500Y-115088750I0J-268750D01*
G01*
G37*
G36*
G01*
X343691500Y-115088750D02*
X343691500Y-116051250D01*
G75*
G02*
X343422750Y-116320000I-268750J0D01*
G01*
X342885250Y-116320000D01*
G75*
G02*
X342616500Y-116051250I0J268750D01*
G01*
X342616500Y-115088750D01*
G75*
G02*
X342885250Y-114820000I268750J0D01*
G01*
X343422750Y-114820000D01*
G75*
G02*
X343691500Y-115088750I0J-268750D01*
G01*
G37*
%TD*%
%TO.C,C5*%
G36*
G01*
X347031500Y-118845250D02*
X347031500Y-117882750D01*
G75*
G02*
X347300250Y-117614000I268750J0D01*
G01*
X347837750Y-117614000D01*
G75*
G02*
X348106500Y-117882750I0J-268750D01*
G01*
X348106500Y-118845250D01*
G75*
G02*
X347837750Y-119114000I-268750J0D01*
G01*
X347300250Y-119114000D01*
G75*
G02*
X347031500Y-118845250I0J268750D01*
G01*
G37*
G36*
G01*
X345156500Y-118845250D02*
X345156500Y-117882750D01*
G75*
G02*
X345425250Y-117614000I268750J0D01*
G01*
X345962750Y-117614000D01*
G75*
G02*
X346231500Y-117882750I0J-268750D01*
G01*
X346231500Y-118845250D01*
G75*
G02*
X345962750Y-119114000I-268750J0D01*
G01*
X345425250Y-119114000D01*
G75*
G02*
X345156500Y-118845250I0J268750D01*
G01*
G37*
%TD*%
%TO.C,C4*%
G36*
G01*
X347031500Y-123417250D02*
X347031500Y-122454750D01*
G75*
G02*
X347300250Y-122186000I268750J0D01*
G01*
X347837750Y-122186000D01*
G75*
G02*
X348106500Y-122454750I0J-268750D01*
G01*
X348106500Y-123417250D01*
G75*
G02*
X347837750Y-123686000I-268750J0D01*
G01*
X347300250Y-123686000D01*
G75*
G02*
X347031500Y-123417250I0J268750D01*
G01*
G37*
G36*
G01*
X345156500Y-123417250D02*
X345156500Y-122454750D01*
G75*
G02*
X345425250Y-122186000I268750J0D01*
G01*
X345962750Y-122186000D01*
G75*
G02*
X346231500Y-122454750I0J-268750D01*
G01*
X346231500Y-123417250D01*
G75*
G02*
X345962750Y-123686000I-268750J0D01*
G01*
X345425250Y-123686000D01*
G75*
G02*
X345156500Y-123417250I0J268750D01*
G01*
G37*
%TD*%
%TO.C,C3*%
G36*
G01*
X339444250Y-122360500D02*
X338481750Y-122360500D01*
G75*
G02*
X338213000Y-122091750I0J268750D01*
G01*
X338213000Y-121554250D01*
G75*
G02*
X338481750Y-121285500I268750J0D01*
G01*
X339444250Y-121285500D01*
G75*
G02*
X339713000Y-121554250I0J-268750D01*
G01*
X339713000Y-122091750D01*
G75*
G02*
X339444250Y-122360500I-268750J0D01*
G01*
G37*
G36*
G01*
X339444250Y-124235500D02*
X338481750Y-124235500D01*
G75*
G02*
X338213000Y-123966750I0J268750D01*
G01*
X338213000Y-123429250D01*
G75*
G02*
X338481750Y-123160500I268750J0D01*
G01*
X339444250Y-123160500D01*
G75*
G02*
X339713000Y-123429250I0J-268750D01*
G01*
X339713000Y-123966750D01*
G75*
G02*
X339444250Y-124235500I-268750J0D01*
G01*
G37*
%TD*%
%TO.C,C2*%
G36*
G01*
X338481750Y-118431500D02*
X339444250Y-118431500D01*
G75*
G02*
X339713000Y-118700250I0J-268750D01*
G01*
X339713000Y-119237750D01*
G75*
G02*
X339444250Y-119506500I-268750J0D01*
G01*
X338481750Y-119506500D01*
G75*
G02*
X338213000Y-119237750I0J268750D01*
G01*
X338213000Y-118700250D01*
G75*
G02*
X338481750Y-118431500I268750J0D01*
G01*
G37*
G36*
G01*
X338481750Y-116556500D02*
X339444250Y-116556500D01*
G75*
G02*
X339713000Y-116825250I0J-268750D01*
G01*
X339713000Y-117362750D01*
G75*
G02*
X339444250Y-117631500I-268750J0D01*
G01*
X338481750Y-117631500D01*
G75*
G02*
X338213000Y-117362750I0J268750D01*
G01*
X338213000Y-116825250D01*
G75*
G02*
X338481750Y-116556500I268750J0D01*
G01*
G37*
%TD*%
M02*
