%TF.GenerationSoftware,KiCad,Pcbnew,(5.1.6)-1*%
%TF.CreationDate,2020-07-27T20:44:56-04:00*%
%TF.ProjectId,keyboard,6b657962-6f61-4726-942e-6b696361645f,rev?*%
%TF.SameCoordinates,Original*%
%TF.FileFunction,Paste,Top*%
%TF.FilePolarity,Positive*%
%FSLAX46Y46*%
G04 Gerber Fmt 4.6, Leading zero omitted, Abs format (unit mm)*
G04 Created by KiCad (PCBNEW (5.1.6)-1) date 2020-07-27 20:44:56*
%MOMM*%
%LPD*%
G01*
G04 APERTURE LIST*
%ADD10R,2.550000X2.500000*%
%ADD11R,1.800000X1.100000*%
G04 APERTURE END LIST*
D10*
%TO.C,MX41*%
X309848250Y-155892500D03*
X296921250Y-153352500D03*
%TD*%
D11*
%TO.C,SW1*%
X349377000Y-133206000D03*
X343177000Y-136906000D03*
X349377000Y-136906000D03*
X343177000Y-133206000D03*
%TD*%
%TO.C,R8*%
G36*
G01*
X357048750Y-107843500D02*
X357961250Y-107843500D01*
G75*
G02*
X358205000Y-108087250I0J-243750D01*
G01*
X358205000Y-108574750D01*
G75*
G02*
X357961250Y-108818500I-243750J0D01*
G01*
X357048750Y-108818500D01*
G75*
G02*
X356805000Y-108574750I0J243750D01*
G01*
X356805000Y-108087250D01*
G75*
G02*
X357048750Y-107843500I243750J0D01*
G01*
G37*
G36*
G01*
X357048750Y-105968500D02*
X357961250Y-105968500D01*
G75*
G02*
X358205000Y-106212250I0J-243750D01*
G01*
X358205000Y-106699750D01*
G75*
G02*
X357961250Y-106943500I-243750J0D01*
G01*
X357048750Y-106943500D01*
G75*
G02*
X356805000Y-106699750I0J243750D01*
G01*
X356805000Y-106212250D01*
G75*
G02*
X357048750Y-105968500I243750J0D01*
G01*
G37*
%TD*%
%TO.C,R7*%
G36*
G01*
X337133250Y-106181500D02*
X336220750Y-106181500D01*
G75*
G02*
X335977000Y-105937750I0J243750D01*
G01*
X335977000Y-105450250D01*
G75*
G02*
X336220750Y-105206500I243750J0D01*
G01*
X337133250Y-105206500D01*
G75*
G02*
X337377000Y-105450250I0J-243750D01*
G01*
X337377000Y-105937750D01*
G75*
G02*
X337133250Y-106181500I-243750J0D01*
G01*
G37*
G36*
G01*
X337133250Y-108056500D02*
X336220750Y-108056500D01*
G75*
G02*
X335977000Y-107812750I0J243750D01*
G01*
X335977000Y-107325250D01*
G75*
G02*
X336220750Y-107081500I243750J0D01*
G01*
X337133250Y-107081500D01*
G75*
G02*
X337377000Y-107325250I0J-243750D01*
G01*
X337377000Y-107812750D01*
G75*
G02*
X337133250Y-108056500I-243750J0D01*
G01*
G37*
%TD*%
%TO.C,R4*%
G36*
G01*
X353166500Y-132639750D02*
X353166500Y-133552250D01*
G75*
G02*
X352922750Y-133796000I-243750J0D01*
G01*
X352435250Y-133796000D01*
G75*
G02*
X352191500Y-133552250I0J243750D01*
G01*
X352191500Y-132639750D01*
G75*
G02*
X352435250Y-132396000I243750J0D01*
G01*
X352922750Y-132396000D01*
G75*
G02*
X353166500Y-132639750I0J-243750D01*
G01*
G37*
G36*
G01*
X355041500Y-132639750D02*
X355041500Y-133552250D01*
G75*
G02*
X354797750Y-133796000I-243750J0D01*
G01*
X354310250Y-133796000D01*
G75*
G02*
X354066500Y-133552250I0J243750D01*
G01*
X354066500Y-132639750D01*
G75*
G02*
X354310250Y-132396000I243750J0D01*
G01*
X354797750Y-132396000D01*
G75*
G02*
X355041500Y-132639750I0J-243750D01*
G01*
G37*
%TD*%
%TO.C,R3*%
G36*
G01*
X343737250Y-106181500D02*
X342824750Y-106181500D01*
G75*
G02*
X342581000Y-105937750I0J243750D01*
G01*
X342581000Y-105450250D01*
G75*
G02*
X342824750Y-105206500I243750J0D01*
G01*
X343737250Y-105206500D01*
G75*
G02*
X343981000Y-105450250I0J-243750D01*
G01*
X343981000Y-105937750D01*
G75*
G02*
X343737250Y-106181500I-243750J0D01*
G01*
G37*
G36*
G01*
X343737250Y-108056500D02*
X342824750Y-108056500D01*
G75*
G02*
X342581000Y-107812750I0J243750D01*
G01*
X342581000Y-107325250D01*
G75*
G02*
X342824750Y-107081500I243750J0D01*
G01*
X343737250Y-107081500D01*
G75*
G02*
X343981000Y-107325250I0J-243750D01*
G01*
X343981000Y-107812750D01*
G75*
G02*
X343737250Y-108056500I-243750J0D01*
G01*
G37*
%TD*%
%TO.C,R2*%
G36*
G01*
X340435250Y-106181500D02*
X339522750Y-106181500D01*
G75*
G02*
X339279000Y-105937750I0J243750D01*
G01*
X339279000Y-105450250D01*
G75*
G02*
X339522750Y-105206500I243750J0D01*
G01*
X340435250Y-105206500D01*
G75*
G02*
X340679000Y-105450250I0J-243750D01*
G01*
X340679000Y-105937750D01*
G75*
G02*
X340435250Y-106181500I-243750J0D01*
G01*
G37*
G36*
G01*
X340435250Y-108056500D02*
X339522750Y-108056500D01*
G75*
G02*
X339279000Y-107812750I0J243750D01*
G01*
X339279000Y-107325250D01*
G75*
G02*
X339522750Y-107081500I243750J0D01*
G01*
X340435250Y-107081500D01*
G75*
G02*
X340679000Y-107325250I0J-243750D01*
G01*
X340679000Y-107812750D01*
G75*
G02*
X340435250Y-108056500I-243750J0D01*
G01*
G37*
%TD*%
D10*
%TO.C,MX66*%
X350329500Y-193992500D03*
X337402500Y-191452500D03*
%TD*%
%TO.C,MX65*%
X331279500Y-193992500D03*
X318352500Y-191452500D03*
%TD*%
%TO.C,MX64*%
X312229500Y-193992500D03*
X299302500Y-191452500D03*
%TD*%
%TO.C,MX63*%
X290798250Y-193992500D03*
X277871250Y-191452500D03*
%TD*%
%TO.C,MX62*%
X266985750Y-193992500D03*
X254058750Y-191452500D03*
%TD*%
%TO.C,MX61*%
X243173250Y-193992500D03*
X230246250Y-191452500D03*
%TD*%
%TO.C,MX60*%
X171735750Y-193992500D03*
X158808750Y-191452500D03*
%TD*%
%TO.C,MX59*%
X100298250Y-193992500D03*
X87371250Y-191452500D03*
%TD*%
%TO.C,MX58*%
X78867000Y-193992500D03*
X65940000Y-191452500D03*
%TD*%
%TO.C,MX57*%
X57435750Y-193992500D03*
X44508750Y-191452500D03*
%TD*%
%TO.C,MX56*%
X350329500Y-174942500D03*
X337402500Y-172402500D03*
%TD*%
%TO.C,MX55*%
X331279500Y-174942500D03*
X318352500Y-172402500D03*
%TD*%
%TO.C,MX54*%
X300323250Y-174942500D03*
X287396250Y-172402500D03*
%TD*%
%TO.C,MX53*%
X269367000Y-174942500D03*
X256440000Y-172402500D03*
%TD*%
%TO.C,MX52*%
X250317000Y-174942500D03*
X237390000Y-172402500D03*
%TD*%
%TO.C,MX51*%
X231267000Y-174942500D03*
X218340000Y-172402500D03*
%TD*%
%TO.C,MX50*%
X212217000Y-174942500D03*
X199290000Y-172402500D03*
%TD*%
%TO.C,MX49*%
X193167000Y-174942500D03*
X180240000Y-172402500D03*
%TD*%
%TO.C,MX48*%
X174117000Y-174942500D03*
X161190000Y-172402500D03*
%TD*%
%TO.C,MX47*%
X155067000Y-174942500D03*
X142140000Y-172402500D03*
%TD*%
%TO.C,MX46*%
X136017000Y-174942500D03*
X123090000Y-172402500D03*
%TD*%
%TO.C,MX45*%
X116967000Y-174942500D03*
X104040000Y-172402500D03*
%TD*%
%TO.C,MX44*%
X97917000Y-174942500D03*
X84990000Y-172402500D03*
%TD*%
%TO.C,MX43*%
X66960750Y-174942500D03*
X54033750Y-172402500D03*
%TD*%
%TO.C,MX42*%
X350329500Y-155892500D03*
X337402500Y-153352500D03*
%TD*%
%TO.C,MX40*%
X278892000Y-155892500D03*
X265965000Y-153352500D03*
%TD*%
%TO.C,MX39*%
X259842000Y-155892500D03*
X246915000Y-153352500D03*
%TD*%
%TO.C,MX38*%
X240792000Y-155892500D03*
X227865000Y-153352500D03*
%TD*%
%TO.C,MX37*%
X221742000Y-155892500D03*
X208815000Y-153352500D03*
%TD*%
%TO.C,MX36*%
X202692000Y-155892500D03*
X189765000Y-153352500D03*
%TD*%
%TO.C,MX35*%
X183642000Y-155892500D03*
X170715000Y-153352500D03*
%TD*%
%TO.C,MX34*%
X164592000Y-155892500D03*
X151665000Y-153352500D03*
%TD*%
%TO.C,MX33*%
X145542000Y-155892500D03*
X132615000Y-153352500D03*
%TD*%
%TO.C,MX32*%
X126492000Y-155892500D03*
X113565000Y-153352500D03*
%TD*%
%TO.C,MX31*%
X107442000Y-155892500D03*
X94515000Y-153352500D03*
%TD*%
%TO.C,MX30*%
X88392000Y-155892500D03*
X75465000Y-153352500D03*
%TD*%
%TO.C,MX29*%
X62198250Y-155892500D03*
X49271250Y-153352500D03*
%TD*%
%TO.C,MX28*%
X316992000Y-136842500D03*
X304065000Y-134302500D03*
%TD*%
%TO.C,MX27*%
X293179500Y-136842500D03*
X280252500Y-134302500D03*
%TD*%
%TO.C,MX26*%
X274129500Y-136842500D03*
X261202500Y-134302500D03*
%TD*%
%TO.C,MX25*%
X255079500Y-136842500D03*
X242152500Y-134302500D03*
%TD*%
%TO.C,MX24*%
X236029500Y-136842500D03*
X223102500Y-134302500D03*
%TD*%
%TO.C,MX23*%
X216979500Y-136842500D03*
X204052500Y-134302500D03*
%TD*%
%TO.C,MX22*%
X197929500Y-136842500D03*
X185002500Y-134302500D03*
%TD*%
%TO.C,MX21*%
X178879500Y-136842500D03*
X165952500Y-134302500D03*
%TD*%
%TO.C,MX20*%
X159829500Y-136842500D03*
X146902500Y-134302500D03*
%TD*%
%TO.C,MX19*%
X140779500Y-136842500D03*
X127852500Y-134302500D03*
%TD*%
%TO.C,MX18*%
X121729500Y-136842500D03*
X108802500Y-134302500D03*
%TD*%
%TO.C,MX17*%
X102679500Y-136842500D03*
X89752500Y-134302500D03*
%TD*%
%TO.C,MX16*%
X83629500Y-136842500D03*
X70702500Y-134302500D03*
%TD*%
%TO.C,MX15*%
X59817000Y-136842500D03*
X46890000Y-134302500D03*
%TD*%
%TO.C,MX14*%
X312229500Y-117792500D03*
X299302500Y-115252500D03*
%TD*%
%TO.C,MX13*%
X283654500Y-117792500D03*
X270727500Y-115252500D03*
%TD*%
%TO.C,MX12*%
X264604500Y-117792500D03*
X251677500Y-115252500D03*
%TD*%
%TO.C,MX11*%
X245554500Y-117792500D03*
X232627500Y-115252500D03*
%TD*%
%TO.C,MX10*%
X226504500Y-117792500D03*
X213577500Y-115252500D03*
%TD*%
%TO.C,MX9*%
X207454500Y-117792500D03*
X194527500Y-115252500D03*
%TD*%
%TO.C,MX8*%
X188404500Y-117792500D03*
X175477500Y-115252500D03*
%TD*%
%TO.C,MX7*%
X169354500Y-117792500D03*
X156427500Y-115252500D03*
%TD*%
%TO.C,MX6*%
X150304500Y-117792500D03*
X137377500Y-115252500D03*
%TD*%
%TO.C,MX5*%
X131254500Y-117792500D03*
X118327500Y-115252500D03*
%TD*%
%TO.C,MX4*%
X112204500Y-117792500D03*
X99277500Y-115252500D03*
%TD*%
%TO.C,MX3*%
X93154500Y-117792500D03*
X80227500Y-115252500D03*
%TD*%
%TO.C,MX2*%
X74104500Y-117792500D03*
X61177500Y-115252500D03*
%TD*%
%TO.C,MX1*%
X55054500Y-117792500D03*
X42127500Y-115252500D03*
%TD*%
%TO.C,F1*%
G36*
G01*
X347589000Y-106156000D02*
X346339000Y-106156000D01*
G75*
G02*
X346089000Y-105906000I0J250000D01*
G01*
X346089000Y-105156000D01*
G75*
G02*
X346339000Y-104906000I250000J0D01*
G01*
X347589000Y-104906000D01*
G75*
G02*
X347839000Y-105156000I0J-250000D01*
G01*
X347839000Y-105906000D01*
G75*
G02*
X347589000Y-106156000I-250000J0D01*
G01*
G37*
G36*
G01*
X347589000Y-108956000D02*
X346339000Y-108956000D01*
G75*
G02*
X346089000Y-108706000I0J250000D01*
G01*
X346089000Y-107956000D01*
G75*
G02*
X346339000Y-107706000I250000J0D01*
G01*
X347589000Y-107706000D01*
G75*
G02*
X347839000Y-107956000I0J-250000D01*
G01*
X347839000Y-108706000D01*
G75*
G02*
X347589000Y-108956000I-250000J0D01*
G01*
G37*
%TD*%
%TO.C,D67*%
G36*
G01*
X352349750Y-107843500D02*
X353262250Y-107843500D01*
G75*
G02*
X353506000Y-108087250I0J-243750D01*
G01*
X353506000Y-108574750D01*
G75*
G02*
X353262250Y-108818500I-243750J0D01*
G01*
X352349750Y-108818500D01*
G75*
G02*
X352106000Y-108574750I0J243750D01*
G01*
X352106000Y-108087250D01*
G75*
G02*
X352349750Y-107843500I243750J0D01*
G01*
G37*
G36*
G01*
X352349750Y-105968500D02*
X353262250Y-105968500D01*
G75*
G02*
X353506000Y-106212250I0J-243750D01*
G01*
X353506000Y-106699750D01*
G75*
G02*
X353262250Y-106943500I-243750J0D01*
G01*
X352349750Y-106943500D01*
G75*
G02*
X352106000Y-106699750I0J243750D01*
G01*
X352106000Y-106212250D01*
G75*
G02*
X352349750Y-105968500I243750J0D01*
G01*
G37*
%TD*%
%TO.C,C9*%
G36*
G01*
X354066500Y-137362250D02*
X354066500Y-136449750D01*
G75*
G02*
X354310250Y-136206000I243750J0D01*
G01*
X354797750Y-136206000D01*
G75*
G02*
X355041500Y-136449750I0J-243750D01*
G01*
X355041500Y-137362250D01*
G75*
G02*
X354797750Y-137606000I-243750J0D01*
G01*
X354310250Y-137606000D01*
G75*
G02*
X354066500Y-137362250I0J243750D01*
G01*
G37*
G36*
G01*
X352191500Y-137362250D02*
X352191500Y-136449750D01*
G75*
G02*
X352435250Y-136206000I243750J0D01*
G01*
X352922750Y-136206000D01*
G75*
G02*
X353166500Y-136449750I0J-243750D01*
G01*
X353166500Y-137362250D01*
G75*
G02*
X352922750Y-137606000I-243750J0D01*
G01*
X352435250Y-137606000D01*
G75*
G02*
X352191500Y-137362250I0J243750D01*
G01*
G37*
%TD*%
%TO.C,C6*%
G36*
G01*
X341766500Y-115113750D02*
X341766500Y-116026250D01*
G75*
G02*
X341522750Y-116270000I-243750J0D01*
G01*
X341035250Y-116270000D01*
G75*
G02*
X340791500Y-116026250I0J243750D01*
G01*
X340791500Y-115113750D01*
G75*
G02*
X341035250Y-114870000I243750J0D01*
G01*
X341522750Y-114870000D01*
G75*
G02*
X341766500Y-115113750I0J-243750D01*
G01*
G37*
G36*
G01*
X343641500Y-115113750D02*
X343641500Y-116026250D01*
G75*
G02*
X343397750Y-116270000I-243750J0D01*
G01*
X342910250Y-116270000D01*
G75*
G02*
X342666500Y-116026250I0J243750D01*
G01*
X342666500Y-115113750D01*
G75*
G02*
X342910250Y-114870000I243750J0D01*
G01*
X343397750Y-114870000D01*
G75*
G02*
X343641500Y-115113750I0J-243750D01*
G01*
G37*
%TD*%
%TO.C,C5*%
G36*
G01*
X347081500Y-118820250D02*
X347081500Y-117907750D01*
G75*
G02*
X347325250Y-117664000I243750J0D01*
G01*
X347812750Y-117664000D01*
G75*
G02*
X348056500Y-117907750I0J-243750D01*
G01*
X348056500Y-118820250D01*
G75*
G02*
X347812750Y-119064000I-243750J0D01*
G01*
X347325250Y-119064000D01*
G75*
G02*
X347081500Y-118820250I0J243750D01*
G01*
G37*
G36*
G01*
X345206500Y-118820250D02*
X345206500Y-117907750D01*
G75*
G02*
X345450250Y-117664000I243750J0D01*
G01*
X345937750Y-117664000D01*
G75*
G02*
X346181500Y-117907750I0J-243750D01*
G01*
X346181500Y-118820250D01*
G75*
G02*
X345937750Y-119064000I-243750J0D01*
G01*
X345450250Y-119064000D01*
G75*
G02*
X345206500Y-118820250I0J243750D01*
G01*
G37*
%TD*%
%TO.C,C4*%
G36*
G01*
X347081500Y-123392250D02*
X347081500Y-122479750D01*
G75*
G02*
X347325250Y-122236000I243750J0D01*
G01*
X347812750Y-122236000D01*
G75*
G02*
X348056500Y-122479750I0J-243750D01*
G01*
X348056500Y-123392250D01*
G75*
G02*
X347812750Y-123636000I-243750J0D01*
G01*
X347325250Y-123636000D01*
G75*
G02*
X347081500Y-123392250I0J243750D01*
G01*
G37*
G36*
G01*
X345206500Y-123392250D02*
X345206500Y-122479750D01*
G75*
G02*
X345450250Y-122236000I243750J0D01*
G01*
X345937750Y-122236000D01*
G75*
G02*
X346181500Y-122479750I0J-243750D01*
G01*
X346181500Y-123392250D01*
G75*
G02*
X345937750Y-123636000I-243750J0D01*
G01*
X345450250Y-123636000D01*
G75*
G02*
X345206500Y-123392250I0J243750D01*
G01*
G37*
%TD*%
%TO.C,C3*%
G36*
G01*
X339419250Y-122310500D02*
X338506750Y-122310500D01*
G75*
G02*
X338263000Y-122066750I0J243750D01*
G01*
X338263000Y-121579250D01*
G75*
G02*
X338506750Y-121335500I243750J0D01*
G01*
X339419250Y-121335500D01*
G75*
G02*
X339663000Y-121579250I0J-243750D01*
G01*
X339663000Y-122066750D01*
G75*
G02*
X339419250Y-122310500I-243750J0D01*
G01*
G37*
G36*
G01*
X339419250Y-124185500D02*
X338506750Y-124185500D01*
G75*
G02*
X338263000Y-123941750I0J243750D01*
G01*
X338263000Y-123454250D01*
G75*
G02*
X338506750Y-123210500I243750J0D01*
G01*
X339419250Y-123210500D01*
G75*
G02*
X339663000Y-123454250I0J-243750D01*
G01*
X339663000Y-123941750D01*
G75*
G02*
X339419250Y-124185500I-243750J0D01*
G01*
G37*
%TD*%
%TO.C,C2*%
G36*
G01*
X338506750Y-118481500D02*
X339419250Y-118481500D01*
G75*
G02*
X339663000Y-118725250I0J-243750D01*
G01*
X339663000Y-119212750D01*
G75*
G02*
X339419250Y-119456500I-243750J0D01*
G01*
X338506750Y-119456500D01*
G75*
G02*
X338263000Y-119212750I0J243750D01*
G01*
X338263000Y-118725250D01*
G75*
G02*
X338506750Y-118481500I243750J0D01*
G01*
G37*
G36*
G01*
X338506750Y-116606500D02*
X339419250Y-116606500D01*
G75*
G02*
X339663000Y-116850250I0J-243750D01*
G01*
X339663000Y-117337750D01*
G75*
G02*
X339419250Y-117581500I-243750J0D01*
G01*
X338506750Y-117581500D01*
G75*
G02*
X338263000Y-117337750I0J243750D01*
G01*
X338263000Y-116850250D01*
G75*
G02*
X338506750Y-116606500I243750J0D01*
G01*
G37*
%TD*%
M02*
