M48
; DRILL file {KiCad (5.1.6)-1} date 07/27/20 20:47:06
; FORMAT={-:-/ absolute / inch / decimal}
; #@! TF.CreationDate,2020-07-27T20:47:06-04:00
; #@! TF.GenerationSoftware,Kicad,Pcbnew,(5.1.6)-1
; #@! TF.FileFunction,NonPlated,1,2,NPTH
FMAT,2
INCH
T1C0.0689
T2C0.0866
T3C0.1181
T4C0.1200
T5C0.1570
%
G90
G05
T1
X5.1125Y-5.1875
X5.5125Y-5.1875
X11.1125Y-5.1875
X11.5125Y-5.1875
X8.3Y-5.9375
X8.7Y-5.9375
X13.3625Y-6.6875
X13.7625Y-6.6875
X1.8313Y-7.4375
X2.2312Y-7.4375
X11.8625Y-7.4375
X12.2625Y-7.4375
X7.55Y-5.9375
X7.95Y-5.9375
X7.7375Y-4.4375
X8.1375Y-4.4375
X5.4875Y-4.4375
X5.8875Y-4.4375
X5.8625Y-5.1875
X6.2625Y-5.1875
X6.05Y-5.9375
X6.45Y-5.9375
X9.05Y-5.9375
X9.45Y-5.9375
X9.1437Y-7.4375
X9.5437Y-7.4375
X2.2062Y-6.6875
X2.6062Y-6.6875
X3.5187Y-7.4375
X3.9187Y-7.4375
X2.675Y-7.4375
X3.075Y-7.4375
X9.9875Y-4.4375
X10.3875Y-4.4375
X6.6125Y-5.1875
X7.0125Y-5.1875
X10.3625Y-5.1875
X10.7625Y-5.1875
X9.8Y-5.9375
X10.2Y-5.9375
X7.925Y-6.6875
X8.325Y-6.6875
X4.175Y-6.6875
X4.575Y-6.6875
X12.6125Y-7.4375
X13.0125Y-7.4375
X11.0187Y-7.4375
X11.4187Y-7.4375
X9.2375Y-4.4375
X9.6375Y-4.4375
X2.4875Y-4.4375
X2.8875Y-4.4375
X12.05Y-5.1875
X12.45Y-5.1875
X3.2375Y-4.4375
X3.6375Y-4.4375
X7.3625Y-5.1875
X7.7625Y-5.1875
X2.0187Y-5.9375
X2.4187Y-5.9375
X11.3937Y-6.6875
X11.7937Y-6.6875
X10.175Y-6.6875
X10.575Y-6.6875
X5.675Y-6.6875
X6.075Y-6.6875
X3.425Y-6.6875
X3.825Y-6.6875
X11.8625Y-4.4375
X12.2625Y-4.4375
X4.7375Y-4.4375
X5.1375Y-4.4375
X4.3625Y-5.1875
X4.7625Y-5.1875
X8.8625Y-5.1875
X9.2625Y-5.1875
X6.8Y-5.9375
X7.2Y-5.9375
X10.55Y-5.9375
X10.95Y-5.9375
X6.425Y-6.6875
X6.825Y-6.6875
X12.6125Y-6.6875
X13.0125Y-6.6875
X1.925Y-5.1875
X2.325Y-5.1875
X5.3Y-5.9375
X5.7Y-5.9375
X6.2375Y-4.4375
X6.6375Y-4.4375
X8.1125Y-5.1875
X8.5125Y-5.1875
X11.7687Y-5.9375
X12.1687Y-5.9375
X3.8Y-5.9375
X4.2Y-5.9375
X13.3625Y-7.4375
X13.7625Y-7.4375
X7.175Y-6.6875
X7.575Y-6.6875
X4.925Y-6.6875
X5.325Y-6.6875
X10.7375Y-4.4375
X11.1375Y-4.4375
X10.0812Y-7.4375
X10.4812Y-7.4375
X2.8625Y-5.1875
X3.2625Y-5.1875
X1.7375Y-4.4375
X2.1375Y-4.4375
X3.05Y-5.9375
X3.45Y-5.9375
X6.9875Y-4.4375
X7.3875Y-4.4375
X9.6125Y-5.1875
X10.0125Y-5.1875
X4.55Y-5.9375
X4.95Y-5.9375
X13.3625Y-5.9375
X13.7625Y-5.9375
X6.3312Y-7.4375
X6.7313Y-7.4375
X9.425Y-6.6875
X9.825Y-6.6875
X8.675Y-6.6875
X9.075Y-6.6875
X8.4875Y-4.4375
X8.8875Y-4.4375
X3.6125Y-5.1875
X4.0125Y-5.1875
X3.9875Y-4.4375
X4.3875Y-4.4375
T2
X1.4375Y-3.9688
X8.0Y-7.595
X5.875Y-6.2812
X11.375Y-4.7812
X2.5938Y-5.5
X8.6875Y-5.5312
X14.0625Y-3.9688
X1.4375Y-7.9062
X14.0625Y-7.9062
T3
X4.225Y-6.7875
X4.475Y-6.8875
X12.6625Y-7.5375
X12.9125Y-7.6375
X11.0687Y-7.5375
X11.3187Y-7.6375
X9.2875Y-4.5375
X9.5375Y-4.6375
X2.5375Y-4.5375
X2.7875Y-4.6375
X12.1Y-5.2875
X12.35Y-5.3875
X3.2875Y-4.5375
X3.5375Y-4.6375
X7.4125Y-5.2875
X7.6625Y-5.3875
X2.0688Y-6.0375
X2.3188Y-6.1375
X11.4437Y-6.7875
X11.6937Y-6.8875
X10.225Y-6.7875
X10.475Y-6.8875
X5.725Y-6.7875
X5.975Y-6.8875
X3.475Y-6.7875
X3.725Y-6.8875
X11.9125Y-4.5375
X12.1625Y-4.6375
X4.7875Y-4.5375
X5.0375Y-4.6375
X4.4125Y-5.2875
X4.6625Y-5.3875
X8.9125Y-5.2875
X9.1625Y-5.3875
X6.85Y-6.0375
X7.1Y-6.1375
X10.6Y-6.0375
X10.85Y-6.1375
X6.475Y-6.7875
X6.725Y-6.8875
X12.6625Y-6.7875
X12.9125Y-6.8875
X1.975Y-5.2875
X2.225Y-5.3875
X5.35Y-6.0375
X5.6Y-6.1375
X6.2875Y-4.5375
X6.5375Y-4.6375
X8.1625Y-5.2875
X8.4125Y-5.3875
X11.8187Y-6.0375
X12.0687Y-6.1375
X3.85Y-6.0375
X4.1Y-6.1375
X13.4125Y-7.5375
X13.6625Y-7.6375
X7.225Y-6.7875
X7.475Y-6.8875
X4.975Y-6.7875
X5.225Y-6.8875
X10.7875Y-4.5375
X11.0375Y-4.6375
X10.1312Y-7.5375
X10.3812Y-7.6375
X2.9125Y-5.2875
X3.1625Y-5.3875
X1.7875Y-4.5375
X2.0375Y-4.6375
X3.1Y-6.0375
X3.35Y-6.1375
X7.0375Y-4.5375
X7.2875Y-4.6375
X9.6625Y-5.2875
X9.9125Y-5.3875
X4.6Y-6.0375
X4.85Y-6.1375
X13.4125Y-6.0375
X13.6625Y-6.1375
X6.3812Y-7.5375
X6.6312Y-7.6375
X9.475Y-6.7875
X9.725Y-6.8875
X8.725Y-6.7875
X8.975Y-6.8875
X8.5375Y-4.5375
X8.7875Y-4.6375
X3.6625Y-5.2875
X3.9125Y-5.3875
X4.0375Y-4.5375
X4.2875Y-4.6375
X5.1625Y-5.2875
X5.4125Y-5.3875
X11.1625Y-5.2875
X11.4125Y-5.3875
X8.35Y-6.0375
X8.6Y-6.1375
X13.4125Y-6.7875
X13.6625Y-6.8875
X1.8812Y-7.5375
X2.1313Y-7.6375
X11.9125Y-7.5375
X12.1625Y-7.6375
X7.6Y-6.0375
X7.85Y-6.1375
X7.7875Y-4.5375
X8.0375Y-4.6375
X5.5375Y-4.5375
X5.7875Y-4.6375
X5.9125Y-5.2875
X6.1625Y-5.3875
X6.1Y-6.0375
X6.35Y-6.1375
X9.1Y-6.0375
X9.35Y-6.1375
X9.1937Y-7.5375
X9.4437Y-7.6375
X2.2563Y-6.7875
X2.5063Y-6.8875
X3.5688Y-7.5375
X3.8188Y-7.6375
X2.725Y-7.5375
X2.975Y-7.6375
X10.0375Y-4.5375
X10.2875Y-4.6375
X6.6625Y-5.2875
X6.9125Y-5.3875
X10.4125Y-5.2875
X10.6625Y-5.3875
X9.85Y-6.0375
X10.1Y-6.1375
X7.975Y-6.7875
X8.225Y-6.8875
T4
X1.9363Y-6.9625
X2.8762Y-6.9625
X11.1237Y-6.9625
X12.0637Y-6.9625
X11.5925Y-4.7125
X12.5325Y-4.7125
X11.4987Y-6.2125
X12.4387Y-6.2125
X4.5628Y-7.7125
X8.4998Y-7.7125
T5
X6.8125Y-5.1875
X10.5625Y-5.1875
X10.0Y-5.9375
X8.125Y-6.6875
X4.375Y-6.6875
X12.8125Y-7.4375
X11.2188Y-7.4375
X9.4375Y-4.4375
X2.6875Y-4.4375
X12.25Y-5.1875
X3.4375Y-4.4375
X7.5625Y-5.1875
X2.2188Y-5.9375
X11.1237Y-6.3625
X11.5938Y-6.6875
X12.0637Y-6.3625
X10.375Y-6.6875
X5.875Y-6.6875
X3.625Y-6.6875
X11.5925Y-4.1125
X12.0625Y-4.4375
X12.5325Y-4.1125
X4.9375Y-4.4375
X4.5625Y-5.1875
X9.0625Y-5.1875
X7.0Y-5.9375
X10.75Y-5.9375
X6.625Y-6.6875
X12.8125Y-6.6875
X2.125Y-5.1875
X5.5Y-5.9375
X6.4375Y-4.4375
X8.3125Y-5.1875
X11.4987Y-5.6125
X11.9688Y-5.9375
X12.4387Y-5.6125
X4.0Y-5.9375
X13.5625Y-7.4375
X7.375Y-6.6875
X5.125Y-6.6875
X10.9375Y-4.4375
X10.2812Y-7.4375
X3.0625Y-5.1875
X1.9375Y-4.4375
X3.25Y-5.9375
X7.1875Y-4.4375
X9.8125Y-5.1875
X4.75Y-5.9375
X13.5625Y-5.9375
X4.5628Y-7.1125
X6.5312Y-7.4375
X8.4998Y-7.1125
X9.625Y-6.6875
X8.875Y-6.6875
X8.6875Y-4.4375
X3.8125Y-5.1875
X4.1875Y-4.4375
X5.3125Y-5.1875
X11.3125Y-5.1875
X8.5Y-5.9375
X13.5625Y-6.6875
X2.0312Y-7.4375
X12.0625Y-7.4375
X7.75Y-5.9375
X7.9375Y-4.4375
X5.6875Y-4.4375
X6.0625Y-5.1875
X6.25Y-5.9375
X9.25Y-5.9375
X9.3438Y-7.4375
X1.9363Y-6.3625
X2.4062Y-6.6875
X2.8762Y-6.3625
X3.7188Y-7.4375
X2.875Y-7.4375
X10.1875Y-4.4375
T0
M30
