M48
; DRILL file {KiCad (5.1.6)-1} date 07/27/20 20:47:06
; FORMAT={-:-/ absolute / inch / decimal}
; #@! TF.CreationDate,2020-07-27T20:47:06-04:00
; #@! TF.GenerationSoftware,Kicad,Pcbnew,(5.1.6)-1
; #@! TF.FileFunction,Plated,1,2,PTH
FMAT,2
INCH
T1C0.0157
T2C0.0236
%
G90
G05
T1
X2.26Y-4.491
X2.379Y-7.485
X2.451Y-5.211
X2.543Y-5.971
X2.829Y-6.732
X3.01Y-4.482
X3.2Y-7.485
X3.388Y-5.21
X3.572Y-6.015
X3.76Y-4.467
X3.91Y-3.97
X3.949Y-6.743
X4.089Y-7.502
X4.137Y-5.213
X4.323Y-5.996
X4.51Y-4.482
X4.655Y-4.0
X4.698Y-6.748
X4.887Y-5.2
X5.072Y-5.994
X5.26Y-4.473
X5.408Y-4.012
X5.45Y-6.75
X5.638Y-5.238
X5.822Y-6.0
X6.01Y-4.493
X6.158Y-4.017
X6.199Y-6.747
X6.387Y-5.219
X6.573Y-5.999
X6.76Y-4.487
X6.949Y-6.731
X7.006Y-7.543
X7.137Y-5.206
X7.323Y-5.995
X7.51Y-4.475
X7.699Y-6.735
X7.886Y-5.217
X8.074Y-5.992
X8.26Y-4.488
X8.45Y-6.715
X8.637Y-5.214
X8.821Y-5.987
X9.01Y-4.468
X9.198Y-6.728
X9.387Y-5.22
X9.572Y-5.997
X9.701Y-7.504
X9.76Y-4.478
X9.95Y-6.736
X10.136Y-5.221
X10.322Y-5.997
X10.51Y-4.489
X10.624Y-7.492
X10.698Y-6.737
X10.886Y-5.219
X11.072Y-5.997
X11.26Y-4.484
X11.574Y-7.5
X11.633Y-5.203
X12.043Y-6.733
X12.387Y-7.492
X12.4Y-4.499
X12.412Y-5.988
X12.575Y-5.216
X12.911Y-5.705
X13.136Y-6.751
X13.136Y-7.496
X13.185Y-4.535
X13.185Y-4.855
X13.23Y-4.4
X13.283Y-5.488
X13.32Y-4.29
X13.354Y-4.998
X13.357Y-5.045
X13.417Y-5.044
X13.42Y-4.31
X13.42Y-5.09
X13.45Y-4.405
X13.47Y-4.31
X13.48Y-5.087
X13.482Y-5.141
X13.51Y-4.405
X13.57Y-4.375
X13.61Y-4.99
X13.615Y-4.345
X13.78Y-4.62
X13.82Y-4.57
X13.884Y-6.73
X13.885Y-7.477
X13.886Y-5.981
X13.3375Y-3.9319
X13.3375Y-3.985
X13.371Y-3.9319
X13.371Y-3.985
X13.4044Y-3.9319
X13.4044Y-3.985
X13.4379Y-3.9319
X13.4379Y-3.985
X13.4714Y-3.9319
X13.4714Y-3.985
X13.5048Y-3.9319
X13.5048Y-3.985
X13.5383Y-3.9319
X13.5383Y-3.985
X13.5718Y-3.9319
X13.5718Y-3.985
T2
G00X13.2844Y-3.7976
M15
G01X13.2844Y-3.8291
M16
G05
G00X13.2844Y-3.9169
M15
G01X13.2844Y-3.9759
M16
G05
G00X13.6249Y-3.7976
M15
G01X13.6249Y-3.8291
M16
G05
G00X13.6249Y-3.9169
M15
G01X13.6249Y-3.9759
M16
G05
T0
M30
