%TF.GenerationSoftware,KiCad,Pcbnew,(5.1.6)-1*%
%TF.CreationDate,2020-07-27T20:44:56-04:00*%
%TF.ProjectId,keyboard,6b657962-6f61-4726-942e-6b696361645f,rev?*%
%TF.SameCoordinates,Original*%
%TF.FileFunction,Paste,Bot*%
%TF.FilePolarity,Positive*%
%FSLAX46Y46*%
G04 Gerber Fmt 4.6, Leading zero omitted, Abs format (unit mm)*
G04 Created by KiCad (PCBNEW (5.1.6)-1) date 2020-07-27 20:44:56*
%MOMM*%
%LPD*%
G01*
G04 APERTURE LIST*
%ADD10R,1.200000X1.400000*%
%ADD11R,1.500000X0.550000*%
%ADD12R,0.550000X1.500000*%
%ADD13R,1.200000X0.900000*%
G04 APERTURE END LIST*
D10*
%TO.C,Y1*%
X355854000Y-120650000D03*
X355854000Y-118450000D03*
X354154000Y-118450000D03*
X354154000Y-120650000D03*
%TD*%
D11*
%TO.C,U1*%
X336692000Y-115253000D03*
X336692000Y-116053000D03*
X336692000Y-116853000D03*
X336692000Y-117653000D03*
X336692000Y-118453000D03*
X336692000Y-119253000D03*
X336692000Y-120053000D03*
X336692000Y-120853000D03*
X336692000Y-121653000D03*
X336692000Y-122453000D03*
X336692000Y-123253000D03*
D12*
X338392000Y-124953000D03*
X339192000Y-124953000D03*
X339992000Y-124953000D03*
X340792000Y-124953000D03*
X341592000Y-124953000D03*
X342392000Y-124953000D03*
X343192000Y-124953000D03*
X343992000Y-124953000D03*
X344792000Y-124953000D03*
X345592000Y-124953000D03*
X346392000Y-124953000D03*
D11*
X348092000Y-123253000D03*
X348092000Y-122453000D03*
X348092000Y-121653000D03*
X348092000Y-120853000D03*
X348092000Y-120053000D03*
X348092000Y-119253000D03*
X348092000Y-118453000D03*
X348092000Y-117653000D03*
X348092000Y-116853000D03*
X348092000Y-116053000D03*
X348092000Y-115253000D03*
D12*
X346392000Y-113553000D03*
X345592000Y-113553000D03*
X344792000Y-113553000D03*
X343992000Y-113553000D03*
X343192000Y-113553000D03*
X342392000Y-113553000D03*
X341592000Y-113553000D03*
X340792000Y-113553000D03*
X339992000Y-113553000D03*
X339192000Y-113553000D03*
X338392000Y-113553000D03*
%TD*%
%TO.C,R6*%
G36*
G01*
X349738000Y-100180750D02*
X348825500Y-100180750D01*
G75*
G02*
X348581750Y-99937000I0J243750D01*
G01*
X348581750Y-99449500D01*
G75*
G02*
X348825500Y-99205750I243750J0D01*
G01*
X349738000Y-99205750D01*
G75*
G02*
X349981750Y-99449500I0J-243750D01*
G01*
X349981750Y-99937000D01*
G75*
G02*
X349738000Y-100180750I-243750J0D01*
G01*
G37*
G36*
G01*
X349738000Y-102055750D02*
X348825500Y-102055750D01*
G75*
G02*
X348581750Y-101812000I0J243750D01*
G01*
X348581750Y-101324500D01*
G75*
G02*
X348825500Y-101080750I243750J0D01*
G01*
X349738000Y-101080750D01*
G75*
G02*
X349981750Y-101324500I0J-243750D01*
G01*
X349981750Y-101812000D01*
G75*
G02*
X349738000Y-102055750I-243750J0D01*
G01*
G37*
%TD*%
%TO.C,R5*%
G36*
G01*
X333522000Y-101080750D02*
X334434500Y-101080750D01*
G75*
G02*
X334678250Y-101324500I0J-243750D01*
G01*
X334678250Y-101812000D01*
G75*
G02*
X334434500Y-102055750I-243750J0D01*
G01*
X333522000Y-102055750D01*
G75*
G02*
X333278250Y-101812000I0J243750D01*
G01*
X333278250Y-101324500D01*
G75*
G02*
X333522000Y-101080750I243750J0D01*
G01*
G37*
G36*
G01*
X333522000Y-99205750D02*
X334434500Y-99205750D01*
G75*
G02*
X334678250Y-99449500I0J-243750D01*
G01*
X334678250Y-99937000D01*
G75*
G02*
X334434500Y-100180750I-243750J0D01*
G01*
X333522000Y-100180750D01*
G75*
G02*
X333278250Y-99937000I0J243750D01*
G01*
X333278250Y-99449500D01*
G75*
G02*
X333522000Y-99205750I243750J0D01*
G01*
G37*
%TD*%
%TO.C,R1*%
G36*
G01*
X337078500Y-128777050D02*
X337078500Y-127864550D01*
G75*
G02*
X337322250Y-127620800I243750J0D01*
G01*
X337809750Y-127620800D01*
G75*
G02*
X338053500Y-127864550I0J-243750D01*
G01*
X338053500Y-128777050D01*
G75*
G02*
X337809750Y-129020800I-243750J0D01*
G01*
X337322250Y-129020800D01*
G75*
G02*
X337078500Y-128777050I0J243750D01*
G01*
G37*
G36*
G01*
X335203500Y-128777050D02*
X335203500Y-127864550D01*
G75*
G02*
X335447250Y-127620800I243750J0D01*
G01*
X335934750Y-127620800D01*
G75*
G02*
X336178500Y-127864550I0J-243750D01*
G01*
X336178500Y-128777050D01*
G75*
G02*
X335934750Y-129020800I-243750J0D01*
G01*
X335447250Y-129020800D01*
G75*
G02*
X335203500Y-128777050I0J243750D01*
G01*
G37*
%TD*%
%TO.C,D69*%
G36*
G01*
X336220750Y-107081500D02*
X337133250Y-107081500D01*
G75*
G02*
X337377000Y-107325250I0J-243750D01*
G01*
X337377000Y-107812750D01*
G75*
G02*
X337133250Y-108056500I-243750J0D01*
G01*
X336220750Y-108056500D01*
G75*
G02*
X335977000Y-107812750I0J243750D01*
G01*
X335977000Y-107325250D01*
G75*
G02*
X336220750Y-107081500I243750J0D01*
G01*
G37*
G36*
G01*
X336220750Y-105206500D02*
X337133250Y-105206500D01*
G75*
G02*
X337377000Y-105450250I0J-243750D01*
G01*
X337377000Y-105937750D01*
G75*
G02*
X337133250Y-106181500I-243750J0D01*
G01*
X336220750Y-106181500D01*
G75*
G02*
X335977000Y-105937750I0J243750D01*
G01*
X335977000Y-105450250D01*
G75*
G02*
X336220750Y-105206500I243750J0D01*
G01*
G37*
%TD*%
%TO.C,D68*%
G36*
G01*
X339522750Y-107081500D02*
X340435250Y-107081500D01*
G75*
G02*
X340679000Y-107325250I0J-243750D01*
G01*
X340679000Y-107812750D01*
G75*
G02*
X340435250Y-108056500I-243750J0D01*
G01*
X339522750Y-108056500D01*
G75*
G02*
X339279000Y-107812750I0J243750D01*
G01*
X339279000Y-107325250D01*
G75*
G02*
X339522750Y-107081500I243750J0D01*
G01*
G37*
G36*
G01*
X339522750Y-105206500D02*
X340435250Y-105206500D01*
G75*
G02*
X340679000Y-105450250I0J-243750D01*
G01*
X340679000Y-105937750D01*
G75*
G02*
X340435250Y-106181500I-243750J0D01*
G01*
X339522750Y-106181500D01*
G75*
G02*
X339279000Y-105937750I0J243750D01*
G01*
X339279000Y-105450250D01*
G75*
G02*
X339522750Y-105206500I243750J0D01*
G01*
G37*
%TD*%
D13*
%TO.C,D66*%
X352679000Y-187198000D03*
X352679000Y-183898000D03*
%TD*%
%TO.C,D65*%
X333654400Y-187248800D03*
X333654400Y-183948800D03*
%TD*%
%TO.C,D64*%
X314629800Y-187172600D03*
X314629800Y-183872600D03*
%TD*%
%TO.C,D63*%
X293979600Y-187325000D03*
X293979600Y-184025000D03*
%TD*%
%TO.C,D62*%
X269849600Y-187172600D03*
X269849600Y-183872600D03*
%TD*%
%TO.C,D61*%
X246430800Y-187350400D03*
X246430800Y-184050400D03*
%TD*%
%TO.C,D60*%
X180213000Y-187450000D03*
X180213000Y-184150000D03*
%TD*%
%TO.C,D59*%
X103860600Y-187502800D03*
X103860600Y-184202800D03*
%TD*%
%TO.C,D58*%
X81280000Y-186944000D03*
X81280000Y-183644000D03*
%TD*%
%TO.C,D57*%
X60426600Y-187020200D03*
X60426600Y-183720200D03*
%TD*%
%TO.C,D56*%
X352653600Y-168122600D03*
X352653600Y-164822600D03*
%TD*%
%TO.C,D55*%
X333654400Y-168097200D03*
X333654400Y-164797200D03*
%TD*%
%TO.C,D54*%
X311353200Y-168198800D03*
X311353200Y-164898800D03*
%TD*%
%TO.C,D53*%
X271729200Y-168173400D03*
X271729200Y-164873400D03*
%TD*%
%TO.C,D52*%
X252730000Y-168198800D03*
X252730000Y-164898800D03*
%TD*%
%TO.C,D51*%
X233629200Y-168122600D03*
X233629200Y-164822600D03*
%TD*%
%TO.C,D50*%
X214630000Y-168021000D03*
X214630000Y-164721000D03*
%TD*%
%TO.C,D49*%
X195554600Y-168046400D03*
X195554600Y-164746400D03*
%TD*%
%TO.C,D48*%
X176504600Y-168071800D03*
X176504600Y-164771800D03*
%TD*%
%TO.C,D47*%
X157454600Y-167970200D03*
X157454600Y-164670200D03*
%TD*%
%TO.C,D46*%
X138430000Y-168097200D03*
X138430000Y-164797200D03*
%TD*%
%TO.C,D45*%
X119329200Y-168097200D03*
X119329200Y-164797200D03*
%TD*%
%TO.C,D44*%
X100304600Y-168173400D03*
X100304600Y-164873400D03*
%TD*%
%TO.C,D43*%
X76555600Y-168300400D03*
X76555600Y-165000400D03*
%TD*%
%TO.C,D42*%
X352704400Y-149273800D03*
X352704400Y-145973800D03*
%TD*%
%TO.C,D41*%
X320802000Y-149377400D03*
X320802000Y-146077400D03*
%TD*%
%TO.C,D40*%
X281228800Y-149273800D03*
X281228800Y-145973800D03*
%TD*%
%TO.C,D39*%
X262178800Y-149250400D03*
X262178800Y-145950400D03*
%TD*%
%TO.C,D38*%
X243128800Y-149250400D03*
X243128800Y-145950400D03*
%TD*%
%TO.C,D37*%
X224053400Y-149275800D03*
X224053400Y-145975800D03*
%TD*%
%TO.C,D36*%
X205079600Y-149199600D03*
X205079600Y-145899600D03*
%TD*%
%TO.C,D35*%
X186004200Y-149098000D03*
X186004200Y-145798000D03*
%TD*%
%TO.C,D34*%
X166954200Y-149250400D03*
X166954200Y-145950400D03*
%TD*%
%TO.C,D33*%
X147878800Y-149225000D03*
X147878800Y-145925000D03*
%TD*%
%TO.C,D32*%
X128828800Y-149250400D03*
X128828800Y-145950400D03*
%TD*%
%TO.C,D31*%
X109804200Y-149199600D03*
X109804200Y-145899600D03*
%TD*%
%TO.C,D30*%
X90728800Y-149174200D03*
X90728800Y-145874200D03*
%TD*%
%TO.C,D29*%
X64592200Y-149098000D03*
X64592200Y-145798000D03*
%TD*%
%TO.C,D28*%
X319405000Y-128714500D03*
X319405000Y-125414500D03*
%TD*%
%TO.C,D27*%
X295592500Y-128714500D03*
X295592500Y-125414500D03*
%TD*%
%TO.C,D26*%
X276542500Y-128714500D03*
X276542500Y-125414500D03*
%TD*%
%TO.C,D25*%
X257492500Y-128714500D03*
X257492500Y-125414500D03*
%TD*%
%TO.C,D24*%
X238442500Y-128714500D03*
X238442500Y-125414500D03*
%TD*%
%TO.C,D23*%
X219392500Y-128714500D03*
X219392500Y-125414500D03*
%TD*%
%TO.C,D22*%
X200342500Y-128714500D03*
X200342500Y-125414500D03*
%TD*%
%TO.C,D21*%
X181292500Y-128714500D03*
X181292500Y-125414500D03*
%TD*%
%TO.C,D20*%
X162242500Y-128713500D03*
X162242500Y-125413500D03*
%TD*%
%TO.C,D19*%
X143205200Y-128726200D03*
X143205200Y-125426200D03*
%TD*%
%TO.C,D18*%
X124129800Y-128726200D03*
X124129800Y-125426200D03*
%TD*%
%TO.C,D17*%
X105079800Y-128701800D03*
X105079800Y-125401800D03*
%TD*%
%TO.C,D16*%
X86055200Y-128700800D03*
X86055200Y-125400800D03*
%TD*%
%TO.C,D15*%
X62255400Y-128701800D03*
X62255400Y-125401800D03*
%TD*%
%TO.C,D14*%
X314579000Y-110617000D03*
X314579000Y-107317000D03*
%TD*%
%TO.C,D13*%
X286004000Y-110617000D03*
X286004000Y-107317000D03*
%TD*%
%TO.C,D12*%
X266954000Y-110617000D03*
X266954000Y-107317000D03*
%TD*%
%TO.C,D11*%
X247904000Y-110617000D03*
X247904000Y-107317000D03*
%TD*%
%TO.C,D10*%
X228854000Y-110617000D03*
X228854000Y-107317000D03*
%TD*%
%TO.C,D9*%
X209804000Y-110617000D03*
X209804000Y-107317000D03*
%TD*%
%TO.C,D8*%
X190754000Y-110617000D03*
X190754000Y-107317000D03*
%TD*%
%TO.C,D7*%
X171704000Y-110617000D03*
X171704000Y-107317000D03*
%TD*%
%TO.C,D6*%
X152654000Y-110617000D03*
X152654000Y-107317000D03*
%TD*%
%TO.C,D5*%
X133604000Y-110617000D03*
X133604000Y-107317000D03*
%TD*%
%TO.C,D4*%
X114554000Y-110617000D03*
X114554000Y-107317000D03*
%TD*%
%TO.C,D3*%
X95504000Y-110617000D03*
X95504000Y-107317000D03*
%TD*%
%TO.C,D2*%
X76454000Y-110616000D03*
X76454000Y-107316000D03*
%TD*%
%TO.C,D1*%
X57404000Y-110617000D03*
X57404000Y-107317000D03*
%TD*%
%TO.C,C8*%
G36*
G01*
X354466500Y-114478750D02*
X354466500Y-115391250D01*
G75*
G02*
X354222750Y-115635000I-243750J0D01*
G01*
X353735250Y-115635000D01*
G75*
G02*
X353491500Y-115391250I0J243750D01*
G01*
X353491500Y-114478750D01*
G75*
G02*
X353735250Y-114235000I243750J0D01*
G01*
X354222750Y-114235000D01*
G75*
G02*
X354466500Y-114478750I0J-243750D01*
G01*
G37*
G36*
G01*
X356341500Y-114478750D02*
X356341500Y-115391250D01*
G75*
G02*
X356097750Y-115635000I-243750J0D01*
G01*
X355610250Y-115635000D01*
G75*
G02*
X355366500Y-115391250I0J243750D01*
G01*
X355366500Y-114478750D01*
G75*
G02*
X355610250Y-114235000I243750J0D01*
G01*
X356097750Y-114235000D01*
G75*
G02*
X356341500Y-114478750I0J-243750D01*
G01*
G37*
%TD*%
%TO.C,C7*%
G36*
G01*
X355463500Y-124662250D02*
X355463500Y-123749750D01*
G75*
G02*
X355707250Y-123506000I243750J0D01*
G01*
X356194750Y-123506000D01*
G75*
G02*
X356438500Y-123749750I0J-243750D01*
G01*
X356438500Y-124662250D01*
G75*
G02*
X356194750Y-124906000I-243750J0D01*
G01*
X355707250Y-124906000D01*
G75*
G02*
X355463500Y-124662250I0J243750D01*
G01*
G37*
G36*
G01*
X353588500Y-124662250D02*
X353588500Y-123749750D01*
G75*
G02*
X353832250Y-123506000I243750J0D01*
G01*
X354319750Y-123506000D01*
G75*
G02*
X354563500Y-123749750I0J-243750D01*
G01*
X354563500Y-124662250D01*
G75*
G02*
X354319750Y-124906000I-243750J0D01*
G01*
X353832250Y-124906000D01*
G75*
G02*
X353588500Y-124662250I0J243750D01*
G01*
G37*
%TD*%
%TO.C,C1*%
G36*
G01*
X343737250Y-106181500D02*
X342824750Y-106181500D01*
G75*
G02*
X342581000Y-105937750I0J243750D01*
G01*
X342581000Y-105450250D01*
G75*
G02*
X342824750Y-105206500I243750J0D01*
G01*
X343737250Y-105206500D01*
G75*
G02*
X343981000Y-105450250I0J-243750D01*
G01*
X343981000Y-105937750D01*
G75*
G02*
X343737250Y-106181500I-243750J0D01*
G01*
G37*
G36*
G01*
X343737250Y-108056500D02*
X342824750Y-108056500D01*
G75*
G02*
X342581000Y-107812750I0J243750D01*
G01*
X342581000Y-107325250D01*
G75*
G02*
X342824750Y-107081500I243750J0D01*
G01*
X343737250Y-107081500D01*
G75*
G02*
X343981000Y-107325250I0J-243750D01*
G01*
X343981000Y-107812750D01*
G75*
G02*
X343737250Y-108056500I-243750J0D01*
G01*
G37*
%TD*%
M02*
