%TF.GenerationSoftware,KiCad,Pcbnew,(5.1.6)-1*%
%TF.CreationDate,2020-07-27T20:44:57-04:00*%
%TF.ProjectId,keyboard,6b657962-6f61-4726-942e-6b696361645f,rev?*%
%TF.SameCoordinates,Original*%
%TF.FileFunction,Legend,Top*%
%TF.FilePolarity,Positive*%
%FSLAX46Y46*%
G04 Gerber Fmt 4.6, Leading zero omitted, Abs format (unit mm)*
G04 Created by KiCad (PCBNEW (5.1.6)-1) date 2020-07-27 20:44:57*
%MOMM*%
%LPD*%
G01*
G04 APERTURE LIST*
%ADD10C,0.150000*%
%ADD11C,0.120000*%
G04 APERTURE END LIST*
D10*
%TO.C,SW1*%
X348877000Y-137656000D02*
X343677000Y-137656000D01*
X343677000Y-137656000D02*
X343677000Y-132456000D01*
X343677000Y-132456000D02*
X348877000Y-132456000D01*
X348877000Y-132456000D02*
X348877000Y-137656000D01*
X347277000Y-135056000D02*
G75*
G03*
X347277000Y-135056000I-1000000J0D01*
G01*
D11*
%TO.C,R8*%
X356795000Y-107134922D02*
X356795000Y-107652078D01*
X358215000Y-107134922D02*
X358215000Y-107652078D01*
%TO.C,R7*%
X337387000Y-106890078D02*
X337387000Y-106372922D01*
X335967000Y-106890078D02*
X335967000Y-106372922D01*
%TO.C,R4*%
X353875078Y-132386000D02*
X353357922Y-132386000D01*
X353875078Y-133806000D02*
X353357922Y-133806000D01*
%TO.C,R3*%
X343991000Y-106890078D02*
X343991000Y-106372922D01*
X342571000Y-106890078D02*
X342571000Y-106372922D01*
%TO.C,R2*%
X340689000Y-106890078D02*
X340689000Y-106372922D01*
X339269000Y-106890078D02*
X339269000Y-106372922D01*
%TO.C,F1*%
X347874000Y-107533064D02*
X347874000Y-106328936D01*
X346054000Y-107533064D02*
X346054000Y-106328936D01*
%TO.C,D67*%
X351846000Y-105708500D02*
X351846000Y-108393500D01*
X353766000Y-105708500D02*
X351846000Y-105708500D01*
X353766000Y-108393500D02*
X353766000Y-105708500D01*
%TO.C,C9*%
X353357922Y-137616000D02*
X353875078Y-137616000D01*
X353357922Y-136196000D02*
X353875078Y-136196000D01*
%TO.C,C6*%
X342475078Y-114860000D02*
X341957922Y-114860000D01*
X342475078Y-116280000D02*
X341957922Y-116280000D01*
%TO.C,C5*%
X346372922Y-119074000D02*
X346890078Y-119074000D01*
X346372922Y-117654000D02*
X346890078Y-117654000D01*
%TO.C,C4*%
X346372922Y-123646000D02*
X346890078Y-123646000D01*
X346372922Y-122226000D02*
X346890078Y-122226000D01*
%TO.C,C3*%
X339673000Y-123019078D02*
X339673000Y-122501922D01*
X338253000Y-123019078D02*
X338253000Y-122501922D01*
%TO.C,C2*%
X338253000Y-117772922D02*
X338253000Y-118290078D01*
X339673000Y-117772922D02*
X339673000Y-118290078D01*
%TO.C,M2_2.2mm*%
D10*
X145510714Y-163171130D02*
X145510714Y-162171130D01*
X145844047Y-162885416D01*
X146177380Y-162171130D01*
X146177380Y-163171130D01*
X146605952Y-162266369D02*
X146653571Y-162218750D01*
X146748809Y-162171130D01*
X146986904Y-162171130D01*
X147082142Y-162218750D01*
X147129761Y-162266369D01*
X147177380Y-162361607D01*
X147177380Y-162456845D01*
X147129761Y-162599702D01*
X146558333Y-163171130D01*
X147177380Y-163171130D01*
X147367857Y-163266369D02*
X148129761Y-163266369D01*
X148320238Y-162266369D02*
X148367857Y-162218750D01*
X148463095Y-162171130D01*
X148701190Y-162171130D01*
X148796428Y-162218750D01*
X148844047Y-162266369D01*
X148891666Y-162361607D01*
X148891666Y-162456845D01*
X148844047Y-162599702D01*
X148272619Y-163171130D01*
X148891666Y-163171130D01*
X149320238Y-163075892D02*
X149367857Y-163123511D01*
X149320238Y-163171130D01*
X149272619Y-163123511D01*
X149320238Y-163075892D01*
X149320238Y-163171130D01*
X149748809Y-162266369D02*
X149796428Y-162218750D01*
X149891666Y-162171130D01*
X150129761Y-162171130D01*
X150225000Y-162218750D01*
X150272619Y-162266369D01*
X150320238Y-162361607D01*
X150320238Y-162456845D01*
X150272619Y-162599702D01*
X149701190Y-163171130D01*
X150320238Y-163171130D01*
X150748809Y-163171130D02*
X150748809Y-162504464D01*
X150748809Y-162599702D02*
X150796428Y-162552083D01*
X150891666Y-162504464D01*
X151034523Y-162504464D01*
X151129761Y-162552083D01*
X151177380Y-162647321D01*
X151177380Y-163171130D01*
X151177380Y-162647321D02*
X151225000Y-162552083D01*
X151320238Y-162504464D01*
X151463095Y-162504464D01*
X151558333Y-162552083D01*
X151605952Y-162647321D01*
X151605952Y-163171130D01*
X152082142Y-163171130D02*
X152082142Y-162504464D01*
X152082142Y-162599702D02*
X152129761Y-162552083D01*
X152225000Y-162504464D01*
X152367857Y-162504464D01*
X152463095Y-162552083D01*
X152510714Y-162647321D01*
X152510714Y-163171130D01*
X152510714Y-162647321D02*
X152558333Y-162552083D01*
X152653571Y-162504464D01*
X152796428Y-162504464D01*
X152891666Y-162552083D01*
X152939285Y-162647321D01*
X152939285Y-163171130D01*
X217011714Y-144343380D02*
X217011714Y-143343380D01*
X217345047Y-144057666D01*
X217678380Y-143343380D01*
X217678380Y-144343380D01*
X218106952Y-143438619D02*
X218154571Y-143391000D01*
X218249809Y-143343380D01*
X218487904Y-143343380D01*
X218583142Y-143391000D01*
X218630761Y-143438619D01*
X218678380Y-143533857D01*
X218678380Y-143629095D01*
X218630761Y-143771952D01*
X218059333Y-144343380D01*
X218678380Y-144343380D01*
X218868857Y-144438619D02*
X219630761Y-144438619D01*
X219821238Y-143438619D02*
X219868857Y-143391000D01*
X219964095Y-143343380D01*
X220202190Y-143343380D01*
X220297428Y-143391000D01*
X220345047Y-143438619D01*
X220392666Y-143533857D01*
X220392666Y-143629095D01*
X220345047Y-143771952D01*
X219773619Y-144343380D01*
X220392666Y-144343380D01*
X220821238Y-144248142D02*
X220868857Y-144295761D01*
X220821238Y-144343380D01*
X220773619Y-144295761D01*
X220821238Y-144248142D01*
X220821238Y-144343380D01*
X221249809Y-143438619D02*
X221297428Y-143391000D01*
X221392666Y-143343380D01*
X221630761Y-143343380D01*
X221726000Y-143391000D01*
X221773619Y-143438619D01*
X221821238Y-143533857D01*
X221821238Y-143629095D01*
X221773619Y-143771952D01*
X221202190Y-144343380D01*
X221821238Y-144343380D01*
X222249809Y-144343380D02*
X222249809Y-143676714D01*
X222249809Y-143771952D02*
X222297428Y-143724333D01*
X222392666Y-143676714D01*
X222535523Y-143676714D01*
X222630761Y-143724333D01*
X222678380Y-143819571D01*
X222678380Y-144343380D01*
X222678380Y-143819571D02*
X222726000Y-143724333D01*
X222821238Y-143676714D01*
X222964095Y-143676714D01*
X223059333Y-143724333D01*
X223106952Y-143819571D01*
X223106952Y-144343380D01*
X223583142Y-144343380D02*
X223583142Y-143676714D01*
X223583142Y-143771952D02*
X223630761Y-143724333D01*
X223726000Y-143676714D01*
X223868857Y-143676714D01*
X223964095Y-143724333D01*
X224011714Y-143819571D01*
X224011714Y-144343380D01*
X224011714Y-143819571D02*
X224059333Y-143724333D01*
X224154571Y-143676714D01*
X224297428Y-143676714D01*
X224392666Y-143724333D01*
X224440285Y-143819571D01*
X224440285Y-144343380D01*
X285210714Y-125166380D02*
X285210714Y-124166380D01*
X285544047Y-124880666D01*
X285877380Y-124166380D01*
X285877380Y-125166380D01*
X286305952Y-124261619D02*
X286353571Y-124214000D01*
X286448809Y-124166380D01*
X286686904Y-124166380D01*
X286782142Y-124214000D01*
X286829761Y-124261619D01*
X286877380Y-124356857D01*
X286877380Y-124452095D01*
X286829761Y-124594952D01*
X286258333Y-125166380D01*
X286877380Y-125166380D01*
X287067857Y-125261619D02*
X287829761Y-125261619D01*
X288020238Y-124261619D02*
X288067857Y-124214000D01*
X288163095Y-124166380D01*
X288401190Y-124166380D01*
X288496428Y-124214000D01*
X288544047Y-124261619D01*
X288591666Y-124356857D01*
X288591666Y-124452095D01*
X288544047Y-124594952D01*
X287972619Y-125166380D01*
X288591666Y-125166380D01*
X289020238Y-125071142D02*
X289067857Y-125118761D01*
X289020238Y-125166380D01*
X288972619Y-125118761D01*
X289020238Y-125071142D01*
X289020238Y-125166380D01*
X289448809Y-124261619D02*
X289496428Y-124214000D01*
X289591666Y-124166380D01*
X289829761Y-124166380D01*
X289925000Y-124214000D01*
X289972619Y-124261619D01*
X290020238Y-124356857D01*
X290020238Y-124452095D01*
X289972619Y-124594952D01*
X289401190Y-125166380D01*
X290020238Y-125166380D01*
X290448809Y-125166380D02*
X290448809Y-124499714D01*
X290448809Y-124594952D02*
X290496428Y-124547333D01*
X290591666Y-124499714D01*
X290734523Y-124499714D01*
X290829761Y-124547333D01*
X290877380Y-124642571D01*
X290877380Y-125166380D01*
X290877380Y-124642571D02*
X290925000Y-124547333D01*
X291020238Y-124499714D01*
X291163095Y-124499714D01*
X291258333Y-124547333D01*
X291305952Y-124642571D01*
X291305952Y-125166380D01*
X291782142Y-125166380D02*
X291782142Y-124499714D01*
X291782142Y-124594952D02*
X291829761Y-124547333D01*
X291925000Y-124499714D01*
X292067857Y-124499714D01*
X292163095Y-124547333D01*
X292210714Y-124642571D01*
X292210714Y-125166380D01*
X292210714Y-124642571D02*
X292258333Y-124547333D01*
X292353571Y-124499714D01*
X292496428Y-124499714D01*
X292591666Y-124547333D01*
X292639285Y-124642571D01*
X292639285Y-125166380D01*
X62166964Y-136952380D02*
X62166964Y-135952380D01*
X62500297Y-136666666D01*
X62833630Y-135952380D01*
X62833630Y-136952380D01*
X63262202Y-136047619D02*
X63309821Y-136000000D01*
X63405059Y-135952380D01*
X63643154Y-135952380D01*
X63738392Y-136000000D01*
X63786011Y-136047619D01*
X63833630Y-136142857D01*
X63833630Y-136238095D01*
X63786011Y-136380952D01*
X63214583Y-136952380D01*
X63833630Y-136952380D01*
X64024107Y-137047619D02*
X64786011Y-137047619D01*
X64976488Y-136047619D02*
X65024107Y-136000000D01*
X65119345Y-135952380D01*
X65357440Y-135952380D01*
X65452678Y-136000000D01*
X65500297Y-136047619D01*
X65547916Y-136142857D01*
X65547916Y-136238095D01*
X65500297Y-136380952D01*
X64928869Y-136952380D01*
X65547916Y-136952380D01*
X65976488Y-136857142D02*
X66024107Y-136904761D01*
X65976488Y-136952380D01*
X65928869Y-136904761D01*
X65976488Y-136857142D01*
X65976488Y-136952380D01*
X66405059Y-136047619D02*
X66452678Y-136000000D01*
X66547916Y-135952380D01*
X66786011Y-135952380D01*
X66881250Y-136000000D01*
X66928869Y-136047619D01*
X66976488Y-136142857D01*
X66976488Y-136238095D01*
X66928869Y-136380952D01*
X66357440Y-136952380D01*
X66976488Y-136952380D01*
X67405059Y-136952380D02*
X67405059Y-136285714D01*
X67405059Y-136380952D02*
X67452678Y-136333333D01*
X67547916Y-136285714D01*
X67690773Y-136285714D01*
X67786011Y-136333333D01*
X67833630Y-136428571D01*
X67833630Y-136952380D01*
X67833630Y-136428571D02*
X67881250Y-136333333D01*
X67976488Y-136285714D01*
X68119345Y-136285714D01*
X68214583Y-136333333D01*
X68262202Y-136428571D01*
X68262202Y-136952380D01*
X68738392Y-136952380D02*
X68738392Y-136285714D01*
X68738392Y-136380952D02*
X68786011Y-136333333D01*
X68881250Y-136285714D01*
X69024107Y-136285714D01*
X69119345Y-136333333D01*
X69166964Y-136428571D01*
X69166964Y-136952380D01*
X69166964Y-136428571D02*
X69214583Y-136333333D01*
X69309821Y-136285714D01*
X69452678Y-136285714D01*
X69547916Y-136333333D01*
X69595535Y-136428571D01*
X69595535Y-136952380D01*
X199485714Y-190165380D02*
X199485714Y-189165380D01*
X199819047Y-189879666D01*
X200152380Y-189165380D01*
X200152380Y-190165380D01*
X200580952Y-189260619D02*
X200628571Y-189213000D01*
X200723809Y-189165380D01*
X200961904Y-189165380D01*
X201057142Y-189213000D01*
X201104761Y-189260619D01*
X201152380Y-189355857D01*
X201152380Y-189451095D01*
X201104761Y-189593952D01*
X200533333Y-190165380D01*
X201152380Y-190165380D01*
X201342857Y-190260619D02*
X202104761Y-190260619D01*
X202295238Y-189260619D02*
X202342857Y-189213000D01*
X202438095Y-189165380D01*
X202676190Y-189165380D01*
X202771428Y-189213000D01*
X202819047Y-189260619D01*
X202866666Y-189355857D01*
X202866666Y-189451095D01*
X202819047Y-189593952D01*
X202247619Y-190165380D01*
X202866666Y-190165380D01*
X203295238Y-190070142D02*
X203342857Y-190117761D01*
X203295238Y-190165380D01*
X203247619Y-190117761D01*
X203295238Y-190070142D01*
X203295238Y-190165380D01*
X203723809Y-189260619D02*
X203771428Y-189213000D01*
X203866666Y-189165380D01*
X204104761Y-189165380D01*
X204200000Y-189213000D01*
X204247619Y-189260619D01*
X204295238Y-189355857D01*
X204295238Y-189451095D01*
X204247619Y-189593952D01*
X203676190Y-190165380D01*
X204295238Y-190165380D01*
X204723809Y-190165380D02*
X204723809Y-189498714D01*
X204723809Y-189593952D02*
X204771428Y-189546333D01*
X204866666Y-189498714D01*
X205009523Y-189498714D01*
X205104761Y-189546333D01*
X205152380Y-189641571D01*
X205152380Y-190165380D01*
X205152380Y-189641571D02*
X205200000Y-189546333D01*
X205295238Y-189498714D01*
X205438095Y-189498714D01*
X205533333Y-189546333D01*
X205580952Y-189641571D01*
X205580952Y-190165380D01*
X206057142Y-190165380D02*
X206057142Y-189498714D01*
X206057142Y-189593952D02*
X206104761Y-189546333D01*
X206200000Y-189498714D01*
X206342857Y-189498714D01*
X206438095Y-189546333D01*
X206485714Y-189641571D01*
X206485714Y-190165380D01*
X206485714Y-189641571D02*
X206533333Y-189546333D01*
X206628571Y-189498714D01*
X206771428Y-189498714D01*
X206866666Y-189546333D01*
X206914285Y-189641571D01*
X206914285Y-190165380D01*
X350615714Y-97861380D02*
X350615714Y-96861380D01*
X350949047Y-97575666D01*
X351282380Y-96861380D01*
X351282380Y-97861380D01*
X351710952Y-96956619D02*
X351758571Y-96909000D01*
X351853809Y-96861380D01*
X352091904Y-96861380D01*
X352187142Y-96909000D01*
X352234761Y-96956619D01*
X352282380Y-97051857D01*
X352282380Y-97147095D01*
X352234761Y-97289952D01*
X351663333Y-97861380D01*
X352282380Y-97861380D01*
X352472857Y-97956619D02*
X353234761Y-97956619D01*
X353425238Y-96956619D02*
X353472857Y-96909000D01*
X353568095Y-96861380D01*
X353806190Y-96861380D01*
X353901428Y-96909000D01*
X353949047Y-96956619D01*
X353996666Y-97051857D01*
X353996666Y-97147095D01*
X353949047Y-97289952D01*
X353377619Y-97861380D01*
X353996666Y-97861380D01*
X354425238Y-97766142D02*
X354472857Y-97813761D01*
X354425238Y-97861380D01*
X354377619Y-97813761D01*
X354425238Y-97766142D01*
X354425238Y-97861380D01*
X354853809Y-96956619D02*
X354901428Y-96909000D01*
X354996666Y-96861380D01*
X355234761Y-96861380D01*
X355330000Y-96909000D01*
X355377619Y-96956619D01*
X355425238Y-97051857D01*
X355425238Y-97147095D01*
X355377619Y-97289952D01*
X354806190Y-97861380D01*
X355425238Y-97861380D01*
X355853809Y-97861380D02*
X355853809Y-97194714D01*
X355853809Y-97289952D02*
X355901428Y-97242333D01*
X355996666Y-97194714D01*
X356139523Y-97194714D01*
X356234761Y-97242333D01*
X356282380Y-97337571D01*
X356282380Y-97861380D01*
X356282380Y-97337571D02*
X356330000Y-97242333D01*
X356425238Y-97194714D01*
X356568095Y-97194714D01*
X356663333Y-97242333D01*
X356710952Y-97337571D01*
X356710952Y-97861380D01*
X357187142Y-97861380D02*
X357187142Y-97194714D01*
X357187142Y-97289952D02*
X357234761Y-97242333D01*
X357330000Y-97194714D01*
X357472857Y-97194714D01*
X357568095Y-97242333D01*
X357615714Y-97337571D01*
X357615714Y-97861380D01*
X357615714Y-97337571D02*
X357663333Y-97242333D01*
X357758571Y-97194714D01*
X357901428Y-97194714D01*
X357996666Y-97242333D01*
X358044285Y-97337571D01*
X358044285Y-97861380D01*
X353473214Y-198071130D02*
X353473214Y-197071130D01*
X353806547Y-197785416D01*
X354139880Y-197071130D01*
X354139880Y-198071130D01*
X354568452Y-197166369D02*
X354616071Y-197118750D01*
X354711309Y-197071130D01*
X354949404Y-197071130D01*
X355044642Y-197118750D01*
X355092261Y-197166369D01*
X355139880Y-197261607D01*
X355139880Y-197356845D01*
X355092261Y-197499702D01*
X354520833Y-198071130D01*
X355139880Y-198071130D01*
X355330357Y-198166369D02*
X356092261Y-198166369D01*
X356282738Y-197166369D02*
X356330357Y-197118750D01*
X356425595Y-197071130D01*
X356663690Y-197071130D01*
X356758928Y-197118750D01*
X356806547Y-197166369D01*
X356854166Y-197261607D01*
X356854166Y-197356845D01*
X356806547Y-197499702D01*
X356235119Y-198071130D01*
X356854166Y-198071130D01*
X357282738Y-197975892D02*
X357330357Y-198023511D01*
X357282738Y-198071130D01*
X357235119Y-198023511D01*
X357282738Y-197975892D01*
X357282738Y-198071130D01*
X357711309Y-197166369D02*
X357758928Y-197118750D01*
X357854166Y-197071130D01*
X358092261Y-197071130D01*
X358187500Y-197118750D01*
X358235119Y-197166369D01*
X358282738Y-197261607D01*
X358282738Y-197356845D01*
X358235119Y-197499702D01*
X357663690Y-198071130D01*
X358282738Y-198071130D01*
X358711309Y-198071130D02*
X358711309Y-197404464D01*
X358711309Y-197499702D02*
X358758928Y-197452083D01*
X358854166Y-197404464D01*
X358997023Y-197404464D01*
X359092261Y-197452083D01*
X359139880Y-197547321D01*
X359139880Y-198071130D01*
X359139880Y-197547321D02*
X359187500Y-197452083D01*
X359282738Y-197404464D01*
X359425595Y-197404464D01*
X359520833Y-197452083D01*
X359568452Y-197547321D01*
X359568452Y-198071130D01*
X360044642Y-198071130D02*
X360044642Y-197404464D01*
X360044642Y-197499702D02*
X360092261Y-197452083D01*
X360187500Y-197404464D01*
X360330357Y-197404464D01*
X360425595Y-197452083D01*
X360473214Y-197547321D01*
X360473214Y-198071130D01*
X360473214Y-197547321D02*
X360520833Y-197452083D01*
X360616071Y-197404464D01*
X360758928Y-197404464D01*
X360854166Y-197452083D01*
X360901785Y-197547321D01*
X360901785Y-198071130D01*
X35909714Y-97861380D02*
X35909714Y-96861380D01*
X36243047Y-97575666D01*
X36576380Y-96861380D01*
X36576380Y-97861380D01*
X37004952Y-96956619D02*
X37052571Y-96909000D01*
X37147809Y-96861380D01*
X37385904Y-96861380D01*
X37481142Y-96909000D01*
X37528761Y-96956619D01*
X37576380Y-97051857D01*
X37576380Y-97147095D01*
X37528761Y-97289952D01*
X36957333Y-97861380D01*
X37576380Y-97861380D01*
X37766857Y-97956619D02*
X38528761Y-97956619D01*
X38719238Y-96956619D02*
X38766857Y-96909000D01*
X38862095Y-96861380D01*
X39100190Y-96861380D01*
X39195428Y-96909000D01*
X39243047Y-96956619D01*
X39290666Y-97051857D01*
X39290666Y-97147095D01*
X39243047Y-97289952D01*
X38671619Y-97861380D01*
X39290666Y-97861380D01*
X39719238Y-97766142D02*
X39766857Y-97813761D01*
X39719238Y-97861380D01*
X39671619Y-97813761D01*
X39719238Y-97766142D01*
X39719238Y-97861380D01*
X40147809Y-96956619D02*
X40195428Y-96909000D01*
X40290666Y-96861380D01*
X40528761Y-96861380D01*
X40624000Y-96909000D01*
X40671619Y-96956619D01*
X40719238Y-97051857D01*
X40719238Y-97147095D01*
X40671619Y-97289952D01*
X40100190Y-97861380D01*
X40719238Y-97861380D01*
X41147809Y-97861380D02*
X41147809Y-97194714D01*
X41147809Y-97289952D02*
X41195428Y-97242333D01*
X41290666Y-97194714D01*
X41433523Y-97194714D01*
X41528761Y-97242333D01*
X41576380Y-97337571D01*
X41576380Y-97861380D01*
X41576380Y-97337571D02*
X41624000Y-97242333D01*
X41719238Y-97194714D01*
X41862095Y-97194714D01*
X41957333Y-97242333D01*
X42004952Y-97337571D01*
X42004952Y-97861380D01*
X42481142Y-97861380D02*
X42481142Y-97194714D01*
X42481142Y-97289952D02*
X42528761Y-97242333D01*
X42624000Y-97194714D01*
X42766857Y-97194714D01*
X42862095Y-97242333D01*
X42909714Y-97337571D01*
X42909714Y-97861380D01*
X42909714Y-97337571D02*
X42957333Y-97242333D01*
X43052571Y-97194714D01*
X43195428Y-97194714D01*
X43290666Y-97242333D01*
X43338285Y-97337571D01*
X43338285Y-97861380D01*
X32798214Y-198071130D02*
X32798214Y-197071130D01*
X33131547Y-197785416D01*
X33464880Y-197071130D01*
X33464880Y-198071130D01*
X33893452Y-197166369D02*
X33941071Y-197118750D01*
X34036309Y-197071130D01*
X34274404Y-197071130D01*
X34369642Y-197118750D01*
X34417261Y-197166369D01*
X34464880Y-197261607D01*
X34464880Y-197356845D01*
X34417261Y-197499702D01*
X33845833Y-198071130D01*
X34464880Y-198071130D01*
X34655357Y-198166369D02*
X35417261Y-198166369D01*
X35607738Y-197166369D02*
X35655357Y-197118750D01*
X35750595Y-197071130D01*
X35988690Y-197071130D01*
X36083928Y-197118750D01*
X36131547Y-197166369D01*
X36179166Y-197261607D01*
X36179166Y-197356845D01*
X36131547Y-197499702D01*
X35560119Y-198071130D01*
X36179166Y-198071130D01*
X36607738Y-197975892D02*
X36655357Y-198023511D01*
X36607738Y-198071130D01*
X36560119Y-198023511D01*
X36607738Y-197975892D01*
X36607738Y-198071130D01*
X37036309Y-197166369D02*
X37083928Y-197118750D01*
X37179166Y-197071130D01*
X37417261Y-197071130D01*
X37512500Y-197118750D01*
X37560119Y-197166369D01*
X37607738Y-197261607D01*
X37607738Y-197356845D01*
X37560119Y-197499702D01*
X36988690Y-198071130D01*
X37607738Y-198071130D01*
X38036309Y-198071130D02*
X38036309Y-197404464D01*
X38036309Y-197499702D02*
X38083928Y-197452083D01*
X38179166Y-197404464D01*
X38322023Y-197404464D01*
X38417261Y-197452083D01*
X38464880Y-197547321D01*
X38464880Y-198071130D01*
X38464880Y-197547321D02*
X38512500Y-197452083D01*
X38607738Y-197404464D01*
X38750595Y-197404464D01*
X38845833Y-197452083D01*
X38893452Y-197547321D01*
X38893452Y-198071130D01*
X39369642Y-198071130D02*
X39369642Y-197404464D01*
X39369642Y-197499702D02*
X39417261Y-197452083D01*
X39512500Y-197404464D01*
X39655357Y-197404464D01*
X39750595Y-197452083D01*
X39798214Y-197547321D01*
X39798214Y-198071130D01*
X39798214Y-197547321D02*
X39845833Y-197452083D01*
X39941071Y-197404464D01*
X40083928Y-197404464D01*
X40179166Y-197452083D01*
X40226785Y-197547321D01*
X40226785Y-198071130D01*
%TO.C,MX41*%
X302244345Y-148216880D02*
X302244345Y-147216880D01*
X302577678Y-147931166D01*
X302911011Y-147216880D01*
X302911011Y-148216880D01*
X303291964Y-147216880D02*
X303958630Y-148216880D01*
X303958630Y-147216880D02*
X303291964Y-148216880D01*
X304768154Y-147550214D02*
X304768154Y-148216880D01*
X304530059Y-147169261D02*
X304291964Y-147883547D01*
X304911011Y-147883547D01*
X305815773Y-148216880D02*
X305244345Y-148216880D01*
X305530059Y-148216880D02*
X305530059Y-147216880D01*
X305434821Y-147359738D01*
X305339583Y-147454976D01*
X305244345Y-147502595D01*
%TO.C,SW1*%
X344943666Y-131396761D02*
X345086523Y-131444380D01*
X345324619Y-131444380D01*
X345419857Y-131396761D01*
X345467476Y-131349142D01*
X345515095Y-131253904D01*
X345515095Y-131158666D01*
X345467476Y-131063428D01*
X345419857Y-131015809D01*
X345324619Y-130968190D01*
X345134142Y-130920571D01*
X345038904Y-130872952D01*
X344991285Y-130825333D01*
X344943666Y-130730095D01*
X344943666Y-130634857D01*
X344991285Y-130539619D01*
X345038904Y-130492000D01*
X345134142Y-130444380D01*
X345372238Y-130444380D01*
X345515095Y-130492000D01*
X345848428Y-130444380D02*
X346086523Y-131444380D01*
X346277000Y-130730095D01*
X346467476Y-131444380D01*
X346705571Y-130444380D01*
X347610333Y-131444380D02*
X347038904Y-131444380D01*
X347324619Y-131444380D02*
X347324619Y-130444380D01*
X347229380Y-130587238D01*
X347134142Y-130682476D01*
X347038904Y-130730095D01*
%TO.C,R8*%
X359607380Y-107560166D02*
X359131190Y-107893500D01*
X359607380Y-108131595D02*
X358607380Y-108131595D01*
X358607380Y-107750642D01*
X358655000Y-107655404D01*
X358702619Y-107607785D01*
X358797857Y-107560166D01*
X358940714Y-107560166D01*
X359035952Y-107607785D01*
X359083571Y-107655404D01*
X359131190Y-107750642D01*
X359131190Y-108131595D01*
X359035952Y-106988738D02*
X358988333Y-107083976D01*
X358940714Y-107131595D01*
X358845476Y-107179214D01*
X358797857Y-107179214D01*
X358702619Y-107131595D01*
X358655000Y-107083976D01*
X358607380Y-106988738D01*
X358607380Y-106798261D01*
X358655000Y-106703023D01*
X358702619Y-106655404D01*
X358797857Y-106607785D01*
X358845476Y-106607785D01*
X358940714Y-106655404D01*
X358988333Y-106703023D01*
X359035952Y-106798261D01*
X359035952Y-106988738D01*
X359083571Y-107083976D01*
X359131190Y-107131595D01*
X359226428Y-107179214D01*
X359416904Y-107179214D01*
X359512142Y-107131595D01*
X359559761Y-107083976D01*
X359607380Y-106988738D01*
X359607380Y-106798261D01*
X359559761Y-106703023D01*
X359512142Y-106655404D01*
X359416904Y-106607785D01*
X359226428Y-106607785D01*
X359131190Y-106655404D01*
X359083571Y-106703023D01*
X359035952Y-106798261D01*
%TO.C,R7*%
X335479380Y-106798166D02*
X335003190Y-107131500D01*
X335479380Y-107369595D02*
X334479380Y-107369595D01*
X334479380Y-106988642D01*
X334527000Y-106893404D01*
X334574619Y-106845785D01*
X334669857Y-106798166D01*
X334812714Y-106798166D01*
X334907952Y-106845785D01*
X334955571Y-106893404D01*
X335003190Y-106988642D01*
X335003190Y-107369595D01*
X334479380Y-106464833D02*
X334479380Y-105798166D01*
X335479380Y-106226738D01*
%TO.C,R4*%
X353449833Y-135198380D02*
X353116500Y-134722190D01*
X352878404Y-135198380D02*
X352878404Y-134198380D01*
X353259357Y-134198380D01*
X353354595Y-134246000D01*
X353402214Y-134293619D01*
X353449833Y-134388857D01*
X353449833Y-134531714D01*
X353402214Y-134626952D01*
X353354595Y-134674571D01*
X353259357Y-134722190D01*
X352878404Y-134722190D01*
X354306976Y-134531714D02*
X354306976Y-135198380D01*
X354068880Y-134150761D02*
X353830785Y-134865047D01*
X354449833Y-134865047D01*
%TO.C,R3*%
X342083380Y-106798166D02*
X341607190Y-107131500D01*
X342083380Y-107369595D02*
X341083380Y-107369595D01*
X341083380Y-106988642D01*
X341131000Y-106893404D01*
X341178619Y-106845785D01*
X341273857Y-106798166D01*
X341416714Y-106798166D01*
X341511952Y-106845785D01*
X341559571Y-106893404D01*
X341607190Y-106988642D01*
X341607190Y-107369595D01*
X341083380Y-106464833D02*
X341083380Y-105845785D01*
X341464333Y-106179119D01*
X341464333Y-106036261D01*
X341511952Y-105941023D01*
X341559571Y-105893404D01*
X341654809Y-105845785D01*
X341892904Y-105845785D01*
X341988142Y-105893404D01*
X342035761Y-105941023D01*
X342083380Y-106036261D01*
X342083380Y-106321976D01*
X342035761Y-106417214D01*
X341988142Y-106464833D01*
%TO.C,R2*%
X338781380Y-106798166D02*
X338305190Y-107131500D01*
X338781380Y-107369595D02*
X337781380Y-107369595D01*
X337781380Y-106988642D01*
X337829000Y-106893404D01*
X337876619Y-106845785D01*
X337971857Y-106798166D01*
X338114714Y-106798166D01*
X338209952Y-106845785D01*
X338257571Y-106893404D01*
X338305190Y-106988642D01*
X338305190Y-107369595D01*
X337876619Y-106417214D02*
X337829000Y-106369595D01*
X337781380Y-106274357D01*
X337781380Y-106036261D01*
X337829000Y-105941023D01*
X337876619Y-105893404D01*
X337971857Y-105845785D01*
X338067095Y-105845785D01*
X338209952Y-105893404D01*
X338781380Y-106464833D01*
X338781380Y-105845785D01*
%TO.C,MX66*%
X342725595Y-186316880D02*
X342725595Y-185316880D01*
X343058928Y-186031166D01*
X343392261Y-185316880D01*
X343392261Y-186316880D01*
X343773214Y-185316880D02*
X344439880Y-186316880D01*
X344439880Y-185316880D02*
X343773214Y-186316880D01*
X345249404Y-185316880D02*
X345058928Y-185316880D01*
X344963690Y-185364500D01*
X344916071Y-185412119D01*
X344820833Y-185554976D01*
X344773214Y-185745452D01*
X344773214Y-186126404D01*
X344820833Y-186221642D01*
X344868452Y-186269261D01*
X344963690Y-186316880D01*
X345154166Y-186316880D01*
X345249404Y-186269261D01*
X345297023Y-186221642D01*
X345344642Y-186126404D01*
X345344642Y-185888309D01*
X345297023Y-185793071D01*
X345249404Y-185745452D01*
X345154166Y-185697833D01*
X344963690Y-185697833D01*
X344868452Y-185745452D01*
X344820833Y-185793071D01*
X344773214Y-185888309D01*
X346201785Y-185316880D02*
X346011309Y-185316880D01*
X345916071Y-185364500D01*
X345868452Y-185412119D01*
X345773214Y-185554976D01*
X345725595Y-185745452D01*
X345725595Y-186126404D01*
X345773214Y-186221642D01*
X345820833Y-186269261D01*
X345916071Y-186316880D01*
X346106547Y-186316880D01*
X346201785Y-186269261D01*
X346249404Y-186221642D01*
X346297023Y-186126404D01*
X346297023Y-185888309D01*
X346249404Y-185793071D01*
X346201785Y-185745452D01*
X346106547Y-185697833D01*
X345916071Y-185697833D01*
X345820833Y-185745452D01*
X345773214Y-185793071D01*
X345725595Y-185888309D01*
%TO.C,MX65*%
X323675595Y-186316880D02*
X323675595Y-185316880D01*
X324008928Y-186031166D01*
X324342261Y-185316880D01*
X324342261Y-186316880D01*
X324723214Y-185316880D02*
X325389880Y-186316880D01*
X325389880Y-185316880D02*
X324723214Y-186316880D01*
X326199404Y-185316880D02*
X326008928Y-185316880D01*
X325913690Y-185364500D01*
X325866071Y-185412119D01*
X325770833Y-185554976D01*
X325723214Y-185745452D01*
X325723214Y-186126404D01*
X325770833Y-186221642D01*
X325818452Y-186269261D01*
X325913690Y-186316880D01*
X326104166Y-186316880D01*
X326199404Y-186269261D01*
X326247023Y-186221642D01*
X326294642Y-186126404D01*
X326294642Y-185888309D01*
X326247023Y-185793071D01*
X326199404Y-185745452D01*
X326104166Y-185697833D01*
X325913690Y-185697833D01*
X325818452Y-185745452D01*
X325770833Y-185793071D01*
X325723214Y-185888309D01*
X327199404Y-185316880D02*
X326723214Y-185316880D01*
X326675595Y-185793071D01*
X326723214Y-185745452D01*
X326818452Y-185697833D01*
X327056547Y-185697833D01*
X327151785Y-185745452D01*
X327199404Y-185793071D01*
X327247023Y-185888309D01*
X327247023Y-186126404D01*
X327199404Y-186221642D01*
X327151785Y-186269261D01*
X327056547Y-186316880D01*
X326818452Y-186316880D01*
X326723214Y-186269261D01*
X326675595Y-186221642D01*
%TO.C,MX64*%
X304625595Y-186316880D02*
X304625595Y-185316880D01*
X304958928Y-186031166D01*
X305292261Y-185316880D01*
X305292261Y-186316880D01*
X305673214Y-185316880D02*
X306339880Y-186316880D01*
X306339880Y-185316880D02*
X305673214Y-186316880D01*
X307149404Y-185316880D02*
X306958928Y-185316880D01*
X306863690Y-185364500D01*
X306816071Y-185412119D01*
X306720833Y-185554976D01*
X306673214Y-185745452D01*
X306673214Y-186126404D01*
X306720833Y-186221642D01*
X306768452Y-186269261D01*
X306863690Y-186316880D01*
X307054166Y-186316880D01*
X307149404Y-186269261D01*
X307197023Y-186221642D01*
X307244642Y-186126404D01*
X307244642Y-185888309D01*
X307197023Y-185793071D01*
X307149404Y-185745452D01*
X307054166Y-185697833D01*
X306863690Y-185697833D01*
X306768452Y-185745452D01*
X306720833Y-185793071D01*
X306673214Y-185888309D01*
X308101785Y-185650214D02*
X308101785Y-186316880D01*
X307863690Y-185269261D02*
X307625595Y-185983547D01*
X308244642Y-185983547D01*
%TO.C,MX63*%
X283194345Y-186316880D02*
X283194345Y-185316880D01*
X283527678Y-186031166D01*
X283861011Y-185316880D01*
X283861011Y-186316880D01*
X284241964Y-185316880D02*
X284908630Y-186316880D01*
X284908630Y-185316880D02*
X284241964Y-186316880D01*
X285718154Y-185316880D02*
X285527678Y-185316880D01*
X285432440Y-185364500D01*
X285384821Y-185412119D01*
X285289583Y-185554976D01*
X285241964Y-185745452D01*
X285241964Y-186126404D01*
X285289583Y-186221642D01*
X285337202Y-186269261D01*
X285432440Y-186316880D01*
X285622916Y-186316880D01*
X285718154Y-186269261D01*
X285765773Y-186221642D01*
X285813392Y-186126404D01*
X285813392Y-185888309D01*
X285765773Y-185793071D01*
X285718154Y-185745452D01*
X285622916Y-185697833D01*
X285432440Y-185697833D01*
X285337202Y-185745452D01*
X285289583Y-185793071D01*
X285241964Y-185888309D01*
X286146726Y-185316880D02*
X286765773Y-185316880D01*
X286432440Y-185697833D01*
X286575297Y-185697833D01*
X286670535Y-185745452D01*
X286718154Y-185793071D01*
X286765773Y-185888309D01*
X286765773Y-186126404D01*
X286718154Y-186221642D01*
X286670535Y-186269261D01*
X286575297Y-186316880D01*
X286289583Y-186316880D01*
X286194345Y-186269261D01*
X286146726Y-186221642D01*
%TO.C,MX62*%
X259381845Y-186316880D02*
X259381845Y-185316880D01*
X259715178Y-186031166D01*
X260048511Y-185316880D01*
X260048511Y-186316880D01*
X260429464Y-185316880D02*
X261096130Y-186316880D01*
X261096130Y-185316880D02*
X260429464Y-186316880D01*
X261905654Y-185316880D02*
X261715178Y-185316880D01*
X261619940Y-185364500D01*
X261572321Y-185412119D01*
X261477083Y-185554976D01*
X261429464Y-185745452D01*
X261429464Y-186126404D01*
X261477083Y-186221642D01*
X261524702Y-186269261D01*
X261619940Y-186316880D01*
X261810416Y-186316880D01*
X261905654Y-186269261D01*
X261953273Y-186221642D01*
X262000892Y-186126404D01*
X262000892Y-185888309D01*
X261953273Y-185793071D01*
X261905654Y-185745452D01*
X261810416Y-185697833D01*
X261619940Y-185697833D01*
X261524702Y-185745452D01*
X261477083Y-185793071D01*
X261429464Y-185888309D01*
X262381845Y-185412119D02*
X262429464Y-185364500D01*
X262524702Y-185316880D01*
X262762797Y-185316880D01*
X262858035Y-185364500D01*
X262905654Y-185412119D01*
X262953273Y-185507357D01*
X262953273Y-185602595D01*
X262905654Y-185745452D01*
X262334226Y-186316880D01*
X262953273Y-186316880D01*
%TO.C,MX61*%
X235569345Y-186316880D02*
X235569345Y-185316880D01*
X235902678Y-186031166D01*
X236236011Y-185316880D01*
X236236011Y-186316880D01*
X236616964Y-185316880D02*
X237283630Y-186316880D01*
X237283630Y-185316880D02*
X236616964Y-186316880D01*
X238093154Y-185316880D02*
X237902678Y-185316880D01*
X237807440Y-185364500D01*
X237759821Y-185412119D01*
X237664583Y-185554976D01*
X237616964Y-185745452D01*
X237616964Y-186126404D01*
X237664583Y-186221642D01*
X237712202Y-186269261D01*
X237807440Y-186316880D01*
X237997916Y-186316880D01*
X238093154Y-186269261D01*
X238140773Y-186221642D01*
X238188392Y-186126404D01*
X238188392Y-185888309D01*
X238140773Y-185793071D01*
X238093154Y-185745452D01*
X237997916Y-185697833D01*
X237807440Y-185697833D01*
X237712202Y-185745452D01*
X237664583Y-185793071D01*
X237616964Y-185888309D01*
X239140773Y-186316880D02*
X238569345Y-186316880D01*
X238855059Y-186316880D02*
X238855059Y-185316880D01*
X238759821Y-185459738D01*
X238664583Y-185554976D01*
X238569345Y-185602595D01*
%TO.C,MX60*%
X164131845Y-186316880D02*
X164131845Y-185316880D01*
X164465178Y-186031166D01*
X164798511Y-185316880D01*
X164798511Y-186316880D01*
X165179464Y-185316880D02*
X165846130Y-186316880D01*
X165846130Y-185316880D02*
X165179464Y-186316880D01*
X166655654Y-185316880D02*
X166465178Y-185316880D01*
X166369940Y-185364500D01*
X166322321Y-185412119D01*
X166227083Y-185554976D01*
X166179464Y-185745452D01*
X166179464Y-186126404D01*
X166227083Y-186221642D01*
X166274702Y-186269261D01*
X166369940Y-186316880D01*
X166560416Y-186316880D01*
X166655654Y-186269261D01*
X166703273Y-186221642D01*
X166750892Y-186126404D01*
X166750892Y-185888309D01*
X166703273Y-185793071D01*
X166655654Y-185745452D01*
X166560416Y-185697833D01*
X166369940Y-185697833D01*
X166274702Y-185745452D01*
X166227083Y-185793071D01*
X166179464Y-185888309D01*
X167369940Y-185316880D02*
X167465178Y-185316880D01*
X167560416Y-185364500D01*
X167608035Y-185412119D01*
X167655654Y-185507357D01*
X167703273Y-185697833D01*
X167703273Y-185935928D01*
X167655654Y-186126404D01*
X167608035Y-186221642D01*
X167560416Y-186269261D01*
X167465178Y-186316880D01*
X167369940Y-186316880D01*
X167274702Y-186269261D01*
X167227083Y-186221642D01*
X167179464Y-186126404D01*
X167131845Y-185935928D01*
X167131845Y-185697833D01*
X167179464Y-185507357D01*
X167227083Y-185412119D01*
X167274702Y-185364500D01*
X167369940Y-185316880D01*
%TO.C,MX59*%
X92694345Y-186316880D02*
X92694345Y-185316880D01*
X93027678Y-186031166D01*
X93361011Y-185316880D01*
X93361011Y-186316880D01*
X93741964Y-185316880D02*
X94408630Y-186316880D01*
X94408630Y-185316880D02*
X93741964Y-186316880D01*
X95265773Y-185316880D02*
X94789583Y-185316880D01*
X94741964Y-185793071D01*
X94789583Y-185745452D01*
X94884821Y-185697833D01*
X95122916Y-185697833D01*
X95218154Y-185745452D01*
X95265773Y-185793071D01*
X95313392Y-185888309D01*
X95313392Y-186126404D01*
X95265773Y-186221642D01*
X95218154Y-186269261D01*
X95122916Y-186316880D01*
X94884821Y-186316880D01*
X94789583Y-186269261D01*
X94741964Y-186221642D01*
X95789583Y-186316880D02*
X95980059Y-186316880D01*
X96075297Y-186269261D01*
X96122916Y-186221642D01*
X96218154Y-186078785D01*
X96265773Y-185888309D01*
X96265773Y-185507357D01*
X96218154Y-185412119D01*
X96170535Y-185364500D01*
X96075297Y-185316880D01*
X95884821Y-185316880D01*
X95789583Y-185364500D01*
X95741964Y-185412119D01*
X95694345Y-185507357D01*
X95694345Y-185745452D01*
X95741964Y-185840690D01*
X95789583Y-185888309D01*
X95884821Y-185935928D01*
X96075297Y-185935928D01*
X96170535Y-185888309D01*
X96218154Y-185840690D01*
X96265773Y-185745452D01*
%TO.C,MX58*%
X71263095Y-186316880D02*
X71263095Y-185316880D01*
X71596428Y-186031166D01*
X71929761Y-185316880D01*
X71929761Y-186316880D01*
X72310714Y-185316880D02*
X72977380Y-186316880D01*
X72977380Y-185316880D02*
X72310714Y-186316880D01*
X73834523Y-185316880D02*
X73358333Y-185316880D01*
X73310714Y-185793071D01*
X73358333Y-185745452D01*
X73453571Y-185697833D01*
X73691666Y-185697833D01*
X73786904Y-185745452D01*
X73834523Y-185793071D01*
X73882142Y-185888309D01*
X73882142Y-186126404D01*
X73834523Y-186221642D01*
X73786904Y-186269261D01*
X73691666Y-186316880D01*
X73453571Y-186316880D01*
X73358333Y-186269261D01*
X73310714Y-186221642D01*
X74453571Y-185745452D02*
X74358333Y-185697833D01*
X74310714Y-185650214D01*
X74263095Y-185554976D01*
X74263095Y-185507357D01*
X74310714Y-185412119D01*
X74358333Y-185364500D01*
X74453571Y-185316880D01*
X74644047Y-185316880D01*
X74739285Y-185364500D01*
X74786904Y-185412119D01*
X74834523Y-185507357D01*
X74834523Y-185554976D01*
X74786904Y-185650214D01*
X74739285Y-185697833D01*
X74644047Y-185745452D01*
X74453571Y-185745452D01*
X74358333Y-185793071D01*
X74310714Y-185840690D01*
X74263095Y-185935928D01*
X74263095Y-186126404D01*
X74310714Y-186221642D01*
X74358333Y-186269261D01*
X74453571Y-186316880D01*
X74644047Y-186316880D01*
X74739285Y-186269261D01*
X74786904Y-186221642D01*
X74834523Y-186126404D01*
X74834523Y-185935928D01*
X74786904Y-185840690D01*
X74739285Y-185793071D01*
X74644047Y-185745452D01*
%TO.C,MX57*%
X49831845Y-186316880D02*
X49831845Y-185316880D01*
X50165178Y-186031166D01*
X50498511Y-185316880D01*
X50498511Y-186316880D01*
X50879464Y-185316880D02*
X51546130Y-186316880D01*
X51546130Y-185316880D02*
X50879464Y-186316880D01*
X52403273Y-185316880D02*
X51927083Y-185316880D01*
X51879464Y-185793071D01*
X51927083Y-185745452D01*
X52022321Y-185697833D01*
X52260416Y-185697833D01*
X52355654Y-185745452D01*
X52403273Y-185793071D01*
X52450892Y-185888309D01*
X52450892Y-186126404D01*
X52403273Y-186221642D01*
X52355654Y-186269261D01*
X52260416Y-186316880D01*
X52022321Y-186316880D01*
X51927083Y-186269261D01*
X51879464Y-186221642D01*
X52784226Y-185316880D02*
X53450892Y-185316880D01*
X53022321Y-186316880D01*
%TO.C,MX56*%
X342725595Y-167266880D02*
X342725595Y-166266880D01*
X343058928Y-166981166D01*
X343392261Y-166266880D01*
X343392261Y-167266880D01*
X343773214Y-166266880D02*
X344439880Y-167266880D01*
X344439880Y-166266880D02*
X343773214Y-167266880D01*
X345297023Y-166266880D02*
X344820833Y-166266880D01*
X344773214Y-166743071D01*
X344820833Y-166695452D01*
X344916071Y-166647833D01*
X345154166Y-166647833D01*
X345249404Y-166695452D01*
X345297023Y-166743071D01*
X345344642Y-166838309D01*
X345344642Y-167076404D01*
X345297023Y-167171642D01*
X345249404Y-167219261D01*
X345154166Y-167266880D01*
X344916071Y-167266880D01*
X344820833Y-167219261D01*
X344773214Y-167171642D01*
X346201785Y-166266880D02*
X346011309Y-166266880D01*
X345916071Y-166314500D01*
X345868452Y-166362119D01*
X345773214Y-166504976D01*
X345725595Y-166695452D01*
X345725595Y-167076404D01*
X345773214Y-167171642D01*
X345820833Y-167219261D01*
X345916071Y-167266880D01*
X346106547Y-167266880D01*
X346201785Y-167219261D01*
X346249404Y-167171642D01*
X346297023Y-167076404D01*
X346297023Y-166838309D01*
X346249404Y-166743071D01*
X346201785Y-166695452D01*
X346106547Y-166647833D01*
X345916071Y-166647833D01*
X345820833Y-166695452D01*
X345773214Y-166743071D01*
X345725595Y-166838309D01*
%TO.C,MX55*%
X323675595Y-167266880D02*
X323675595Y-166266880D01*
X324008928Y-166981166D01*
X324342261Y-166266880D01*
X324342261Y-167266880D01*
X324723214Y-166266880D02*
X325389880Y-167266880D01*
X325389880Y-166266880D02*
X324723214Y-167266880D01*
X326247023Y-166266880D02*
X325770833Y-166266880D01*
X325723214Y-166743071D01*
X325770833Y-166695452D01*
X325866071Y-166647833D01*
X326104166Y-166647833D01*
X326199404Y-166695452D01*
X326247023Y-166743071D01*
X326294642Y-166838309D01*
X326294642Y-167076404D01*
X326247023Y-167171642D01*
X326199404Y-167219261D01*
X326104166Y-167266880D01*
X325866071Y-167266880D01*
X325770833Y-167219261D01*
X325723214Y-167171642D01*
X327199404Y-166266880D02*
X326723214Y-166266880D01*
X326675595Y-166743071D01*
X326723214Y-166695452D01*
X326818452Y-166647833D01*
X327056547Y-166647833D01*
X327151785Y-166695452D01*
X327199404Y-166743071D01*
X327247023Y-166838309D01*
X327247023Y-167076404D01*
X327199404Y-167171642D01*
X327151785Y-167219261D01*
X327056547Y-167266880D01*
X326818452Y-167266880D01*
X326723214Y-167219261D01*
X326675595Y-167171642D01*
%TO.C,MX54*%
X292719345Y-167266880D02*
X292719345Y-166266880D01*
X293052678Y-166981166D01*
X293386011Y-166266880D01*
X293386011Y-167266880D01*
X293766964Y-166266880D02*
X294433630Y-167266880D01*
X294433630Y-166266880D02*
X293766964Y-167266880D01*
X295290773Y-166266880D02*
X294814583Y-166266880D01*
X294766964Y-166743071D01*
X294814583Y-166695452D01*
X294909821Y-166647833D01*
X295147916Y-166647833D01*
X295243154Y-166695452D01*
X295290773Y-166743071D01*
X295338392Y-166838309D01*
X295338392Y-167076404D01*
X295290773Y-167171642D01*
X295243154Y-167219261D01*
X295147916Y-167266880D01*
X294909821Y-167266880D01*
X294814583Y-167219261D01*
X294766964Y-167171642D01*
X296195535Y-166600214D02*
X296195535Y-167266880D01*
X295957440Y-166219261D02*
X295719345Y-166933547D01*
X296338392Y-166933547D01*
%TO.C,MX53*%
X261763095Y-167266880D02*
X261763095Y-166266880D01*
X262096428Y-166981166D01*
X262429761Y-166266880D01*
X262429761Y-167266880D01*
X262810714Y-166266880D02*
X263477380Y-167266880D01*
X263477380Y-166266880D02*
X262810714Y-167266880D01*
X264334523Y-166266880D02*
X263858333Y-166266880D01*
X263810714Y-166743071D01*
X263858333Y-166695452D01*
X263953571Y-166647833D01*
X264191666Y-166647833D01*
X264286904Y-166695452D01*
X264334523Y-166743071D01*
X264382142Y-166838309D01*
X264382142Y-167076404D01*
X264334523Y-167171642D01*
X264286904Y-167219261D01*
X264191666Y-167266880D01*
X263953571Y-167266880D01*
X263858333Y-167219261D01*
X263810714Y-167171642D01*
X264715476Y-166266880D02*
X265334523Y-166266880D01*
X265001190Y-166647833D01*
X265144047Y-166647833D01*
X265239285Y-166695452D01*
X265286904Y-166743071D01*
X265334523Y-166838309D01*
X265334523Y-167076404D01*
X265286904Y-167171642D01*
X265239285Y-167219261D01*
X265144047Y-167266880D01*
X264858333Y-167266880D01*
X264763095Y-167219261D01*
X264715476Y-167171642D01*
%TO.C,MX52*%
X242713095Y-167266880D02*
X242713095Y-166266880D01*
X243046428Y-166981166D01*
X243379761Y-166266880D01*
X243379761Y-167266880D01*
X243760714Y-166266880D02*
X244427380Y-167266880D01*
X244427380Y-166266880D02*
X243760714Y-167266880D01*
X245284523Y-166266880D02*
X244808333Y-166266880D01*
X244760714Y-166743071D01*
X244808333Y-166695452D01*
X244903571Y-166647833D01*
X245141666Y-166647833D01*
X245236904Y-166695452D01*
X245284523Y-166743071D01*
X245332142Y-166838309D01*
X245332142Y-167076404D01*
X245284523Y-167171642D01*
X245236904Y-167219261D01*
X245141666Y-167266880D01*
X244903571Y-167266880D01*
X244808333Y-167219261D01*
X244760714Y-167171642D01*
X245713095Y-166362119D02*
X245760714Y-166314500D01*
X245855952Y-166266880D01*
X246094047Y-166266880D01*
X246189285Y-166314500D01*
X246236904Y-166362119D01*
X246284523Y-166457357D01*
X246284523Y-166552595D01*
X246236904Y-166695452D01*
X245665476Y-167266880D01*
X246284523Y-167266880D01*
%TO.C,MX51*%
X223663095Y-167266880D02*
X223663095Y-166266880D01*
X223996428Y-166981166D01*
X224329761Y-166266880D01*
X224329761Y-167266880D01*
X224710714Y-166266880D02*
X225377380Y-167266880D01*
X225377380Y-166266880D02*
X224710714Y-167266880D01*
X226234523Y-166266880D02*
X225758333Y-166266880D01*
X225710714Y-166743071D01*
X225758333Y-166695452D01*
X225853571Y-166647833D01*
X226091666Y-166647833D01*
X226186904Y-166695452D01*
X226234523Y-166743071D01*
X226282142Y-166838309D01*
X226282142Y-167076404D01*
X226234523Y-167171642D01*
X226186904Y-167219261D01*
X226091666Y-167266880D01*
X225853571Y-167266880D01*
X225758333Y-167219261D01*
X225710714Y-167171642D01*
X227234523Y-167266880D02*
X226663095Y-167266880D01*
X226948809Y-167266880D02*
X226948809Y-166266880D01*
X226853571Y-166409738D01*
X226758333Y-166504976D01*
X226663095Y-166552595D01*
%TO.C,MX50*%
X204613095Y-167266880D02*
X204613095Y-166266880D01*
X204946428Y-166981166D01*
X205279761Y-166266880D01*
X205279761Y-167266880D01*
X205660714Y-166266880D02*
X206327380Y-167266880D01*
X206327380Y-166266880D02*
X205660714Y-167266880D01*
X207184523Y-166266880D02*
X206708333Y-166266880D01*
X206660714Y-166743071D01*
X206708333Y-166695452D01*
X206803571Y-166647833D01*
X207041666Y-166647833D01*
X207136904Y-166695452D01*
X207184523Y-166743071D01*
X207232142Y-166838309D01*
X207232142Y-167076404D01*
X207184523Y-167171642D01*
X207136904Y-167219261D01*
X207041666Y-167266880D01*
X206803571Y-167266880D01*
X206708333Y-167219261D01*
X206660714Y-167171642D01*
X207851190Y-166266880D02*
X207946428Y-166266880D01*
X208041666Y-166314500D01*
X208089285Y-166362119D01*
X208136904Y-166457357D01*
X208184523Y-166647833D01*
X208184523Y-166885928D01*
X208136904Y-167076404D01*
X208089285Y-167171642D01*
X208041666Y-167219261D01*
X207946428Y-167266880D01*
X207851190Y-167266880D01*
X207755952Y-167219261D01*
X207708333Y-167171642D01*
X207660714Y-167076404D01*
X207613095Y-166885928D01*
X207613095Y-166647833D01*
X207660714Y-166457357D01*
X207708333Y-166362119D01*
X207755952Y-166314500D01*
X207851190Y-166266880D01*
%TO.C,MX49*%
X185563095Y-167266880D02*
X185563095Y-166266880D01*
X185896428Y-166981166D01*
X186229761Y-166266880D01*
X186229761Y-167266880D01*
X186610714Y-166266880D02*
X187277380Y-167266880D01*
X187277380Y-166266880D02*
X186610714Y-167266880D01*
X188086904Y-166600214D02*
X188086904Y-167266880D01*
X187848809Y-166219261D02*
X187610714Y-166933547D01*
X188229761Y-166933547D01*
X188658333Y-167266880D02*
X188848809Y-167266880D01*
X188944047Y-167219261D01*
X188991666Y-167171642D01*
X189086904Y-167028785D01*
X189134523Y-166838309D01*
X189134523Y-166457357D01*
X189086904Y-166362119D01*
X189039285Y-166314500D01*
X188944047Y-166266880D01*
X188753571Y-166266880D01*
X188658333Y-166314500D01*
X188610714Y-166362119D01*
X188563095Y-166457357D01*
X188563095Y-166695452D01*
X188610714Y-166790690D01*
X188658333Y-166838309D01*
X188753571Y-166885928D01*
X188944047Y-166885928D01*
X189039285Y-166838309D01*
X189086904Y-166790690D01*
X189134523Y-166695452D01*
%TO.C,MX48*%
X166513095Y-167266880D02*
X166513095Y-166266880D01*
X166846428Y-166981166D01*
X167179761Y-166266880D01*
X167179761Y-167266880D01*
X167560714Y-166266880D02*
X168227380Y-167266880D01*
X168227380Y-166266880D02*
X167560714Y-167266880D01*
X169036904Y-166600214D02*
X169036904Y-167266880D01*
X168798809Y-166219261D02*
X168560714Y-166933547D01*
X169179761Y-166933547D01*
X169703571Y-166695452D02*
X169608333Y-166647833D01*
X169560714Y-166600214D01*
X169513095Y-166504976D01*
X169513095Y-166457357D01*
X169560714Y-166362119D01*
X169608333Y-166314500D01*
X169703571Y-166266880D01*
X169894047Y-166266880D01*
X169989285Y-166314500D01*
X170036904Y-166362119D01*
X170084523Y-166457357D01*
X170084523Y-166504976D01*
X170036904Y-166600214D01*
X169989285Y-166647833D01*
X169894047Y-166695452D01*
X169703571Y-166695452D01*
X169608333Y-166743071D01*
X169560714Y-166790690D01*
X169513095Y-166885928D01*
X169513095Y-167076404D01*
X169560714Y-167171642D01*
X169608333Y-167219261D01*
X169703571Y-167266880D01*
X169894047Y-167266880D01*
X169989285Y-167219261D01*
X170036904Y-167171642D01*
X170084523Y-167076404D01*
X170084523Y-166885928D01*
X170036904Y-166790690D01*
X169989285Y-166743071D01*
X169894047Y-166695452D01*
%TO.C,MX47*%
X147463095Y-167266880D02*
X147463095Y-166266880D01*
X147796428Y-166981166D01*
X148129761Y-166266880D01*
X148129761Y-167266880D01*
X148510714Y-166266880D02*
X149177380Y-167266880D01*
X149177380Y-166266880D02*
X148510714Y-167266880D01*
X149986904Y-166600214D02*
X149986904Y-167266880D01*
X149748809Y-166219261D02*
X149510714Y-166933547D01*
X150129761Y-166933547D01*
X150415476Y-166266880D02*
X151082142Y-166266880D01*
X150653571Y-167266880D01*
%TO.C,MX46*%
X128413095Y-167266880D02*
X128413095Y-166266880D01*
X128746428Y-166981166D01*
X129079761Y-166266880D01*
X129079761Y-167266880D01*
X129460714Y-166266880D02*
X130127380Y-167266880D01*
X130127380Y-166266880D02*
X129460714Y-167266880D01*
X130936904Y-166600214D02*
X130936904Y-167266880D01*
X130698809Y-166219261D02*
X130460714Y-166933547D01*
X131079761Y-166933547D01*
X131889285Y-166266880D02*
X131698809Y-166266880D01*
X131603571Y-166314500D01*
X131555952Y-166362119D01*
X131460714Y-166504976D01*
X131413095Y-166695452D01*
X131413095Y-167076404D01*
X131460714Y-167171642D01*
X131508333Y-167219261D01*
X131603571Y-167266880D01*
X131794047Y-167266880D01*
X131889285Y-167219261D01*
X131936904Y-167171642D01*
X131984523Y-167076404D01*
X131984523Y-166838309D01*
X131936904Y-166743071D01*
X131889285Y-166695452D01*
X131794047Y-166647833D01*
X131603571Y-166647833D01*
X131508333Y-166695452D01*
X131460714Y-166743071D01*
X131413095Y-166838309D01*
%TO.C,MX45*%
X109363095Y-167266880D02*
X109363095Y-166266880D01*
X109696428Y-166981166D01*
X110029761Y-166266880D01*
X110029761Y-167266880D01*
X110410714Y-166266880D02*
X111077380Y-167266880D01*
X111077380Y-166266880D02*
X110410714Y-167266880D01*
X111886904Y-166600214D02*
X111886904Y-167266880D01*
X111648809Y-166219261D02*
X111410714Y-166933547D01*
X112029761Y-166933547D01*
X112886904Y-166266880D02*
X112410714Y-166266880D01*
X112363095Y-166743071D01*
X112410714Y-166695452D01*
X112505952Y-166647833D01*
X112744047Y-166647833D01*
X112839285Y-166695452D01*
X112886904Y-166743071D01*
X112934523Y-166838309D01*
X112934523Y-167076404D01*
X112886904Y-167171642D01*
X112839285Y-167219261D01*
X112744047Y-167266880D01*
X112505952Y-167266880D01*
X112410714Y-167219261D01*
X112363095Y-167171642D01*
%TO.C,MX44*%
X90313095Y-167266880D02*
X90313095Y-166266880D01*
X90646428Y-166981166D01*
X90979761Y-166266880D01*
X90979761Y-167266880D01*
X91360714Y-166266880D02*
X92027380Y-167266880D01*
X92027380Y-166266880D02*
X91360714Y-167266880D01*
X92836904Y-166600214D02*
X92836904Y-167266880D01*
X92598809Y-166219261D02*
X92360714Y-166933547D01*
X92979761Y-166933547D01*
X93789285Y-166600214D02*
X93789285Y-167266880D01*
X93551190Y-166219261D02*
X93313095Y-166933547D01*
X93932142Y-166933547D01*
%TO.C,MX43*%
X59356845Y-167266880D02*
X59356845Y-166266880D01*
X59690178Y-166981166D01*
X60023511Y-166266880D01*
X60023511Y-167266880D01*
X60404464Y-166266880D02*
X61071130Y-167266880D01*
X61071130Y-166266880D02*
X60404464Y-167266880D01*
X61880654Y-166600214D02*
X61880654Y-167266880D01*
X61642559Y-166219261D02*
X61404464Y-166933547D01*
X62023511Y-166933547D01*
X62309226Y-166266880D02*
X62928273Y-166266880D01*
X62594940Y-166647833D01*
X62737797Y-166647833D01*
X62833035Y-166695452D01*
X62880654Y-166743071D01*
X62928273Y-166838309D01*
X62928273Y-167076404D01*
X62880654Y-167171642D01*
X62833035Y-167219261D01*
X62737797Y-167266880D01*
X62452083Y-167266880D01*
X62356845Y-167219261D01*
X62309226Y-167171642D01*
%TO.C,MX42*%
X342725595Y-148216880D02*
X342725595Y-147216880D01*
X343058928Y-147931166D01*
X343392261Y-147216880D01*
X343392261Y-148216880D01*
X343773214Y-147216880D02*
X344439880Y-148216880D01*
X344439880Y-147216880D02*
X343773214Y-148216880D01*
X345249404Y-147550214D02*
X345249404Y-148216880D01*
X345011309Y-147169261D02*
X344773214Y-147883547D01*
X345392261Y-147883547D01*
X345725595Y-147312119D02*
X345773214Y-147264500D01*
X345868452Y-147216880D01*
X346106547Y-147216880D01*
X346201785Y-147264500D01*
X346249404Y-147312119D01*
X346297023Y-147407357D01*
X346297023Y-147502595D01*
X346249404Y-147645452D01*
X345677976Y-148216880D01*
X346297023Y-148216880D01*
%TO.C,MX40*%
X271288095Y-148216880D02*
X271288095Y-147216880D01*
X271621428Y-147931166D01*
X271954761Y-147216880D01*
X271954761Y-148216880D01*
X272335714Y-147216880D02*
X273002380Y-148216880D01*
X273002380Y-147216880D02*
X272335714Y-148216880D01*
X273811904Y-147550214D02*
X273811904Y-148216880D01*
X273573809Y-147169261D02*
X273335714Y-147883547D01*
X273954761Y-147883547D01*
X274526190Y-147216880D02*
X274621428Y-147216880D01*
X274716666Y-147264500D01*
X274764285Y-147312119D01*
X274811904Y-147407357D01*
X274859523Y-147597833D01*
X274859523Y-147835928D01*
X274811904Y-148026404D01*
X274764285Y-148121642D01*
X274716666Y-148169261D01*
X274621428Y-148216880D01*
X274526190Y-148216880D01*
X274430952Y-148169261D01*
X274383333Y-148121642D01*
X274335714Y-148026404D01*
X274288095Y-147835928D01*
X274288095Y-147597833D01*
X274335714Y-147407357D01*
X274383333Y-147312119D01*
X274430952Y-147264500D01*
X274526190Y-147216880D01*
%TO.C,MX39*%
X252238095Y-148216880D02*
X252238095Y-147216880D01*
X252571428Y-147931166D01*
X252904761Y-147216880D01*
X252904761Y-148216880D01*
X253285714Y-147216880D02*
X253952380Y-148216880D01*
X253952380Y-147216880D02*
X253285714Y-148216880D01*
X254238095Y-147216880D02*
X254857142Y-147216880D01*
X254523809Y-147597833D01*
X254666666Y-147597833D01*
X254761904Y-147645452D01*
X254809523Y-147693071D01*
X254857142Y-147788309D01*
X254857142Y-148026404D01*
X254809523Y-148121642D01*
X254761904Y-148169261D01*
X254666666Y-148216880D01*
X254380952Y-148216880D01*
X254285714Y-148169261D01*
X254238095Y-148121642D01*
X255333333Y-148216880D02*
X255523809Y-148216880D01*
X255619047Y-148169261D01*
X255666666Y-148121642D01*
X255761904Y-147978785D01*
X255809523Y-147788309D01*
X255809523Y-147407357D01*
X255761904Y-147312119D01*
X255714285Y-147264500D01*
X255619047Y-147216880D01*
X255428571Y-147216880D01*
X255333333Y-147264500D01*
X255285714Y-147312119D01*
X255238095Y-147407357D01*
X255238095Y-147645452D01*
X255285714Y-147740690D01*
X255333333Y-147788309D01*
X255428571Y-147835928D01*
X255619047Y-147835928D01*
X255714285Y-147788309D01*
X255761904Y-147740690D01*
X255809523Y-147645452D01*
%TO.C,MX38*%
X233188095Y-148216880D02*
X233188095Y-147216880D01*
X233521428Y-147931166D01*
X233854761Y-147216880D01*
X233854761Y-148216880D01*
X234235714Y-147216880D02*
X234902380Y-148216880D01*
X234902380Y-147216880D02*
X234235714Y-148216880D01*
X235188095Y-147216880D02*
X235807142Y-147216880D01*
X235473809Y-147597833D01*
X235616666Y-147597833D01*
X235711904Y-147645452D01*
X235759523Y-147693071D01*
X235807142Y-147788309D01*
X235807142Y-148026404D01*
X235759523Y-148121642D01*
X235711904Y-148169261D01*
X235616666Y-148216880D01*
X235330952Y-148216880D01*
X235235714Y-148169261D01*
X235188095Y-148121642D01*
X236378571Y-147645452D02*
X236283333Y-147597833D01*
X236235714Y-147550214D01*
X236188095Y-147454976D01*
X236188095Y-147407357D01*
X236235714Y-147312119D01*
X236283333Y-147264500D01*
X236378571Y-147216880D01*
X236569047Y-147216880D01*
X236664285Y-147264500D01*
X236711904Y-147312119D01*
X236759523Y-147407357D01*
X236759523Y-147454976D01*
X236711904Y-147550214D01*
X236664285Y-147597833D01*
X236569047Y-147645452D01*
X236378571Y-147645452D01*
X236283333Y-147693071D01*
X236235714Y-147740690D01*
X236188095Y-147835928D01*
X236188095Y-148026404D01*
X236235714Y-148121642D01*
X236283333Y-148169261D01*
X236378571Y-148216880D01*
X236569047Y-148216880D01*
X236664285Y-148169261D01*
X236711904Y-148121642D01*
X236759523Y-148026404D01*
X236759523Y-147835928D01*
X236711904Y-147740690D01*
X236664285Y-147693071D01*
X236569047Y-147645452D01*
%TO.C,MX37*%
X214138095Y-148216880D02*
X214138095Y-147216880D01*
X214471428Y-147931166D01*
X214804761Y-147216880D01*
X214804761Y-148216880D01*
X215185714Y-147216880D02*
X215852380Y-148216880D01*
X215852380Y-147216880D02*
X215185714Y-148216880D01*
X216138095Y-147216880D02*
X216757142Y-147216880D01*
X216423809Y-147597833D01*
X216566666Y-147597833D01*
X216661904Y-147645452D01*
X216709523Y-147693071D01*
X216757142Y-147788309D01*
X216757142Y-148026404D01*
X216709523Y-148121642D01*
X216661904Y-148169261D01*
X216566666Y-148216880D01*
X216280952Y-148216880D01*
X216185714Y-148169261D01*
X216138095Y-148121642D01*
X217090476Y-147216880D02*
X217757142Y-147216880D01*
X217328571Y-148216880D01*
%TO.C,MX36*%
X195088095Y-148216880D02*
X195088095Y-147216880D01*
X195421428Y-147931166D01*
X195754761Y-147216880D01*
X195754761Y-148216880D01*
X196135714Y-147216880D02*
X196802380Y-148216880D01*
X196802380Y-147216880D02*
X196135714Y-148216880D01*
X197088095Y-147216880D02*
X197707142Y-147216880D01*
X197373809Y-147597833D01*
X197516666Y-147597833D01*
X197611904Y-147645452D01*
X197659523Y-147693071D01*
X197707142Y-147788309D01*
X197707142Y-148026404D01*
X197659523Y-148121642D01*
X197611904Y-148169261D01*
X197516666Y-148216880D01*
X197230952Y-148216880D01*
X197135714Y-148169261D01*
X197088095Y-148121642D01*
X198564285Y-147216880D02*
X198373809Y-147216880D01*
X198278571Y-147264500D01*
X198230952Y-147312119D01*
X198135714Y-147454976D01*
X198088095Y-147645452D01*
X198088095Y-148026404D01*
X198135714Y-148121642D01*
X198183333Y-148169261D01*
X198278571Y-148216880D01*
X198469047Y-148216880D01*
X198564285Y-148169261D01*
X198611904Y-148121642D01*
X198659523Y-148026404D01*
X198659523Y-147788309D01*
X198611904Y-147693071D01*
X198564285Y-147645452D01*
X198469047Y-147597833D01*
X198278571Y-147597833D01*
X198183333Y-147645452D01*
X198135714Y-147693071D01*
X198088095Y-147788309D01*
%TO.C,MX35*%
X176038095Y-148216880D02*
X176038095Y-147216880D01*
X176371428Y-147931166D01*
X176704761Y-147216880D01*
X176704761Y-148216880D01*
X177085714Y-147216880D02*
X177752380Y-148216880D01*
X177752380Y-147216880D02*
X177085714Y-148216880D01*
X178038095Y-147216880D02*
X178657142Y-147216880D01*
X178323809Y-147597833D01*
X178466666Y-147597833D01*
X178561904Y-147645452D01*
X178609523Y-147693071D01*
X178657142Y-147788309D01*
X178657142Y-148026404D01*
X178609523Y-148121642D01*
X178561904Y-148169261D01*
X178466666Y-148216880D01*
X178180952Y-148216880D01*
X178085714Y-148169261D01*
X178038095Y-148121642D01*
X179561904Y-147216880D02*
X179085714Y-147216880D01*
X179038095Y-147693071D01*
X179085714Y-147645452D01*
X179180952Y-147597833D01*
X179419047Y-147597833D01*
X179514285Y-147645452D01*
X179561904Y-147693071D01*
X179609523Y-147788309D01*
X179609523Y-148026404D01*
X179561904Y-148121642D01*
X179514285Y-148169261D01*
X179419047Y-148216880D01*
X179180952Y-148216880D01*
X179085714Y-148169261D01*
X179038095Y-148121642D01*
%TO.C,MX34*%
X156988095Y-148216880D02*
X156988095Y-147216880D01*
X157321428Y-147931166D01*
X157654761Y-147216880D01*
X157654761Y-148216880D01*
X158035714Y-147216880D02*
X158702380Y-148216880D01*
X158702380Y-147216880D02*
X158035714Y-148216880D01*
X158988095Y-147216880D02*
X159607142Y-147216880D01*
X159273809Y-147597833D01*
X159416666Y-147597833D01*
X159511904Y-147645452D01*
X159559523Y-147693071D01*
X159607142Y-147788309D01*
X159607142Y-148026404D01*
X159559523Y-148121642D01*
X159511904Y-148169261D01*
X159416666Y-148216880D01*
X159130952Y-148216880D01*
X159035714Y-148169261D01*
X158988095Y-148121642D01*
X160464285Y-147550214D02*
X160464285Y-148216880D01*
X160226190Y-147169261D02*
X159988095Y-147883547D01*
X160607142Y-147883547D01*
%TO.C,MX33*%
X137938095Y-148216880D02*
X137938095Y-147216880D01*
X138271428Y-147931166D01*
X138604761Y-147216880D01*
X138604761Y-148216880D01*
X138985714Y-147216880D02*
X139652380Y-148216880D01*
X139652380Y-147216880D02*
X138985714Y-148216880D01*
X139938095Y-147216880D02*
X140557142Y-147216880D01*
X140223809Y-147597833D01*
X140366666Y-147597833D01*
X140461904Y-147645452D01*
X140509523Y-147693071D01*
X140557142Y-147788309D01*
X140557142Y-148026404D01*
X140509523Y-148121642D01*
X140461904Y-148169261D01*
X140366666Y-148216880D01*
X140080952Y-148216880D01*
X139985714Y-148169261D01*
X139938095Y-148121642D01*
X140890476Y-147216880D02*
X141509523Y-147216880D01*
X141176190Y-147597833D01*
X141319047Y-147597833D01*
X141414285Y-147645452D01*
X141461904Y-147693071D01*
X141509523Y-147788309D01*
X141509523Y-148026404D01*
X141461904Y-148121642D01*
X141414285Y-148169261D01*
X141319047Y-148216880D01*
X141033333Y-148216880D01*
X140938095Y-148169261D01*
X140890476Y-148121642D01*
%TO.C,MX32*%
X118888095Y-148216880D02*
X118888095Y-147216880D01*
X119221428Y-147931166D01*
X119554761Y-147216880D01*
X119554761Y-148216880D01*
X119935714Y-147216880D02*
X120602380Y-148216880D01*
X120602380Y-147216880D02*
X119935714Y-148216880D01*
X120888095Y-147216880D02*
X121507142Y-147216880D01*
X121173809Y-147597833D01*
X121316666Y-147597833D01*
X121411904Y-147645452D01*
X121459523Y-147693071D01*
X121507142Y-147788309D01*
X121507142Y-148026404D01*
X121459523Y-148121642D01*
X121411904Y-148169261D01*
X121316666Y-148216880D01*
X121030952Y-148216880D01*
X120935714Y-148169261D01*
X120888095Y-148121642D01*
X121888095Y-147312119D02*
X121935714Y-147264500D01*
X122030952Y-147216880D01*
X122269047Y-147216880D01*
X122364285Y-147264500D01*
X122411904Y-147312119D01*
X122459523Y-147407357D01*
X122459523Y-147502595D01*
X122411904Y-147645452D01*
X121840476Y-148216880D01*
X122459523Y-148216880D01*
%TO.C,MX31*%
X99838095Y-148216880D02*
X99838095Y-147216880D01*
X100171428Y-147931166D01*
X100504761Y-147216880D01*
X100504761Y-148216880D01*
X100885714Y-147216880D02*
X101552380Y-148216880D01*
X101552380Y-147216880D02*
X100885714Y-148216880D01*
X101838095Y-147216880D02*
X102457142Y-147216880D01*
X102123809Y-147597833D01*
X102266666Y-147597833D01*
X102361904Y-147645452D01*
X102409523Y-147693071D01*
X102457142Y-147788309D01*
X102457142Y-148026404D01*
X102409523Y-148121642D01*
X102361904Y-148169261D01*
X102266666Y-148216880D01*
X101980952Y-148216880D01*
X101885714Y-148169261D01*
X101838095Y-148121642D01*
X103409523Y-148216880D02*
X102838095Y-148216880D01*
X103123809Y-148216880D02*
X103123809Y-147216880D01*
X103028571Y-147359738D01*
X102933333Y-147454976D01*
X102838095Y-147502595D01*
%TO.C,MX30*%
X80788095Y-148216880D02*
X80788095Y-147216880D01*
X81121428Y-147931166D01*
X81454761Y-147216880D01*
X81454761Y-148216880D01*
X81835714Y-147216880D02*
X82502380Y-148216880D01*
X82502380Y-147216880D02*
X81835714Y-148216880D01*
X82788095Y-147216880D02*
X83407142Y-147216880D01*
X83073809Y-147597833D01*
X83216666Y-147597833D01*
X83311904Y-147645452D01*
X83359523Y-147693071D01*
X83407142Y-147788309D01*
X83407142Y-148026404D01*
X83359523Y-148121642D01*
X83311904Y-148169261D01*
X83216666Y-148216880D01*
X82930952Y-148216880D01*
X82835714Y-148169261D01*
X82788095Y-148121642D01*
X84026190Y-147216880D02*
X84121428Y-147216880D01*
X84216666Y-147264500D01*
X84264285Y-147312119D01*
X84311904Y-147407357D01*
X84359523Y-147597833D01*
X84359523Y-147835928D01*
X84311904Y-148026404D01*
X84264285Y-148121642D01*
X84216666Y-148169261D01*
X84121428Y-148216880D01*
X84026190Y-148216880D01*
X83930952Y-148169261D01*
X83883333Y-148121642D01*
X83835714Y-148026404D01*
X83788095Y-147835928D01*
X83788095Y-147597833D01*
X83835714Y-147407357D01*
X83883333Y-147312119D01*
X83930952Y-147264500D01*
X84026190Y-147216880D01*
%TO.C,MX29*%
X54594345Y-148216880D02*
X54594345Y-147216880D01*
X54927678Y-147931166D01*
X55261011Y-147216880D01*
X55261011Y-148216880D01*
X55641964Y-147216880D02*
X56308630Y-148216880D01*
X56308630Y-147216880D02*
X55641964Y-148216880D01*
X56641964Y-147312119D02*
X56689583Y-147264500D01*
X56784821Y-147216880D01*
X57022916Y-147216880D01*
X57118154Y-147264500D01*
X57165773Y-147312119D01*
X57213392Y-147407357D01*
X57213392Y-147502595D01*
X57165773Y-147645452D01*
X56594345Y-148216880D01*
X57213392Y-148216880D01*
X57689583Y-148216880D02*
X57880059Y-148216880D01*
X57975297Y-148169261D01*
X58022916Y-148121642D01*
X58118154Y-147978785D01*
X58165773Y-147788309D01*
X58165773Y-147407357D01*
X58118154Y-147312119D01*
X58070535Y-147264500D01*
X57975297Y-147216880D01*
X57784821Y-147216880D01*
X57689583Y-147264500D01*
X57641964Y-147312119D01*
X57594345Y-147407357D01*
X57594345Y-147645452D01*
X57641964Y-147740690D01*
X57689583Y-147788309D01*
X57784821Y-147835928D01*
X57975297Y-147835928D01*
X58070535Y-147788309D01*
X58118154Y-147740690D01*
X58165773Y-147645452D01*
%TO.C,MX28*%
X309388095Y-129166880D02*
X309388095Y-128166880D01*
X309721428Y-128881166D01*
X310054761Y-128166880D01*
X310054761Y-129166880D01*
X310435714Y-128166880D02*
X311102380Y-129166880D01*
X311102380Y-128166880D02*
X310435714Y-129166880D01*
X311435714Y-128262119D02*
X311483333Y-128214500D01*
X311578571Y-128166880D01*
X311816666Y-128166880D01*
X311911904Y-128214500D01*
X311959523Y-128262119D01*
X312007142Y-128357357D01*
X312007142Y-128452595D01*
X311959523Y-128595452D01*
X311388095Y-129166880D01*
X312007142Y-129166880D01*
X312578571Y-128595452D02*
X312483333Y-128547833D01*
X312435714Y-128500214D01*
X312388095Y-128404976D01*
X312388095Y-128357357D01*
X312435714Y-128262119D01*
X312483333Y-128214500D01*
X312578571Y-128166880D01*
X312769047Y-128166880D01*
X312864285Y-128214500D01*
X312911904Y-128262119D01*
X312959523Y-128357357D01*
X312959523Y-128404976D01*
X312911904Y-128500214D01*
X312864285Y-128547833D01*
X312769047Y-128595452D01*
X312578571Y-128595452D01*
X312483333Y-128643071D01*
X312435714Y-128690690D01*
X312388095Y-128785928D01*
X312388095Y-128976404D01*
X312435714Y-129071642D01*
X312483333Y-129119261D01*
X312578571Y-129166880D01*
X312769047Y-129166880D01*
X312864285Y-129119261D01*
X312911904Y-129071642D01*
X312959523Y-128976404D01*
X312959523Y-128785928D01*
X312911904Y-128690690D01*
X312864285Y-128643071D01*
X312769047Y-128595452D01*
%TO.C,MX27*%
X285575595Y-129166880D02*
X285575595Y-128166880D01*
X285908928Y-128881166D01*
X286242261Y-128166880D01*
X286242261Y-129166880D01*
X286623214Y-128166880D02*
X287289880Y-129166880D01*
X287289880Y-128166880D02*
X286623214Y-129166880D01*
X287623214Y-128262119D02*
X287670833Y-128214500D01*
X287766071Y-128166880D01*
X288004166Y-128166880D01*
X288099404Y-128214500D01*
X288147023Y-128262119D01*
X288194642Y-128357357D01*
X288194642Y-128452595D01*
X288147023Y-128595452D01*
X287575595Y-129166880D01*
X288194642Y-129166880D01*
X288527976Y-128166880D02*
X289194642Y-128166880D01*
X288766071Y-129166880D01*
%TO.C,MX26*%
X266525595Y-129166880D02*
X266525595Y-128166880D01*
X266858928Y-128881166D01*
X267192261Y-128166880D01*
X267192261Y-129166880D01*
X267573214Y-128166880D02*
X268239880Y-129166880D01*
X268239880Y-128166880D02*
X267573214Y-129166880D01*
X268573214Y-128262119D02*
X268620833Y-128214500D01*
X268716071Y-128166880D01*
X268954166Y-128166880D01*
X269049404Y-128214500D01*
X269097023Y-128262119D01*
X269144642Y-128357357D01*
X269144642Y-128452595D01*
X269097023Y-128595452D01*
X268525595Y-129166880D01*
X269144642Y-129166880D01*
X270001785Y-128166880D02*
X269811309Y-128166880D01*
X269716071Y-128214500D01*
X269668452Y-128262119D01*
X269573214Y-128404976D01*
X269525595Y-128595452D01*
X269525595Y-128976404D01*
X269573214Y-129071642D01*
X269620833Y-129119261D01*
X269716071Y-129166880D01*
X269906547Y-129166880D01*
X270001785Y-129119261D01*
X270049404Y-129071642D01*
X270097023Y-128976404D01*
X270097023Y-128738309D01*
X270049404Y-128643071D01*
X270001785Y-128595452D01*
X269906547Y-128547833D01*
X269716071Y-128547833D01*
X269620833Y-128595452D01*
X269573214Y-128643071D01*
X269525595Y-128738309D01*
%TO.C,MX25*%
X247475595Y-129166880D02*
X247475595Y-128166880D01*
X247808928Y-128881166D01*
X248142261Y-128166880D01*
X248142261Y-129166880D01*
X248523214Y-128166880D02*
X249189880Y-129166880D01*
X249189880Y-128166880D02*
X248523214Y-129166880D01*
X249523214Y-128262119D02*
X249570833Y-128214500D01*
X249666071Y-128166880D01*
X249904166Y-128166880D01*
X249999404Y-128214500D01*
X250047023Y-128262119D01*
X250094642Y-128357357D01*
X250094642Y-128452595D01*
X250047023Y-128595452D01*
X249475595Y-129166880D01*
X250094642Y-129166880D01*
X250999404Y-128166880D02*
X250523214Y-128166880D01*
X250475595Y-128643071D01*
X250523214Y-128595452D01*
X250618452Y-128547833D01*
X250856547Y-128547833D01*
X250951785Y-128595452D01*
X250999404Y-128643071D01*
X251047023Y-128738309D01*
X251047023Y-128976404D01*
X250999404Y-129071642D01*
X250951785Y-129119261D01*
X250856547Y-129166880D01*
X250618452Y-129166880D01*
X250523214Y-129119261D01*
X250475595Y-129071642D01*
%TO.C,MX24*%
X228425595Y-129166880D02*
X228425595Y-128166880D01*
X228758928Y-128881166D01*
X229092261Y-128166880D01*
X229092261Y-129166880D01*
X229473214Y-128166880D02*
X230139880Y-129166880D01*
X230139880Y-128166880D02*
X229473214Y-129166880D01*
X230473214Y-128262119D02*
X230520833Y-128214500D01*
X230616071Y-128166880D01*
X230854166Y-128166880D01*
X230949404Y-128214500D01*
X230997023Y-128262119D01*
X231044642Y-128357357D01*
X231044642Y-128452595D01*
X230997023Y-128595452D01*
X230425595Y-129166880D01*
X231044642Y-129166880D01*
X231901785Y-128500214D02*
X231901785Y-129166880D01*
X231663690Y-128119261D02*
X231425595Y-128833547D01*
X232044642Y-128833547D01*
%TO.C,MX23*%
X209375595Y-129166880D02*
X209375595Y-128166880D01*
X209708928Y-128881166D01*
X210042261Y-128166880D01*
X210042261Y-129166880D01*
X210423214Y-128166880D02*
X211089880Y-129166880D01*
X211089880Y-128166880D02*
X210423214Y-129166880D01*
X211423214Y-128262119D02*
X211470833Y-128214500D01*
X211566071Y-128166880D01*
X211804166Y-128166880D01*
X211899404Y-128214500D01*
X211947023Y-128262119D01*
X211994642Y-128357357D01*
X211994642Y-128452595D01*
X211947023Y-128595452D01*
X211375595Y-129166880D01*
X211994642Y-129166880D01*
X212327976Y-128166880D02*
X212947023Y-128166880D01*
X212613690Y-128547833D01*
X212756547Y-128547833D01*
X212851785Y-128595452D01*
X212899404Y-128643071D01*
X212947023Y-128738309D01*
X212947023Y-128976404D01*
X212899404Y-129071642D01*
X212851785Y-129119261D01*
X212756547Y-129166880D01*
X212470833Y-129166880D01*
X212375595Y-129119261D01*
X212327976Y-129071642D01*
%TO.C,MX22*%
X190325595Y-129166880D02*
X190325595Y-128166880D01*
X190658928Y-128881166D01*
X190992261Y-128166880D01*
X190992261Y-129166880D01*
X191373214Y-128166880D02*
X192039880Y-129166880D01*
X192039880Y-128166880D02*
X191373214Y-129166880D01*
X192373214Y-128262119D02*
X192420833Y-128214500D01*
X192516071Y-128166880D01*
X192754166Y-128166880D01*
X192849404Y-128214500D01*
X192897023Y-128262119D01*
X192944642Y-128357357D01*
X192944642Y-128452595D01*
X192897023Y-128595452D01*
X192325595Y-129166880D01*
X192944642Y-129166880D01*
X193325595Y-128262119D02*
X193373214Y-128214500D01*
X193468452Y-128166880D01*
X193706547Y-128166880D01*
X193801785Y-128214500D01*
X193849404Y-128262119D01*
X193897023Y-128357357D01*
X193897023Y-128452595D01*
X193849404Y-128595452D01*
X193277976Y-129166880D01*
X193897023Y-129166880D01*
%TO.C,MX21*%
X171275595Y-129166880D02*
X171275595Y-128166880D01*
X171608928Y-128881166D01*
X171942261Y-128166880D01*
X171942261Y-129166880D01*
X172323214Y-128166880D02*
X172989880Y-129166880D01*
X172989880Y-128166880D02*
X172323214Y-129166880D01*
X173323214Y-128262119D02*
X173370833Y-128214500D01*
X173466071Y-128166880D01*
X173704166Y-128166880D01*
X173799404Y-128214500D01*
X173847023Y-128262119D01*
X173894642Y-128357357D01*
X173894642Y-128452595D01*
X173847023Y-128595452D01*
X173275595Y-129166880D01*
X173894642Y-129166880D01*
X174847023Y-129166880D02*
X174275595Y-129166880D01*
X174561309Y-129166880D02*
X174561309Y-128166880D01*
X174466071Y-128309738D01*
X174370833Y-128404976D01*
X174275595Y-128452595D01*
%TO.C,MX20*%
X152225595Y-129166880D02*
X152225595Y-128166880D01*
X152558928Y-128881166D01*
X152892261Y-128166880D01*
X152892261Y-129166880D01*
X153273214Y-128166880D02*
X153939880Y-129166880D01*
X153939880Y-128166880D02*
X153273214Y-129166880D01*
X154273214Y-128262119D02*
X154320833Y-128214500D01*
X154416071Y-128166880D01*
X154654166Y-128166880D01*
X154749404Y-128214500D01*
X154797023Y-128262119D01*
X154844642Y-128357357D01*
X154844642Y-128452595D01*
X154797023Y-128595452D01*
X154225595Y-129166880D01*
X154844642Y-129166880D01*
X155463690Y-128166880D02*
X155558928Y-128166880D01*
X155654166Y-128214500D01*
X155701785Y-128262119D01*
X155749404Y-128357357D01*
X155797023Y-128547833D01*
X155797023Y-128785928D01*
X155749404Y-128976404D01*
X155701785Y-129071642D01*
X155654166Y-129119261D01*
X155558928Y-129166880D01*
X155463690Y-129166880D01*
X155368452Y-129119261D01*
X155320833Y-129071642D01*
X155273214Y-128976404D01*
X155225595Y-128785928D01*
X155225595Y-128547833D01*
X155273214Y-128357357D01*
X155320833Y-128262119D01*
X155368452Y-128214500D01*
X155463690Y-128166880D01*
%TO.C,MX19*%
X133175595Y-129166880D02*
X133175595Y-128166880D01*
X133508928Y-128881166D01*
X133842261Y-128166880D01*
X133842261Y-129166880D01*
X134223214Y-128166880D02*
X134889880Y-129166880D01*
X134889880Y-128166880D02*
X134223214Y-129166880D01*
X135794642Y-129166880D02*
X135223214Y-129166880D01*
X135508928Y-129166880D02*
X135508928Y-128166880D01*
X135413690Y-128309738D01*
X135318452Y-128404976D01*
X135223214Y-128452595D01*
X136270833Y-129166880D02*
X136461309Y-129166880D01*
X136556547Y-129119261D01*
X136604166Y-129071642D01*
X136699404Y-128928785D01*
X136747023Y-128738309D01*
X136747023Y-128357357D01*
X136699404Y-128262119D01*
X136651785Y-128214500D01*
X136556547Y-128166880D01*
X136366071Y-128166880D01*
X136270833Y-128214500D01*
X136223214Y-128262119D01*
X136175595Y-128357357D01*
X136175595Y-128595452D01*
X136223214Y-128690690D01*
X136270833Y-128738309D01*
X136366071Y-128785928D01*
X136556547Y-128785928D01*
X136651785Y-128738309D01*
X136699404Y-128690690D01*
X136747023Y-128595452D01*
%TO.C,MX18*%
X114125595Y-129166880D02*
X114125595Y-128166880D01*
X114458928Y-128881166D01*
X114792261Y-128166880D01*
X114792261Y-129166880D01*
X115173214Y-128166880D02*
X115839880Y-129166880D01*
X115839880Y-128166880D02*
X115173214Y-129166880D01*
X116744642Y-129166880D02*
X116173214Y-129166880D01*
X116458928Y-129166880D02*
X116458928Y-128166880D01*
X116363690Y-128309738D01*
X116268452Y-128404976D01*
X116173214Y-128452595D01*
X117316071Y-128595452D02*
X117220833Y-128547833D01*
X117173214Y-128500214D01*
X117125595Y-128404976D01*
X117125595Y-128357357D01*
X117173214Y-128262119D01*
X117220833Y-128214500D01*
X117316071Y-128166880D01*
X117506547Y-128166880D01*
X117601785Y-128214500D01*
X117649404Y-128262119D01*
X117697023Y-128357357D01*
X117697023Y-128404976D01*
X117649404Y-128500214D01*
X117601785Y-128547833D01*
X117506547Y-128595452D01*
X117316071Y-128595452D01*
X117220833Y-128643071D01*
X117173214Y-128690690D01*
X117125595Y-128785928D01*
X117125595Y-128976404D01*
X117173214Y-129071642D01*
X117220833Y-129119261D01*
X117316071Y-129166880D01*
X117506547Y-129166880D01*
X117601785Y-129119261D01*
X117649404Y-129071642D01*
X117697023Y-128976404D01*
X117697023Y-128785928D01*
X117649404Y-128690690D01*
X117601785Y-128643071D01*
X117506547Y-128595452D01*
%TO.C,MX17*%
X95075595Y-129166880D02*
X95075595Y-128166880D01*
X95408928Y-128881166D01*
X95742261Y-128166880D01*
X95742261Y-129166880D01*
X96123214Y-128166880D02*
X96789880Y-129166880D01*
X96789880Y-128166880D02*
X96123214Y-129166880D01*
X97694642Y-129166880D02*
X97123214Y-129166880D01*
X97408928Y-129166880D02*
X97408928Y-128166880D01*
X97313690Y-128309738D01*
X97218452Y-128404976D01*
X97123214Y-128452595D01*
X98027976Y-128166880D02*
X98694642Y-128166880D01*
X98266071Y-129166880D01*
%TO.C,MX16*%
X76025595Y-129166880D02*
X76025595Y-128166880D01*
X76358928Y-128881166D01*
X76692261Y-128166880D01*
X76692261Y-129166880D01*
X77073214Y-128166880D02*
X77739880Y-129166880D01*
X77739880Y-128166880D02*
X77073214Y-129166880D01*
X78644642Y-129166880D02*
X78073214Y-129166880D01*
X78358928Y-129166880D02*
X78358928Y-128166880D01*
X78263690Y-128309738D01*
X78168452Y-128404976D01*
X78073214Y-128452595D01*
X79501785Y-128166880D02*
X79311309Y-128166880D01*
X79216071Y-128214500D01*
X79168452Y-128262119D01*
X79073214Y-128404976D01*
X79025595Y-128595452D01*
X79025595Y-128976404D01*
X79073214Y-129071642D01*
X79120833Y-129119261D01*
X79216071Y-129166880D01*
X79406547Y-129166880D01*
X79501785Y-129119261D01*
X79549404Y-129071642D01*
X79597023Y-128976404D01*
X79597023Y-128738309D01*
X79549404Y-128643071D01*
X79501785Y-128595452D01*
X79406547Y-128547833D01*
X79216071Y-128547833D01*
X79120833Y-128595452D01*
X79073214Y-128643071D01*
X79025595Y-128738309D01*
%TO.C,MX15*%
X52213095Y-129166880D02*
X52213095Y-128166880D01*
X52546428Y-128881166D01*
X52879761Y-128166880D01*
X52879761Y-129166880D01*
X53260714Y-128166880D02*
X53927380Y-129166880D01*
X53927380Y-128166880D02*
X53260714Y-129166880D01*
X54832142Y-129166880D02*
X54260714Y-129166880D01*
X54546428Y-129166880D02*
X54546428Y-128166880D01*
X54451190Y-128309738D01*
X54355952Y-128404976D01*
X54260714Y-128452595D01*
X55736904Y-128166880D02*
X55260714Y-128166880D01*
X55213095Y-128643071D01*
X55260714Y-128595452D01*
X55355952Y-128547833D01*
X55594047Y-128547833D01*
X55689285Y-128595452D01*
X55736904Y-128643071D01*
X55784523Y-128738309D01*
X55784523Y-128976404D01*
X55736904Y-129071642D01*
X55689285Y-129119261D01*
X55594047Y-129166880D01*
X55355952Y-129166880D01*
X55260714Y-129119261D01*
X55213095Y-129071642D01*
%TO.C,MX14*%
X304625595Y-110116880D02*
X304625595Y-109116880D01*
X304958928Y-109831166D01*
X305292261Y-109116880D01*
X305292261Y-110116880D01*
X305673214Y-109116880D02*
X306339880Y-110116880D01*
X306339880Y-109116880D02*
X305673214Y-110116880D01*
X307244642Y-110116880D02*
X306673214Y-110116880D01*
X306958928Y-110116880D02*
X306958928Y-109116880D01*
X306863690Y-109259738D01*
X306768452Y-109354976D01*
X306673214Y-109402595D01*
X308101785Y-109450214D02*
X308101785Y-110116880D01*
X307863690Y-109069261D02*
X307625595Y-109783547D01*
X308244642Y-109783547D01*
%TO.C,MX13*%
X276050595Y-110116880D02*
X276050595Y-109116880D01*
X276383928Y-109831166D01*
X276717261Y-109116880D01*
X276717261Y-110116880D01*
X277098214Y-109116880D02*
X277764880Y-110116880D01*
X277764880Y-109116880D02*
X277098214Y-110116880D01*
X278669642Y-110116880D02*
X278098214Y-110116880D01*
X278383928Y-110116880D02*
X278383928Y-109116880D01*
X278288690Y-109259738D01*
X278193452Y-109354976D01*
X278098214Y-109402595D01*
X279002976Y-109116880D02*
X279622023Y-109116880D01*
X279288690Y-109497833D01*
X279431547Y-109497833D01*
X279526785Y-109545452D01*
X279574404Y-109593071D01*
X279622023Y-109688309D01*
X279622023Y-109926404D01*
X279574404Y-110021642D01*
X279526785Y-110069261D01*
X279431547Y-110116880D01*
X279145833Y-110116880D01*
X279050595Y-110069261D01*
X279002976Y-110021642D01*
%TO.C,MX12*%
X257000595Y-110116880D02*
X257000595Y-109116880D01*
X257333928Y-109831166D01*
X257667261Y-109116880D01*
X257667261Y-110116880D01*
X258048214Y-109116880D02*
X258714880Y-110116880D01*
X258714880Y-109116880D02*
X258048214Y-110116880D01*
X259619642Y-110116880D02*
X259048214Y-110116880D01*
X259333928Y-110116880D02*
X259333928Y-109116880D01*
X259238690Y-109259738D01*
X259143452Y-109354976D01*
X259048214Y-109402595D01*
X260000595Y-109212119D02*
X260048214Y-109164500D01*
X260143452Y-109116880D01*
X260381547Y-109116880D01*
X260476785Y-109164500D01*
X260524404Y-109212119D01*
X260572023Y-109307357D01*
X260572023Y-109402595D01*
X260524404Y-109545452D01*
X259952976Y-110116880D01*
X260572023Y-110116880D01*
%TO.C,MX11*%
X237950595Y-110116880D02*
X237950595Y-109116880D01*
X238283928Y-109831166D01*
X238617261Y-109116880D01*
X238617261Y-110116880D01*
X238998214Y-109116880D02*
X239664880Y-110116880D01*
X239664880Y-109116880D02*
X238998214Y-110116880D01*
X240569642Y-110116880D02*
X239998214Y-110116880D01*
X240283928Y-110116880D02*
X240283928Y-109116880D01*
X240188690Y-109259738D01*
X240093452Y-109354976D01*
X239998214Y-109402595D01*
X241522023Y-110116880D02*
X240950595Y-110116880D01*
X241236309Y-110116880D02*
X241236309Y-109116880D01*
X241141071Y-109259738D01*
X241045833Y-109354976D01*
X240950595Y-109402595D01*
%TO.C,MX10*%
X218900595Y-110116880D02*
X218900595Y-109116880D01*
X219233928Y-109831166D01*
X219567261Y-109116880D01*
X219567261Y-110116880D01*
X219948214Y-109116880D02*
X220614880Y-110116880D01*
X220614880Y-109116880D02*
X219948214Y-110116880D01*
X221519642Y-110116880D02*
X220948214Y-110116880D01*
X221233928Y-110116880D02*
X221233928Y-109116880D01*
X221138690Y-109259738D01*
X221043452Y-109354976D01*
X220948214Y-109402595D01*
X222138690Y-109116880D02*
X222233928Y-109116880D01*
X222329166Y-109164500D01*
X222376785Y-109212119D01*
X222424404Y-109307357D01*
X222472023Y-109497833D01*
X222472023Y-109735928D01*
X222424404Y-109926404D01*
X222376785Y-110021642D01*
X222329166Y-110069261D01*
X222233928Y-110116880D01*
X222138690Y-110116880D01*
X222043452Y-110069261D01*
X221995833Y-110021642D01*
X221948214Y-109926404D01*
X221900595Y-109735928D01*
X221900595Y-109497833D01*
X221948214Y-109307357D01*
X221995833Y-109212119D01*
X222043452Y-109164500D01*
X222138690Y-109116880D01*
%TO.C,MX9*%
X200326785Y-110116880D02*
X200326785Y-109116880D01*
X200660119Y-109831166D01*
X200993452Y-109116880D01*
X200993452Y-110116880D01*
X201374404Y-109116880D02*
X202041071Y-110116880D01*
X202041071Y-109116880D02*
X201374404Y-110116880D01*
X202469642Y-110116880D02*
X202660119Y-110116880D01*
X202755357Y-110069261D01*
X202802976Y-110021642D01*
X202898214Y-109878785D01*
X202945833Y-109688309D01*
X202945833Y-109307357D01*
X202898214Y-109212119D01*
X202850595Y-109164500D01*
X202755357Y-109116880D01*
X202564880Y-109116880D01*
X202469642Y-109164500D01*
X202422023Y-109212119D01*
X202374404Y-109307357D01*
X202374404Y-109545452D01*
X202422023Y-109640690D01*
X202469642Y-109688309D01*
X202564880Y-109735928D01*
X202755357Y-109735928D01*
X202850595Y-109688309D01*
X202898214Y-109640690D01*
X202945833Y-109545452D01*
%TO.C,MX8*%
X181276785Y-110116880D02*
X181276785Y-109116880D01*
X181610119Y-109831166D01*
X181943452Y-109116880D01*
X181943452Y-110116880D01*
X182324404Y-109116880D02*
X182991071Y-110116880D01*
X182991071Y-109116880D02*
X182324404Y-110116880D01*
X183514880Y-109545452D02*
X183419642Y-109497833D01*
X183372023Y-109450214D01*
X183324404Y-109354976D01*
X183324404Y-109307357D01*
X183372023Y-109212119D01*
X183419642Y-109164500D01*
X183514880Y-109116880D01*
X183705357Y-109116880D01*
X183800595Y-109164500D01*
X183848214Y-109212119D01*
X183895833Y-109307357D01*
X183895833Y-109354976D01*
X183848214Y-109450214D01*
X183800595Y-109497833D01*
X183705357Y-109545452D01*
X183514880Y-109545452D01*
X183419642Y-109593071D01*
X183372023Y-109640690D01*
X183324404Y-109735928D01*
X183324404Y-109926404D01*
X183372023Y-110021642D01*
X183419642Y-110069261D01*
X183514880Y-110116880D01*
X183705357Y-110116880D01*
X183800595Y-110069261D01*
X183848214Y-110021642D01*
X183895833Y-109926404D01*
X183895833Y-109735928D01*
X183848214Y-109640690D01*
X183800595Y-109593071D01*
X183705357Y-109545452D01*
%TO.C,MX7*%
X162226785Y-110116880D02*
X162226785Y-109116880D01*
X162560119Y-109831166D01*
X162893452Y-109116880D01*
X162893452Y-110116880D01*
X163274404Y-109116880D02*
X163941071Y-110116880D01*
X163941071Y-109116880D02*
X163274404Y-110116880D01*
X164226785Y-109116880D02*
X164893452Y-109116880D01*
X164464880Y-110116880D01*
%TO.C,MX6*%
X143176785Y-110116880D02*
X143176785Y-109116880D01*
X143510119Y-109831166D01*
X143843452Y-109116880D01*
X143843452Y-110116880D01*
X144224404Y-109116880D02*
X144891071Y-110116880D01*
X144891071Y-109116880D02*
X144224404Y-110116880D01*
X145700595Y-109116880D02*
X145510119Y-109116880D01*
X145414880Y-109164500D01*
X145367261Y-109212119D01*
X145272023Y-109354976D01*
X145224404Y-109545452D01*
X145224404Y-109926404D01*
X145272023Y-110021642D01*
X145319642Y-110069261D01*
X145414880Y-110116880D01*
X145605357Y-110116880D01*
X145700595Y-110069261D01*
X145748214Y-110021642D01*
X145795833Y-109926404D01*
X145795833Y-109688309D01*
X145748214Y-109593071D01*
X145700595Y-109545452D01*
X145605357Y-109497833D01*
X145414880Y-109497833D01*
X145319642Y-109545452D01*
X145272023Y-109593071D01*
X145224404Y-109688309D01*
%TO.C,MX5*%
X124126785Y-110116880D02*
X124126785Y-109116880D01*
X124460119Y-109831166D01*
X124793452Y-109116880D01*
X124793452Y-110116880D01*
X125174404Y-109116880D02*
X125841071Y-110116880D01*
X125841071Y-109116880D02*
X125174404Y-110116880D01*
X126698214Y-109116880D02*
X126222023Y-109116880D01*
X126174404Y-109593071D01*
X126222023Y-109545452D01*
X126317261Y-109497833D01*
X126555357Y-109497833D01*
X126650595Y-109545452D01*
X126698214Y-109593071D01*
X126745833Y-109688309D01*
X126745833Y-109926404D01*
X126698214Y-110021642D01*
X126650595Y-110069261D01*
X126555357Y-110116880D01*
X126317261Y-110116880D01*
X126222023Y-110069261D01*
X126174404Y-110021642D01*
%TO.C,MX4*%
X105076785Y-110116880D02*
X105076785Y-109116880D01*
X105410119Y-109831166D01*
X105743452Y-109116880D01*
X105743452Y-110116880D01*
X106124404Y-109116880D02*
X106791071Y-110116880D01*
X106791071Y-109116880D02*
X106124404Y-110116880D01*
X107600595Y-109450214D02*
X107600595Y-110116880D01*
X107362500Y-109069261D02*
X107124404Y-109783547D01*
X107743452Y-109783547D01*
%TO.C,MX3*%
X86026785Y-110116880D02*
X86026785Y-109116880D01*
X86360119Y-109831166D01*
X86693452Y-109116880D01*
X86693452Y-110116880D01*
X87074404Y-109116880D02*
X87741071Y-110116880D01*
X87741071Y-109116880D02*
X87074404Y-110116880D01*
X88026785Y-109116880D02*
X88645833Y-109116880D01*
X88312500Y-109497833D01*
X88455357Y-109497833D01*
X88550595Y-109545452D01*
X88598214Y-109593071D01*
X88645833Y-109688309D01*
X88645833Y-109926404D01*
X88598214Y-110021642D01*
X88550595Y-110069261D01*
X88455357Y-110116880D01*
X88169642Y-110116880D01*
X88074404Y-110069261D01*
X88026785Y-110021642D01*
%TO.C,MX2*%
X66976785Y-110116880D02*
X66976785Y-109116880D01*
X67310119Y-109831166D01*
X67643452Y-109116880D01*
X67643452Y-110116880D01*
X68024404Y-109116880D02*
X68691071Y-110116880D01*
X68691071Y-109116880D02*
X68024404Y-110116880D01*
X69024404Y-109212119D02*
X69072023Y-109164500D01*
X69167261Y-109116880D01*
X69405357Y-109116880D01*
X69500595Y-109164500D01*
X69548214Y-109212119D01*
X69595833Y-109307357D01*
X69595833Y-109402595D01*
X69548214Y-109545452D01*
X68976785Y-110116880D01*
X69595833Y-110116880D01*
%TO.C,MX1*%
X47926785Y-110116880D02*
X47926785Y-109116880D01*
X48260119Y-109831166D01*
X48593452Y-109116880D01*
X48593452Y-110116880D01*
X48974404Y-109116880D02*
X49641071Y-110116880D01*
X49641071Y-109116880D02*
X48974404Y-110116880D01*
X50545833Y-110116880D02*
X49974404Y-110116880D01*
X50260119Y-110116880D02*
X50260119Y-109116880D01*
X50164880Y-109259738D01*
X50069642Y-109354976D01*
X49974404Y-109402595D01*
%TO.C,F1*%
X345072571Y-107264333D02*
X345072571Y-107597666D01*
X345596380Y-107597666D02*
X344596380Y-107597666D01*
X344596380Y-107121476D01*
X345596380Y-106216714D02*
X345596380Y-106788142D01*
X345596380Y-106502428D02*
X344596380Y-106502428D01*
X344739238Y-106597666D01*
X344834476Y-106692904D01*
X344882095Y-106788142D01*
%TO.C,D67*%
X354908380Y-108607785D02*
X353908380Y-108607785D01*
X353908380Y-108369690D01*
X353956000Y-108226833D01*
X354051238Y-108131595D01*
X354146476Y-108083976D01*
X354336952Y-108036357D01*
X354479809Y-108036357D01*
X354670285Y-108083976D01*
X354765523Y-108131595D01*
X354860761Y-108226833D01*
X354908380Y-108369690D01*
X354908380Y-108607785D01*
X353908380Y-107179214D02*
X353908380Y-107369690D01*
X353956000Y-107464928D01*
X354003619Y-107512547D01*
X354146476Y-107607785D01*
X354336952Y-107655404D01*
X354717904Y-107655404D01*
X354813142Y-107607785D01*
X354860761Y-107560166D01*
X354908380Y-107464928D01*
X354908380Y-107274452D01*
X354860761Y-107179214D01*
X354813142Y-107131595D01*
X354717904Y-107083976D01*
X354479809Y-107083976D01*
X354384571Y-107131595D01*
X354336952Y-107179214D01*
X354289333Y-107274452D01*
X354289333Y-107464928D01*
X354336952Y-107560166D01*
X354384571Y-107607785D01*
X354479809Y-107655404D01*
X353908380Y-106750642D02*
X353908380Y-106083976D01*
X354908380Y-106512547D01*
%TO.C,C9*%
X353449833Y-138930892D02*
X353402214Y-138978511D01*
X353259357Y-139026130D01*
X353164119Y-139026130D01*
X353021261Y-138978511D01*
X352926023Y-138883273D01*
X352878404Y-138788035D01*
X352830785Y-138597559D01*
X352830785Y-138454702D01*
X352878404Y-138264226D01*
X352926023Y-138168988D01*
X353021261Y-138073750D01*
X353164119Y-138026130D01*
X353259357Y-138026130D01*
X353402214Y-138073750D01*
X353449833Y-138121369D01*
X353926023Y-139026130D02*
X354116500Y-139026130D01*
X354211738Y-138978511D01*
X354259357Y-138930892D01*
X354354595Y-138788035D01*
X354402214Y-138597559D01*
X354402214Y-138216607D01*
X354354595Y-138121369D01*
X354306976Y-138073750D01*
X354211738Y-138026130D01*
X354021261Y-138026130D01*
X353926023Y-138073750D01*
X353878404Y-138121369D01*
X353830785Y-138216607D01*
X353830785Y-138454702D01*
X353878404Y-138549940D01*
X353926023Y-138597559D01*
X354021261Y-138645178D01*
X354211738Y-138645178D01*
X354306976Y-138597559D01*
X354354595Y-138549940D01*
X354402214Y-138454702D01*
%TO.C,C6*%
X342049833Y-117577142D02*
X342002214Y-117624761D01*
X341859357Y-117672380D01*
X341764119Y-117672380D01*
X341621261Y-117624761D01*
X341526023Y-117529523D01*
X341478404Y-117434285D01*
X341430785Y-117243809D01*
X341430785Y-117100952D01*
X341478404Y-116910476D01*
X341526023Y-116815238D01*
X341621261Y-116720000D01*
X341764119Y-116672380D01*
X341859357Y-116672380D01*
X342002214Y-116720000D01*
X342049833Y-116767619D01*
X342906976Y-116672380D02*
X342716500Y-116672380D01*
X342621261Y-116720000D01*
X342573642Y-116767619D01*
X342478404Y-116910476D01*
X342430785Y-117100952D01*
X342430785Y-117481904D01*
X342478404Y-117577142D01*
X342526023Y-117624761D01*
X342621261Y-117672380D01*
X342811738Y-117672380D01*
X342906976Y-117624761D01*
X342954595Y-117577142D01*
X343002214Y-117481904D01*
X343002214Y-117243809D01*
X342954595Y-117148571D01*
X342906976Y-117100952D01*
X342811738Y-117053333D01*
X342621261Y-117053333D01*
X342526023Y-117100952D01*
X342478404Y-117148571D01*
X342430785Y-117243809D01*
%TO.C,C5*%
X346464833Y-117071142D02*
X346417214Y-117118761D01*
X346274357Y-117166380D01*
X346179119Y-117166380D01*
X346036261Y-117118761D01*
X345941023Y-117023523D01*
X345893404Y-116928285D01*
X345845785Y-116737809D01*
X345845785Y-116594952D01*
X345893404Y-116404476D01*
X345941023Y-116309238D01*
X346036261Y-116214000D01*
X346179119Y-116166380D01*
X346274357Y-116166380D01*
X346417214Y-116214000D01*
X346464833Y-116261619D01*
X347369595Y-116166380D02*
X346893404Y-116166380D01*
X346845785Y-116642571D01*
X346893404Y-116594952D01*
X346988642Y-116547333D01*
X347226738Y-116547333D01*
X347321976Y-116594952D01*
X347369595Y-116642571D01*
X347417214Y-116737809D01*
X347417214Y-116975904D01*
X347369595Y-117071142D01*
X347321976Y-117118761D01*
X347226738Y-117166380D01*
X346988642Y-117166380D01*
X346893404Y-117118761D01*
X346845785Y-117071142D01*
%TO.C,C4*%
X346464833Y-121643142D02*
X346417214Y-121690761D01*
X346274357Y-121738380D01*
X346179119Y-121738380D01*
X346036261Y-121690761D01*
X345941023Y-121595523D01*
X345893404Y-121500285D01*
X345845785Y-121309809D01*
X345845785Y-121166952D01*
X345893404Y-120976476D01*
X345941023Y-120881238D01*
X346036261Y-120786000D01*
X346179119Y-120738380D01*
X346274357Y-120738380D01*
X346417214Y-120786000D01*
X346464833Y-120833619D01*
X347321976Y-121071714D02*
X347321976Y-121738380D01*
X347083880Y-120690761D02*
X346845785Y-121405047D01*
X347464833Y-121405047D01*
%TO.C,C3*%
X337670142Y-122927166D02*
X337717761Y-122974785D01*
X337765380Y-123117642D01*
X337765380Y-123212880D01*
X337717761Y-123355738D01*
X337622523Y-123450976D01*
X337527285Y-123498595D01*
X337336809Y-123546214D01*
X337193952Y-123546214D01*
X337003476Y-123498595D01*
X336908238Y-123450976D01*
X336813000Y-123355738D01*
X336765380Y-123212880D01*
X336765380Y-123117642D01*
X336813000Y-122974785D01*
X336860619Y-122927166D01*
X336765380Y-122593833D02*
X336765380Y-121974785D01*
X337146333Y-122308119D01*
X337146333Y-122165261D01*
X337193952Y-122070023D01*
X337241571Y-122022404D01*
X337336809Y-121974785D01*
X337574904Y-121974785D01*
X337670142Y-122022404D01*
X337717761Y-122070023D01*
X337765380Y-122165261D01*
X337765380Y-122450976D01*
X337717761Y-122546214D01*
X337670142Y-122593833D01*
%TO.C,C2*%
X340970142Y-118198166D02*
X341017761Y-118245785D01*
X341065380Y-118388642D01*
X341065380Y-118483880D01*
X341017761Y-118626738D01*
X340922523Y-118721976D01*
X340827285Y-118769595D01*
X340636809Y-118817214D01*
X340493952Y-118817214D01*
X340303476Y-118769595D01*
X340208238Y-118721976D01*
X340113000Y-118626738D01*
X340065380Y-118483880D01*
X340065380Y-118388642D01*
X340113000Y-118245785D01*
X340160619Y-118198166D01*
X340160619Y-117817214D02*
X340113000Y-117769595D01*
X340065380Y-117674357D01*
X340065380Y-117436261D01*
X340113000Y-117341023D01*
X340160619Y-117293404D01*
X340255857Y-117245785D01*
X340351095Y-117245785D01*
X340493952Y-117293404D01*
X341065380Y-117864833D01*
X341065380Y-117245785D01*
%TD*%
M02*
